<mxfile host="app.diagrams.net" modified="2023-09-14T15:46:05.736Z" agent="Mozilla/5.0 (Windows NT 10.0; Win64; x64) AppleWebKit/537.36 (KHTML, like Gecko) Chrome/116.0.0.0 Safari/537.36" etag="K4sUCM5kHl5nIeScTqH9" version="21.7.4" type="github">
  <diagram id="C5RBs43oDa-KdzZeNtuy" name="Page-1">
    <mxGraphModel dx="2862" dy="2311" grid="1" gridSize="10" guides="1" tooltips="1" connect="1" arrows="1" fold="1" page="1" pageScale="1" pageWidth="827" pageHeight="1169" math="0" shadow="0">
      <root>
        <mxCell id="WIyWlLk6GJQsqaUBKTNV-0" />
        <mxCell id="WIyWlLk6GJQsqaUBKTNV-1" parent="WIyWlLk6GJQsqaUBKTNV-0" />
        <mxCell id="GH-rgcXHdw-grydiUsWg-128" value="" style="rounded=1;whiteSpace=wrap;html=1;" vertex="1" parent="WIyWlLk6GJQsqaUBKTNV-1">
          <mxGeometry x="-166" y="550" width="580" height="430" as="geometry" />
        </mxCell>
        <mxCell id="TtT6zjxbn2nU0OrpLk1x-77" value="&lt;font color=&quot;#000000&quot;&gt;Admin（管理者）&lt;/font&gt;" style="shape=table;startSize=30;container=1;collapsible=1;childLayout=tableLayout;fixedRows=1;rowLines=0;fontStyle=1;align=center;resizeLast=1;html=1;strokeColor=#10739e;fontFamily=Helvetica;fontSize=12;fillColor=#b1ddf0;labelBackgroundColor=none;" parent="WIyWlLk6GJQsqaUBKTNV-1" vertex="1">
          <mxGeometry x="1460" y="-60" width="180" height="180" as="geometry">
            <mxRectangle x="50" y="90" width="80" height="30" as="alternateBounds" />
          </mxGeometry>
        </mxCell>
        <mxCell id="TtT6zjxbn2nU0OrpLk1x-78" value="" style="shape=tableRow;horizontal=0;startSize=0;swimlaneHead=0;swimlaneBody=0;fillColor=none;collapsible=0;dropTarget=0;points=[[0,0.5],[1,0.5]];portConstraint=eastwest;top=0;left=0;right=0;bottom=1;strokeColor=#788AA3;fontFamily=Helvetica;fontSize=12;fontColor=#46495D;html=1;labelBackgroundColor=none;" parent="TtT6zjxbn2nU0OrpLk1x-77" vertex="1">
          <mxGeometry y="30" width="180" height="30" as="geometry" />
        </mxCell>
        <mxCell id="TtT6zjxbn2nU0OrpLk1x-79" value="PK" style="shape=partialRectangle;connectable=0;fillColor=none;top=0;left=0;bottom=0;right=0;fontStyle=1;overflow=hidden;whiteSpace=wrap;html=1;strokeColor=#788AA3;fontFamily=Helvetica;fontSize=12;fontColor=#46495D;startSize=23;labelBackgroundColor=none;" parent="TtT6zjxbn2nU0OrpLk1x-78" vertex="1">
          <mxGeometry width="30" height="30" as="geometry">
            <mxRectangle width="30" height="30" as="alternateBounds" />
          </mxGeometry>
        </mxCell>
        <mxCell id="TtT6zjxbn2nU0OrpLk1x-80" value="admin_id" style="shape=partialRectangle;connectable=0;fillColor=none;top=0;left=0;bottom=0;right=0;align=left;spacingLeft=6;fontStyle=5;overflow=hidden;whiteSpace=wrap;html=1;strokeColor=#788AA3;fontFamily=Helvetica;fontSize=12;fontColor=#46495D;startSize=23;labelBackgroundColor=none;" parent="TtT6zjxbn2nU0OrpLk1x-78" vertex="1">
          <mxGeometry x="30" width="150" height="30" as="geometry">
            <mxRectangle width="150" height="30" as="alternateBounds" />
          </mxGeometry>
        </mxCell>
        <mxCell id="TtT6zjxbn2nU0OrpLk1x-81" value="" style="shape=tableRow;horizontal=0;startSize=0;swimlaneHead=0;swimlaneBody=0;fillColor=none;collapsible=0;dropTarget=0;points=[[0,0.5],[1,0.5]];portConstraint=eastwest;top=0;left=0;right=0;bottom=0;strokeColor=#788AA3;fontFamily=Helvetica;fontSize=12;fontColor=#46495D;html=1;labelBackgroundColor=none;" parent="TtT6zjxbn2nU0OrpLk1x-77" vertex="1">
          <mxGeometry y="60" width="180" height="30" as="geometry" />
        </mxCell>
        <mxCell id="TtT6zjxbn2nU0OrpLk1x-82" value="" style="shape=partialRectangle;connectable=0;fillColor=none;top=0;left=0;bottom=0;right=0;editable=1;overflow=hidden;whiteSpace=wrap;html=1;strokeColor=#788AA3;fontFamily=Helvetica;fontSize=12;fontColor=#46495D;startSize=23;labelBackgroundColor=none;" parent="TtT6zjxbn2nU0OrpLk1x-81" vertex="1">
          <mxGeometry width="30" height="30" as="geometry">
            <mxRectangle width="30" height="30" as="alternateBounds" />
          </mxGeometry>
        </mxCell>
        <mxCell id="TtT6zjxbn2nU0OrpLk1x-83" value="email" style="shape=partialRectangle;connectable=0;fillColor=none;top=0;left=0;bottom=0;right=0;align=left;spacingLeft=6;overflow=hidden;whiteSpace=wrap;html=1;strokeColor=#788AA3;fontFamily=Helvetica;fontSize=12;fontColor=#46495D;startSize=23;labelBackgroundColor=none;" parent="TtT6zjxbn2nU0OrpLk1x-81" vertex="1">
          <mxGeometry x="30" width="150" height="30" as="geometry">
            <mxRectangle width="150" height="30" as="alternateBounds" />
          </mxGeometry>
        </mxCell>
        <mxCell id="TtT6zjxbn2nU0OrpLk1x-84" value="" style="shape=tableRow;horizontal=0;startSize=0;swimlaneHead=0;swimlaneBody=0;fillColor=none;collapsible=0;dropTarget=0;points=[[0,0.5],[1,0.5]];portConstraint=eastwest;top=0;left=0;right=0;bottom=0;strokeColor=#788AA3;fontFamily=Helvetica;fontSize=12;fontColor=#46495D;html=1;labelBackgroundColor=none;" parent="TtT6zjxbn2nU0OrpLk1x-77" vertex="1">
          <mxGeometry y="90" width="180" height="30" as="geometry" />
        </mxCell>
        <mxCell id="TtT6zjxbn2nU0OrpLk1x-85" value="" style="shape=partialRectangle;connectable=0;fillColor=none;top=0;left=0;bottom=0;right=0;editable=1;overflow=hidden;whiteSpace=wrap;html=1;strokeColor=#788AA3;fontFamily=Helvetica;fontSize=12;fontColor=#46495D;startSize=23;labelBackgroundColor=none;" parent="TtT6zjxbn2nU0OrpLk1x-84" vertex="1">
          <mxGeometry width="30" height="30" as="geometry">
            <mxRectangle width="30" height="30" as="alternateBounds" />
          </mxGeometry>
        </mxCell>
        <mxCell id="TtT6zjxbn2nU0OrpLk1x-86" value="password" style="shape=partialRectangle;connectable=0;fillColor=none;top=0;left=0;bottom=0;right=0;align=left;spacingLeft=6;overflow=hidden;whiteSpace=wrap;html=1;strokeColor=#788AA3;fontFamily=Helvetica;fontSize=12;fontColor=#46495D;startSize=23;labelBackgroundColor=none;" parent="TtT6zjxbn2nU0OrpLk1x-84" vertex="1">
          <mxGeometry x="30" width="150" height="30" as="geometry">
            <mxRectangle width="150" height="30" as="alternateBounds" />
          </mxGeometry>
        </mxCell>
        <mxCell id="TtT6zjxbn2nU0OrpLk1x-87" value="" style="shape=tableRow;horizontal=0;startSize=0;swimlaneHead=0;swimlaneBody=0;fillColor=none;collapsible=0;dropTarget=0;points=[[0,0.5],[1,0.5]];portConstraint=eastwest;top=0;left=0;right=0;bottom=0;strokeColor=#788AA3;fontFamily=Helvetica;fontSize=12;fontColor=#46495D;html=1;labelBackgroundColor=none;" parent="TtT6zjxbn2nU0OrpLk1x-77" vertex="1">
          <mxGeometry y="120" width="180" height="30" as="geometry" />
        </mxCell>
        <mxCell id="TtT6zjxbn2nU0OrpLk1x-88" value="" style="shape=partialRectangle;connectable=0;fillColor=none;top=0;left=0;bottom=0;right=0;editable=1;overflow=hidden;whiteSpace=wrap;html=1;strokeColor=#788AA3;fontFamily=Helvetica;fontSize=12;fontColor=#46495D;startSize=23;labelBackgroundColor=none;" parent="TtT6zjxbn2nU0OrpLk1x-87" vertex="1">
          <mxGeometry width="30" height="30" as="geometry">
            <mxRectangle width="30" height="30" as="alternateBounds" />
          </mxGeometry>
        </mxCell>
        <mxCell id="TtT6zjxbn2nU0OrpLk1x-89" value="created_at" style="shape=partialRectangle;connectable=0;fillColor=none;top=0;left=0;bottom=0;right=0;align=left;spacingLeft=6;overflow=hidden;whiteSpace=wrap;html=1;strokeColor=#788AA3;fontFamily=Helvetica;fontSize=12;fontColor=#46495D;startSize=23;labelBackgroundColor=none;" parent="TtT6zjxbn2nU0OrpLk1x-87" vertex="1">
          <mxGeometry x="30" width="150" height="30" as="geometry">
            <mxRectangle width="150" height="30" as="alternateBounds" />
          </mxGeometry>
        </mxCell>
        <mxCell id="TtT6zjxbn2nU0OrpLk1x-180" value="" style="shape=tableRow;horizontal=0;startSize=0;swimlaneHead=0;swimlaneBody=0;fillColor=none;collapsible=0;dropTarget=0;points=[[0,0.5],[1,0.5]];portConstraint=eastwest;top=0;left=0;right=0;bottom=0;strokeColor=#788AA3;fontFamily=Helvetica;fontSize=12;fontColor=#46495D;html=1;labelBackgroundColor=none;" parent="TtT6zjxbn2nU0OrpLk1x-77" vertex="1">
          <mxGeometry y="150" width="180" height="30" as="geometry" />
        </mxCell>
        <mxCell id="TtT6zjxbn2nU0OrpLk1x-181" value="" style="shape=partialRectangle;connectable=0;fillColor=none;top=0;left=0;bottom=0;right=0;editable=1;overflow=hidden;whiteSpace=wrap;html=1;strokeColor=#788AA3;fontFamily=Helvetica;fontSize=12;fontColor=#46495D;startSize=23;labelBackgroundColor=none;" parent="TtT6zjxbn2nU0OrpLk1x-180" vertex="1">
          <mxGeometry width="30" height="30" as="geometry">
            <mxRectangle width="30" height="30" as="alternateBounds" />
          </mxGeometry>
        </mxCell>
        <mxCell id="TtT6zjxbn2nU0OrpLk1x-182" value="updated_at" style="shape=partialRectangle;connectable=0;fillColor=none;top=0;left=0;bottom=0;right=0;align=left;spacingLeft=6;overflow=hidden;whiteSpace=wrap;html=1;strokeColor=#788AA3;fontFamily=Helvetica;fontSize=12;fontColor=#46495D;startSize=23;labelBackgroundColor=none;" parent="TtT6zjxbn2nU0OrpLk1x-180" vertex="1">
          <mxGeometry x="30" width="150" height="30" as="geometry">
            <mxRectangle width="150" height="30" as="alternateBounds" />
          </mxGeometry>
        </mxCell>
        <mxCell id="TtT6zjxbn2nU0OrpLk1x-122" value="&lt;font color=&quot;#000000&quot;&gt;Users（ユーザー）&lt;/font&gt;" style="shape=table;startSize=30;container=1;collapsible=1;childLayout=tableLayout;fixedRows=1;rowLines=0;fontStyle=1;align=center;resizeLast=1;html=1;fontFamily=Helvetica;fontSize=12;fillColor=#b0e3e6;labelBackgroundColor=none;strokeColor=#0e8088;" parent="WIyWlLk6GJQsqaUBKTNV-1" vertex="1">
          <mxGeometry x="1040" y="620" width="180" height="330" as="geometry" />
        </mxCell>
        <mxCell id="TtT6zjxbn2nU0OrpLk1x-123" value="" style="shape=tableRow;horizontal=0;startSize=0;swimlaneHead=0;swimlaneBody=0;fillColor=none;collapsible=0;dropTarget=0;points=[[0,0.5],[1,0.5]];portConstraint=eastwest;top=0;left=0;right=0;bottom=1;strokeColor=#788AA3;fontFamily=Helvetica;fontSize=12;fontColor=#46495D;html=1;labelBackgroundColor=none;" parent="TtT6zjxbn2nU0OrpLk1x-122" vertex="1">
          <mxGeometry y="30" width="180" height="30" as="geometry" />
        </mxCell>
        <mxCell id="TtT6zjxbn2nU0OrpLk1x-124" value="PK" style="shape=partialRectangle;connectable=0;fillColor=none;top=0;left=0;bottom=0;right=0;fontStyle=1;overflow=hidden;whiteSpace=wrap;html=1;strokeColor=#788AA3;fontFamily=Helvetica;fontSize=12;fontColor=#46495D;startSize=23;labelBackgroundColor=none;" parent="TtT6zjxbn2nU0OrpLk1x-123" vertex="1">
          <mxGeometry width="30" height="30" as="geometry">
            <mxRectangle width="30" height="30" as="alternateBounds" />
          </mxGeometry>
        </mxCell>
        <mxCell id="TtT6zjxbn2nU0OrpLk1x-125" value="user_id" style="shape=partialRectangle;connectable=0;fillColor=none;top=0;left=0;bottom=0;right=0;align=left;spacingLeft=6;fontStyle=5;overflow=hidden;whiteSpace=wrap;html=1;strokeColor=#788AA3;fontFamily=Helvetica;fontSize=12;fontColor=#46495D;startSize=23;labelBackgroundColor=none;" parent="TtT6zjxbn2nU0OrpLk1x-123" vertex="1">
          <mxGeometry x="30" width="150" height="30" as="geometry">
            <mxRectangle width="150" height="30" as="alternateBounds" />
          </mxGeometry>
        </mxCell>
        <mxCell id="ygLPfD_EKUeMDjVUtWBq-25" value="" style="shape=tableRow;horizontal=0;startSize=0;swimlaneHead=0;swimlaneBody=0;fillColor=none;collapsible=0;dropTarget=0;points=[[0,0.5],[1,0.5]];portConstraint=eastwest;top=0;left=0;right=0;bottom=0;strokeColor=#788AA3;fontFamily=Helvetica;fontSize=12;fontColor=#46495D;html=1;labelBackgroundColor=none;" parent="TtT6zjxbn2nU0OrpLk1x-122" vertex="1">
          <mxGeometry y="60" width="180" height="30" as="geometry" />
        </mxCell>
        <mxCell id="ygLPfD_EKUeMDjVUtWBq-26" value="" style="shape=partialRectangle;connectable=0;fillColor=none;top=0;left=0;bottom=0;right=0;editable=1;overflow=hidden;whiteSpace=wrap;html=1;strokeColor=#788AA3;fontFamily=Helvetica;fontSize=12;fontColor=#46495D;startSize=23;labelBackgroundColor=none;" parent="ygLPfD_EKUeMDjVUtWBq-25" vertex="1">
          <mxGeometry width="30" height="30" as="geometry">
            <mxRectangle width="30" height="30" as="alternateBounds" />
          </mxGeometry>
        </mxCell>
        <mxCell id="ygLPfD_EKUeMDjVUtWBq-27" value="nickname" style="shape=partialRectangle;connectable=0;fillColor=none;top=0;left=0;bottom=0;right=0;align=left;spacingLeft=6;overflow=hidden;whiteSpace=wrap;html=1;strokeColor=#788AA3;fontFamily=Helvetica;fontSize=12;fontColor=#46495D;startSize=23;labelBackgroundColor=none;" parent="ygLPfD_EKUeMDjVUtWBq-25" vertex="1">
          <mxGeometry x="30" width="150" height="30" as="geometry">
            <mxRectangle width="150" height="30" as="alternateBounds" />
          </mxGeometry>
        </mxCell>
        <mxCell id="4wPJRuQXLRKCmAuNgEeh-0" value="" style="shape=tableRow;horizontal=0;startSize=0;swimlaneHead=0;swimlaneBody=0;fillColor=none;collapsible=0;dropTarget=0;points=[[0,0.5],[1,0.5]];portConstraint=eastwest;top=0;left=0;right=0;bottom=0;strokeColor=#788AA3;fontFamily=Helvetica;fontSize=12;fontColor=#46495D;html=1;labelBackgroundColor=none;" parent="TtT6zjxbn2nU0OrpLk1x-122" vertex="1">
          <mxGeometry y="90" width="180" height="30" as="geometry" />
        </mxCell>
        <mxCell id="4wPJRuQXLRKCmAuNgEeh-1" value="" style="shape=partialRectangle;connectable=0;fillColor=none;top=0;left=0;bottom=0;right=0;editable=1;overflow=hidden;whiteSpace=wrap;html=1;strokeColor=#788AA3;fontFamily=Helvetica;fontSize=12;fontColor=#46495D;startSize=23;labelBackgroundColor=none;" parent="4wPJRuQXLRKCmAuNgEeh-0" vertex="1">
          <mxGeometry width="30" height="30" as="geometry">
            <mxRectangle width="30" height="30" as="alternateBounds" />
          </mxGeometry>
        </mxCell>
        <mxCell id="4wPJRuQXLRKCmAuNgEeh-2" value="account" style="shape=partialRectangle;connectable=0;fillColor=none;top=0;left=0;bottom=0;right=0;align=left;spacingLeft=6;overflow=hidden;whiteSpace=wrap;html=1;strokeColor=#788AA3;fontFamily=Helvetica;fontSize=12;fontColor=#46495D;startSize=23;labelBackgroundColor=none;" parent="4wPJRuQXLRKCmAuNgEeh-0" vertex="1">
          <mxGeometry x="30" width="150" height="30" as="geometry">
            <mxRectangle width="150" height="30" as="alternateBounds" />
          </mxGeometry>
        </mxCell>
        <mxCell id="TtT6zjxbn2nU0OrpLk1x-129" value="" style="shape=tableRow;horizontal=0;startSize=0;swimlaneHead=0;swimlaneBody=0;fillColor=none;collapsible=0;dropTarget=0;points=[[0,0.5],[1,0.5]];portConstraint=eastwest;top=0;left=0;right=0;bottom=0;strokeColor=#788AA3;fontFamily=Helvetica;fontSize=12;fontColor=#46495D;html=1;labelBackgroundColor=none;" parent="TtT6zjxbn2nU0OrpLk1x-122" vertex="1">
          <mxGeometry y="120" width="180" height="30" as="geometry" />
        </mxCell>
        <mxCell id="TtT6zjxbn2nU0OrpLk1x-130" value="" style="shape=partialRectangle;connectable=0;fillColor=none;top=0;left=0;bottom=0;right=0;editable=1;overflow=hidden;whiteSpace=wrap;html=1;strokeColor=#788AA3;fontFamily=Helvetica;fontSize=12;fontColor=#46495D;startSize=23;labelBackgroundColor=none;" parent="TtT6zjxbn2nU0OrpLk1x-129" vertex="1">
          <mxGeometry width="30" height="30" as="geometry">
            <mxRectangle width="30" height="30" as="alternateBounds" />
          </mxGeometry>
        </mxCell>
        <mxCell id="TtT6zjxbn2nU0OrpLk1x-131" value="email" style="shape=partialRectangle;connectable=0;fillColor=none;top=0;left=0;bottom=0;right=0;align=left;spacingLeft=6;overflow=hidden;whiteSpace=wrap;html=1;strokeColor=#788AA3;fontFamily=Helvetica;fontSize=12;fontColor=#46495D;startSize=23;labelBackgroundColor=none;" parent="TtT6zjxbn2nU0OrpLk1x-129" vertex="1">
          <mxGeometry x="30" width="150" height="30" as="geometry">
            <mxRectangle width="150" height="30" as="alternateBounds" />
          </mxGeometry>
        </mxCell>
        <mxCell id="TtT6zjxbn2nU0OrpLk1x-132" value="" style="shape=tableRow;horizontal=0;startSize=0;swimlaneHead=0;swimlaneBody=0;fillColor=none;collapsible=0;dropTarget=0;points=[[0,0.5],[1,0.5]];portConstraint=eastwest;top=0;left=0;right=0;bottom=0;strokeColor=#788AA3;fontFamily=Helvetica;fontSize=12;fontColor=#46495D;html=1;labelBackgroundColor=none;" parent="TtT6zjxbn2nU0OrpLk1x-122" vertex="1">
          <mxGeometry y="150" width="180" height="30" as="geometry" />
        </mxCell>
        <mxCell id="TtT6zjxbn2nU0OrpLk1x-133" value="" style="shape=partialRectangle;connectable=0;fillColor=none;top=0;left=0;bottom=0;right=0;editable=1;overflow=hidden;whiteSpace=wrap;html=1;strokeColor=#788AA3;fontFamily=Helvetica;fontSize=12;fontColor=#46495D;startSize=23;labelBackgroundColor=none;" parent="TtT6zjxbn2nU0OrpLk1x-132" vertex="1">
          <mxGeometry width="30" height="30" as="geometry">
            <mxRectangle width="30" height="30" as="alternateBounds" />
          </mxGeometry>
        </mxCell>
        <mxCell id="TtT6zjxbn2nU0OrpLk1x-134" value="password" style="shape=partialRectangle;connectable=0;fillColor=none;top=0;left=0;bottom=0;right=0;align=left;spacingLeft=6;overflow=hidden;whiteSpace=wrap;html=1;strokeColor=#788AA3;fontFamily=Helvetica;fontSize=12;fontColor=#46495D;startSize=23;labelBackgroundColor=none;" parent="TtT6zjxbn2nU0OrpLk1x-132" vertex="1">
          <mxGeometry x="30" width="150" height="30" as="geometry">
            <mxRectangle width="150" height="30" as="alternateBounds" />
          </mxGeometry>
        </mxCell>
        <mxCell id="TtT6zjxbn2nU0OrpLk1x-153" value="" style="shape=tableRow;horizontal=0;startSize=0;swimlaneHead=0;swimlaneBody=0;fillColor=none;collapsible=0;dropTarget=0;points=[[0,0.5],[1,0.5]];portConstraint=eastwest;top=0;left=0;right=0;bottom=0;strokeColor=#788AA3;fontFamily=Helvetica;fontSize=12;fontColor=#46495D;html=1;labelBackgroundColor=none;" parent="TtT6zjxbn2nU0OrpLk1x-122" vertex="1">
          <mxGeometry y="180" width="180" height="30" as="geometry" />
        </mxCell>
        <mxCell id="TtT6zjxbn2nU0OrpLk1x-154" value="" style="shape=partialRectangle;connectable=0;fillColor=none;top=0;left=0;bottom=0;right=0;editable=1;overflow=hidden;whiteSpace=wrap;html=1;strokeColor=#788AA3;fontFamily=Helvetica;fontSize=12;fontColor=#46495D;startSize=23;labelBackgroundColor=none;" parent="TtT6zjxbn2nU0OrpLk1x-153" vertex="1">
          <mxGeometry width="30" height="30" as="geometry">
            <mxRectangle width="30" height="30" as="alternateBounds" />
          </mxGeometry>
        </mxCell>
        <mxCell id="TtT6zjxbn2nU0OrpLk1x-155" value="introduction" style="shape=partialRectangle;connectable=0;fillColor=none;top=0;left=0;bottom=0;right=0;align=left;spacingLeft=6;overflow=hidden;whiteSpace=wrap;html=1;strokeColor=#788AA3;fontFamily=Helvetica;fontSize=12;fontColor=#46495D;startSize=23;labelBackgroundColor=none;" parent="TtT6zjxbn2nU0OrpLk1x-153" vertex="1">
          <mxGeometry x="30" width="150" height="30" as="geometry">
            <mxRectangle width="150" height="30" as="alternateBounds" />
          </mxGeometry>
        </mxCell>
        <mxCell id="13O2hGeKoW_1ljs5ZbIV-0" value="" style="shape=tableRow;horizontal=0;startSize=0;swimlaneHead=0;swimlaneBody=0;fillColor=none;collapsible=0;dropTarget=0;points=[[0,0.5],[1,0.5]];portConstraint=eastwest;top=0;left=0;right=0;bottom=0;strokeColor=#788AA3;fontFamily=Helvetica;fontSize=12;fontColor=#46495D;html=1;labelBackgroundColor=none;" parent="TtT6zjxbn2nU0OrpLk1x-122" vertex="1">
          <mxGeometry y="210" width="180" height="30" as="geometry" />
        </mxCell>
        <mxCell id="13O2hGeKoW_1ljs5ZbIV-1" value="" style="shape=partialRectangle;connectable=0;fillColor=none;top=0;left=0;bottom=0;right=0;editable=1;overflow=hidden;whiteSpace=wrap;html=1;strokeColor=#788AA3;fontFamily=Helvetica;fontSize=12;fontColor=#46495D;startSize=23;labelBackgroundColor=none;" parent="13O2hGeKoW_1ljs5ZbIV-0" vertex="1">
          <mxGeometry width="30" height="30" as="geometry">
            <mxRectangle width="30" height="30" as="alternateBounds" />
          </mxGeometry>
        </mxCell>
        <mxCell id="13O2hGeKoW_1ljs5ZbIV-2" value="channel（チャンネルリンク）" style="shape=partialRectangle;connectable=0;fillColor=none;top=0;left=0;bottom=0;right=0;align=left;spacingLeft=6;overflow=hidden;whiteSpace=wrap;html=1;strokeColor=#788AA3;fontFamily=Helvetica;fontSize=12;fontColor=#46495D;startSize=23;labelBackgroundColor=none;" parent="13O2hGeKoW_1ljs5ZbIV-0" vertex="1">
          <mxGeometry x="30" width="150" height="30" as="geometry">
            <mxRectangle width="150" height="30" as="alternateBounds" />
          </mxGeometry>
        </mxCell>
        <mxCell id="-8WY9Poa_YswlSu09_65-7" value="" style="shape=tableRow;horizontal=0;startSize=0;swimlaneHead=0;swimlaneBody=0;fillColor=none;collapsible=0;dropTarget=0;points=[[0,0.5],[1,0.5]];portConstraint=eastwest;top=0;left=0;right=0;bottom=0;strokeColor=#788AA3;fontFamily=Helvetica;fontSize=12;fontColor=#46495D;html=1;labelBackgroundColor=none;" parent="TtT6zjxbn2nU0OrpLk1x-122" vertex="1">
          <mxGeometry y="240" width="180" height="30" as="geometry" />
        </mxCell>
        <mxCell id="-8WY9Poa_YswlSu09_65-8" value="" style="shape=partialRectangle;connectable=0;fillColor=none;top=0;left=0;bottom=0;right=0;editable=1;overflow=hidden;whiteSpace=wrap;html=1;strokeColor=#788AA3;fontFamily=Helvetica;fontSize=12;fontColor=#46495D;startSize=23;labelBackgroundColor=none;" parent="-8WY9Poa_YswlSu09_65-7" vertex="1">
          <mxGeometry width="30" height="30" as="geometry">
            <mxRectangle width="30" height="30" as="alternateBounds" />
          </mxGeometry>
        </mxCell>
        <mxCell id="-8WY9Poa_YswlSu09_65-9" value="status（ユーザーステータス）" style="shape=partialRectangle;connectable=0;fillColor=none;top=0;left=0;bottom=0;right=0;align=left;spacingLeft=6;overflow=hidden;whiteSpace=wrap;html=1;strokeColor=#788AA3;fontFamily=Helvetica;fontSize=12;fontColor=#46495D;startSize=23;labelBackgroundColor=none;" parent="-8WY9Poa_YswlSu09_65-7" vertex="1">
          <mxGeometry x="30" width="150" height="30" as="geometry">
            <mxRectangle width="150" height="30" as="alternateBounds" />
          </mxGeometry>
        </mxCell>
        <mxCell id="TtT6zjxbn2nU0OrpLk1x-174" value="" style="shape=tableRow;horizontal=0;startSize=0;swimlaneHead=0;swimlaneBody=0;fillColor=none;collapsible=0;dropTarget=0;points=[[0,0.5],[1,0.5]];portConstraint=eastwest;top=0;left=0;right=0;bottom=0;strokeColor=#788AA3;fontFamily=Helvetica;fontSize=12;fontColor=#46495D;html=1;labelBackgroundColor=none;" parent="TtT6zjxbn2nU0OrpLk1x-122" vertex="1">
          <mxGeometry y="270" width="180" height="30" as="geometry" />
        </mxCell>
        <mxCell id="TtT6zjxbn2nU0OrpLk1x-175" value="" style="shape=partialRectangle;connectable=0;fillColor=none;top=0;left=0;bottom=0;right=0;editable=1;overflow=hidden;whiteSpace=wrap;html=1;strokeColor=#788AA3;fontFamily=Helvetica;fontSize=12;fontColor=#46495D;startSize=23;labelBackgroundColor=none;" parent="TtT6zjxbn2nU0OrpLk1x-174" vertex="1">
          <mxGeometry width="30" height="30" as="geometry">
            <mxRectangle width="30" height="30" as="alternateBounds" />
          </mxGeometry>
        </mxCell>
        <mxCell id="TtT6zjxbn2nU0OrpLk1x-176" value="created_at" style="shape=partialRectangle;connectable=0;fillColor=none;top=0;left=0;bottom=0;right=0;align=left;spacingLeft=6;overflow=hidden;whiteSpace=wrap;html=1;strokeColor=#788AA3;fontFamily=Helvetica;fontSize=12;fontColor=#46495D;startSize=23;labelBackgroundColor=none;" parent="TtT6zjxbn2nU0OrpLk1x-174" vertex="1">
          <mxGeometry x="30" width="150" height="30" as="geometry">
            <mxRectangle width="150" height="30" as="alternateBounds" />
          </mxGeometry>
        </mxCell>
        <mxCell id="TtT6zjxbn2nU0OrpLk1x-177" value="" style="shape=tableRow;horizontal=0;startSize=0;swimlaneHead=0;swimlaneBody=0;fillColor=none;collapsible=0;dropTarget=0;points=[[0,0.5],[1,0.5]];portConstraint=eastwest;top=0;left=0;right=0;bottom=0;strokeColor=#788AA3;fontFamily=Helvetica;fontSize=12;fontColor=#46495D;html=1;labelBackgroundColor=none;" parent="TtT6zjxbn2nU0OrpLk1x-122" vertex="1">
          <mxGeometry y="300" width="180" height="30" as="geometry" />
        </mxCell>
        <mxCell id="TtT6zjxbn2nU0OrpLk1x-178" value="" style="shape=partialRectangle;connectable=0;fillColor=none;top=0;left=0;bottom=0;right=0;editable=1;overflow=hidden;whiteSpace=wrap;html=1;strokeColor=#788AA3;fontFamily=Helvetica;fontSize=12;fontColor=#46495D;startSize=23;labelBackgroundColor=none;" parent="TtT6zjxbn2nU0OrpLk1x-177" vertex="1">
          <mxGeometry width="30" height="30" as="geometry">
            <mxRectangle width="30" height="30" as="alternateBounds" />
          </mxGeometry>
        </mxCell>
        <mxCell id="TtT6zjxbn2nU0OrpLk1x-179" value="updated_at" style="shape=partialRectangle;connectable=0;fillColor=none;top=0;left=0;bottom=0;right=0;align=left;spacingLeft=6;overflow=hidden;whiteSpace=wrap;html=1;strokeColor=#788AA3;fontFamily=Helvetica;fontSize=12;fontColor=#46495D;startSize=23;labelBackgroundColor=none;" parent="TtT6zjxbn2nU0OrpLk1x-177" vertex="1">
          <mxGeometry x="30" width="150" height="30" as="geometry">
            <mxRectangle width="150" height="30" as="alternateBounds" />
          </mxGeometry>
        </mxCell>
        <mxCell id="TtT6zjxbn2nU0OrpLk1x-147" value="" style="shape=tableRow;horizontal=0;startSize=0;swimlaneHead=0;swimlaneBody=0;fillColor=none;collapsible=0;dropTarget=0;points=[[0,0.5],[1,0.5]];portConstraint=eastwest;top=0;left=0;right=0;bottom=0;strokeColor=#788AA3;fontFamily=Helvetica;fontSize=12;fontColor=#46495D;html=1;labelBackgroundColor=none;" parent="WIyWlLk6GJQsqaUBKTNV-1" vertex="1">
          <mxGeometry x="-106" y="600" width="180" height="30" as="geometry" />
        </mxCell>
        <mxCell id="TtT6zjxbn2nU0OrpLk1x-148" value="" style="shape=partialRectangle;connectable=0;fillColor=none;top=0;left=0;bottom=0;right=0;editable=1;overflow=hidden;whiteSpace=wrap;html=1;strokeColor=#788AA3;fontFamily=Helvetica;fontSize=12;fontColor=#46495D;startSize=23;labelBackgroundColor=none;" parent="TtT6zjxbn2nU0OrpLk1x-147" vertex="1">
          <mxGeometry width="30" height="30" as="geometry">
            <mxRectangle width="30" height="30" as="alternateBounds" />
          </mxGeometry>
        </mxCell>
        <mxCell id="TtT6zjxbn2nU0OrpLk1x-150" value="" style="shape=tableRow;horizontal=0;startSize=0;swimlaneHead=0;swimlaneBody=0;fillColor=none;collapsible=0;dropTarget=0;points=[[0,0.5],[1,0.5]];portConstraint=eastwest;top=0;left=0;right=0;bottom=0;strokeColor=#788AA3;fontFamily=Helvetica;fontSize=12;fontColor=#46495D;html=1;labelBackgroundColor=none;" parent="WIyWlLk6GJQsqaUBKTNV-1" vertex="1">
          <mxGeometry x="-106" y="600" width="180" height="30" as="geometry" />
        </mxCell>
        <mxCell id="TtT6zjxbn2nU0OrpLk1x-151" value="" style="shape=partialRectangle;connectable=0;fillColor=none;top=0;left=0;bottom=0;right=0;editable=1;overflow=hidden;whiteSpace=wrap;html=1;strokeColor=#788AA3;fontFamily=Helvetica;fontSize=12;fontColor=#46495D;startSize=23;labelBackgroundColor=none;" parent="TtT6zjxbn2nU0OrpLk1x-150" vertex="1">
          <mxGeometry width="30" height="30" as="geometry">
            <mxRectangle width="30" height="30" as="alternateBounds" />
          </mxGeometry>
        </mxCell>
        <mxCell id="TtT6zjxbn2nU0OrpLk1x-473" value="&lt;font color=&quot;#000000&quot;&gt;Posts（投稿）&lt;/font&gt;" style="shape=table;startSize=30;container=1;collapsible=1;childLayout=tableLayout;fixedRows=1;rowLines=0;fontStyle=1;align=center;resizeLast=1;html=1;strokeColor=#b85450;fontFamily=Helvetica;fontSize=12;fillColor=#f8cecc;labelBackgroundColor=none;" parent="WIyWlLk6GJQsqaUBKTNV-1" vertex="1">
          <mxGeometry x="710" y="630" width="180" height="270" as="geometry" />
        </mxCell>
        <mxCell id="TtT6zjxbn2nU0OrpLk1x-474" value="" style="shape=tableRow;horizontal=0;startSize=0;swimlaneHead=0;swimlaneBody=0;fillColor=none;collapsible=0;dropTarget=0;points=[[0,0.5],[1,0.5]];portConstraint=eastwest;top=0;left=0;right=0;bottom=1;strokeColor=#788AA3;fontFamily=Helvetica;fontSize=12;fontColor=#46495D;html=1;labelBackgroundColor=none;" parent="TtT6zjxbn2nU0OrpLk1x-473" vertex="1">
          <mxGeometry y="30" width="180" height="30" as="geometry" />
        </mxCell>
        <mxCell id="TtT6zjxbn2nU0OrpLk1x-475" value="PK" style="shape=partialRectangle;connectable=0;fillColor=none;top=0;left=0;bottom=0;right=0;fontStyle=1;overflow=hidden;whiteSpace=wrap;html=1;strokeColor=#788AA3;fontFamily=Helvetica;fontSize=12;fontColor=#46495D;startSize=23;labelBackgroundColor=none;" parent="TtT6zjxbn2nU0OrpLk1x-474" vertex="1">
          <mxGeometry width="30" height="30" as="geometry">
            <mxRectangle width="30" height="30" as="alternateBounds" />
          </mxGeometry>
        </mxCell>
        <mxCell id="TtT6zjxbn2nU0OrpLk1x-476" value="post_id" style="shape=partialRectangle;connectable=0;fillColor=none;top=0;left=0;bottom=0;right=0;align=left;spacingLeft=6;fontStyle=5;overflow=hidden;whiteSpace=wrap;html=1;strokeColor=#788AA3;fontFamily=Helvetica;fontSize=12;fontColor=#46495D;startSize=23;labelBackgroundColor=none;" parent="TtT6zjxbn2nU0OrpLk1x-474" vertex="1">
          <mxGeometry x="30" width="150" height="30" as="geometry">
            <mxRectangle width="150" height="30" as="alternateBounds" />
          </mxGeometry>
        </mxCell>
        <mxCell id="TtT6zjxbn2nU0OrpLk1x-480" value="" style="shape=tableRow;horizontal=0;startSize=0;swimlaneHead=0;swimlaneBody=0;fillColor=none;collapsible=0;dropTarget=0;points=[[0,0.5],[1,0.5]];portConstraint=eastwest;top=0;left=0;right=0;bottom=1;strokeColor=#788AA3;fontFamily=Helvetica;fontSize=12;fontColor=#46495D;html=1;labelBackgroundColor=none;" parent="TtT6zjxbn2nU0OrpLk1x-473" vertex="1">
          <mxGeometry y="60" width="180" height="30" as="geometry" />
        </mxCell>
        <mxCell id="TtT6zjxbn2nU0OrpLk1x-481" value="FK" style="shape=partialRectangle;connectable=0;fillColor=none;top=0;left=0;bottom=0;right=0;fontStyle=1;overflow=hidden;whiteSpace=wrap;html=1;strokeColor=#788AA3;fontFamily=Helvetica;fontSize=12;fontColor=#46495D;startSize=23;labelBackgroundColor=none;" parent="TtT6zjxbn2nU0OrpLk1x-480" vertex="1">
          <mxGeometry width="30" height="30" as="geometry">
            <mxRectangle width="30" height="30" as="alternateBounds" />
          </mxGeometry>
        </mxCell>
        <mxCell id="TtT6zjxbn2nU0OrpLk1x-482" value="user_id" style="shape=partialRectangle;connectable=0;fillColor=none;top=0;left=0;bottom=0;right=0;align=left;spacingLeft=6;fontStyle=5;overflow=hidden;whiteSpace=wrap;html=1;strokeColor=#788AA3;fontFamily=Helvetica;fontSize=12;fontColor=#46495D;startSize=23;labelBackgroundColor=none;" parent="TtT6zjxbn2nU0OrpLk1x-480" vertex="1">
          <mxGeometry x="30" width="150" height="30" as="geometry">
            <mxRectangle width="150" height="30" as="alternateBounds" />
          </mxGeometry>
        </mxCell>
        <mxCell id="TtT6zjxbn2nU0OrpLk1x-483" value="" style="shape=tableRow;horizontal=0;startSize=0;swimlaneHead=0;swimlaneBody=0;fillColor=none;collapsible=0;dropTarget=0;points=[[0,0.5],[1,0.5]];portConstraint=eastwest;top=0;left=0;right=0;bottom=0;strokeColor=#788AA3;fontFamily=Helvetica;fontSize=12;fontColor=#46495D;html=1;labelBackgroundColor=none;" parent="TtT6zjxbn2nU0OrpLk1x-473" vertex="1">
          <mxGeometry y="90" width="180" height="30" as="geometry" />
        </mxCell>
        <mxCell id="TtT6zjxbn2nU0OrpLk1x-484" value="" style="shape=partialRectangle;connectable=0;fillColor=none;top=0;left=0;bottom=0;right=0;editable=1;overflow=hidden;whiteSpace=wrap;html=1;strokeColor=#788AA3;fontFamily=Helvetica;fontSize=12;fontColor=#46495D;startSize=23;labelBackgroundColor=none;" parent="TtT6zjxbn2nU0OrpLk1x-483" vertex="1">
          <mxGeometry width="30" height="30" as="geometry">
            <mxRectangle width="30" height="30" as="alternateBounds" />
          </mxGeometry>
        </mxCell>
        <mxCell id="TtT6zjxbn2nU0OrpLk1x-485" value="title" style="shape=partialRectangle;connectable=0;fillColor=none;top=0;left=0;bottom=0;right=0;align=left;spacingLeft=6;overflow=hidden;whiteSpace=wrap;html=1;strokeColor=#788AA3;fontFamily=Helvetica;fontSize=12;fontColor=#46495D;startSize=23;labelBackgroundColor=none;" parent="TtT6zjxbn2nU0OrpLk1x-483" vertex="1">
          <mxGeometry x="30" width="150" height="30" as="geometry">
            <mxRectangle width="150" height="30" as="alternateBounds" />
          </mxGeometry>
        </mxCell>
        <mxCell id="neSw8htIFKkES1VIBfhm-0" value="" style="shape=tableRow;horizontal=0;startSize=0;swimlaneHead=0;swimlaneBody=0;fillColor=none;collapsible=0;dropTarget=0;points=[[0,0.5],[1,0.5]];portConstraint=eastwest;top=0;left=0;right=0;bottom=0;strokeColor=#788AA3;fontFamily=Helvetica;fontSize=12;fontColor=#46495D;html=1;labelBackgroundColor=none;" parent="TtT6zjxbn2nU0OrpLk1x-473" vertex="1">
          <mxGeometry y="120" width="180" height="30" as="geometry" />
        </mxCell>
        <mxCell id="neSw8htIFKkES1VIBfhm-1" value="" style="shape=partialRectangle;connectable=0;fillColor=none;top=0;left=0;bottom=0;right=0;editable=1;overflow=hidden;whiteSpace=wrap;html=1;strokeColor=#788AA3;fontFamily=Helvetica;fontSize=12;fontColor=#46495D;startSize=23;labelBackgroundColor=none;" parent="neSw8htIFKkES1VIBfhm-0" vertex="1">
          <mxGeometry width="30" height="30" as="geometry">
            <mxRectangle width="30" height="30" as="alternateBounds" />
          </mxGeometry>
        </mxCell>
        <mxCell id="neSw8htIFKkES1VIBfhm-2" value="link（動画リンク）" style="shape=partialRectangle;connectable=0;fillColor=none;top=0;left=0;bottom=0;right=0;align=left;spacingLeft=6;overflow=hidden;whiteSpace=wrap;html=1;strokeColor=#788AA3;fontFamily=Helvetica;fontSize=12;fontColor=#46495D;startSize=23;labelBackgroundColor=none;" parent="neSw8htIFKkES1VIBfhm-0" vertex="1">
          <mxGeometry x="30" width="150" height="30" as="geometry">
            <mxRectangle width="150" height="30" as="alternateBounds" />
          </mxGeometry>
        </mxCell>
        <mxCell id="neSw8htIFKkES1VIBfhm-3" value="" style="shape=tableRow;horizontal=0;startSize=0;swimlaneHead=0;swimlaneBody=0;fillColor=none;collapsible=0;dropTarget=0;points=[[0,0.5],[1,0.5]];portConstraint=eastwest;top=0;left=0;right=0;bottom=0;strokeColor=#788AA3;fontFamily=Helvetica;fontSize=12;fontColor=#46495D;html=1;labelBackgroundColor=none;" parent="TtT6zjxbn2nU0OrpLk1x-473" vertex="1">
          <mxGeometry y="150" width="180" height="30" as="geometry" />
        </mxCell>
        <mxCell id="neSw8htIFKkES1VIBfhm-4" value="" style="shape=partialRectangle;connectable=0;fillColor=none;top=0;left=0;bottom=0;right=0;editable=1;overflow=hidden;whiteSpace=wrap;html=1;strokeColor=#788AA3;fontFamily=Helvetica;fontSize=12;fontColor=#46495D;startSize=23;labelBackgroundColor=none;" parent="neSw8htIFKkES1VIBfhm-3" vertex="1">
          <mxGeometry width="30" height="30" as="geometry">
            <mxRectangle width="30" height="30" as="alternateBounds" />
          </mxGeometry>
        </mxCell>
        <mxCell id="neSw8htIFKkES1VIBfhm-5" value="status（投稿ステータス）" style="shape=partialRectangle;connectable=0;fillColor=none;top=0;left=0;bottom=0;right=0;align=left;spacingLeft=6;overflow=hidden;whiteSpace=wrap;html=1;strokeColor=#788AA3;fontFamily=Helvetica;fontSize=12;fontColor=#46495D;startSize=23;labelBackgroundColor=none;" parent="neSw8htIFKkES1VIBfhm-3" vertex="1">
          <mxGeometry x="30" width="150" height="30" as="geometry">
            <mxRectangle width="150" height="30" as="alternateBounds" />
          </mxGeometry>
        </mxCell>
        <mxCell id="GH-rgcXHdw-grydiUsWg-176" value="" style="shape=tableRow;horizontal=0;startSize=0;swimlaneHead=0;swimlaneBody=0;fillColor=none;collapsible=0;dropTarget=0;points=[[0,0.5],[1,0.5]];portConstraint=eastwest;top=0;left=0;right=0;bottom=0;strokeColor=#788AA3;fontFamily=Helvetica;fontSize=12;fontColor=#46495D;html=1;labelBackgroundColor=none;" vertex="1" parent="TtT6zjxbn2nU0OrpLk1x-473">
          <mxGeometry y="180" width="180" height="30" as="geometry" />
        </mxCell>
        <mxCell id="GH-rgcXHdw-grydiUsWg-177" value="" style="shape=partialRectangle;connectable=0;fillColor=none;top=0;left=0;bottom=0;right=0;editable=1;overflow=hidden;whiteSpace=wrap;html=1;strokeColor=#788AA3;fontFamily=Helvetica;fontSize=12;fontColor=#46495D;startSize=23;labelBackgroundColor=none;" vertex="1" parent="GH-rgcXHdw-grydiUsWg-176">
          <mxGeometry width="30" height="30" as="geometry">
            <mxRectangle width="30" height="30" as="alternateBounds" />
          </mxGeometry>
        </mxCell>
        <mxCell id="GH-rgcXHdw-grydiUsWg-178" value="impressions_count（PV数）" style="shape=partialRectangle;connectable=0;fillColor=none;top=0;left=0;bottom=0;right=0;align=left;spacingLeft=6;overflow=hidden;whiteSpace=wrap;html=1;strokeColor=#788AA3;fontFamily=Helvetica;fontSize=12;fontColor=#46495D;startSize=23;labelBackgroundColor=none;" vertex="1" parent="GH-rgcXHdw-grydiUsWg-176">
          <mxGeometry x="30" width="150" height="30" as="geometry">
            <mxRectangle width="150" height="30" as="alternateBounds" />
          </mxGeometry>
        </mxCell>
        <mxCell id="TtT6zjxbn2nU0OrpLk1x-495" value="" style="shape=tableRow;horizontal=0;startSize=0;swimlaneHead=0;swimlaneBody=0;fillColor=none;collapsible=0;dropTarget=0;points=[[0,0.5],[1,0.5]];portConstraint=eastwest;top=0;left=0;right=0;bottom=0;strokeColor=#788AA3;fontFamily=Helvetica;fontSize=12;fontColor=#46495D;html=1;labelBackgroundColor=none;" parent="TtT6zjxbn2nU0OrpLk1x-473" vertex="1">
          <mxGeometry y="210" width="180" height="30" as="geometry" />
        </mxCell>
        <mxCell id="TtT6zjxbn2nU0OrpLk1x-496" value="" style="shape=partialRectangle;connectable=0;fillColor=none;top=0;left=0;bottom=0;right=0;editable=1;overflow=hidden;whiteSpace=wrap;html=1;strokeColor=#788AA3;fontFamily=Helvetica;fontSize=12;fontColor=#46495D;startSize=23;labelBackgroundColor=none;" parent="TtT6zjxbn2nU0OrpLk1x-495" vertex="1">
          <mxGeometry width="30" height="30" as="geometry">
            <mxRectangle width="30" height="30" as="alternateBounds" />
          </mxGeometry>
        </mxCell>
        <mxCell id="TtT6zjxbn2nU0OrpLk1x-497" value="created_at" style="shape=partialRectangle;connectable=0;fillColor=none;top=0;left=0;bottom=0;right=0;align=left;spacingLeft=6;overflow=hidden;whiteSpace=wrap;html=1;strokeColor=#788AA3;fontFamily=Helvetica;fontSize=12;fontColor=#46495D;startSize=23;labelBackgroundColor=none;" parent="TtT6zjxbn2nU0OrpLk1x-495" vertex="1">
          <mxGeometry x="30" width="150" height="30" as="geometry">
            <mxRectangle width="150" height="30" as="alternateBounds" />
          </mxGeometry>
        </mxCell>
        <mxCell id="TtT6zjxbn2nU0OrpLk1x-498" value="" style="shape=tableRow;horizontal=0;startSize=0;swimlaneHead=0;swimlaneBody=0;fillColor=none;collapsible=0;dropTarget=0;points=[[0,0.5],[1,0.5]];portConstraint=eastwest;top=0;left=0;right=0;bottom=0;strokeColor=#788AA3;fontFamily=Helvetica;fontSize=12;fontColor=#46495D;html=1;labelBackgroundColor=none;" parent="TtT6zjxbn2nU0OrpLk1x-473" vertex="1">
          <mxGeometry y="240" width="180" height="30" as="geometry" />
        </mxCell>
        <mxCell id="TtT6zjxbn2nU0OrpLk1x-499" value="" style="shape=partialRectangle;connectable=0;fillColor=none;top=0;left=0;bottom=0;right=0;editable=1;overflow=hidden;whiteSpace=wrap;html=1;strokeColor=#788AA3;fontFamily=Helvetica;fontSize=12;fontColor=#46495D;startSize=23;labelBackgroundColor=none;" parent="TtT6zjxbn2nU0OrpLk1x-498" vertex="1">
          <mxGeometry width="30" height="30" as="geometry">
            <mxRectangle width="30" height="30" as="alternateBounds" />
          </mxGeometry>
        </mxCell>
        <mxCell id="TtT6zjxbn2nU0OrpLk1x-500" value="updated_at" style="shape=partialRectangle;connectable=0;fillColor=none;top=0;left=0;bottom=0;right=0;align=left;spacingLeft=6;overflow=hidden;whiteSpace=wrap;html=1;strokeColor=#788AA3;fontFamily=Helvetica;fontSize=12;fontColor=#46495D;startSize=23;labelBackgroundColor=none;" parent="TtT6zjxbn2nU0OrpLk1x-498" vertex="1">
          <mxGeometry x="30" width="150" height="30" as="geometry">
            <mxRectangle width="150" height="30" as="alternateBounds" />
          </mxGeometry>
        </mxCell>
        <mxCell id="TtT6zjxbn2nU0OrpLk1x-521" value="" style="edgeStyle=elbowEdgeStyle;fontSize=12;html=1;endArrow=ERzeroToMany;endFill=1;fontFamily=Helvetica;fontColor=default;startSize=8;entryX=1;entryY=0.5;entryDx=0;entryDy=0;rounded=1;startArrow=ERone;startFill=0;endSize=9;labelBackgroundColor=none;strokeColor=#788AA3;exitX=0;exitY=0.5;exitDx=0;exitDy=0;" parent="WIyWlLk6GJQsqaUBKTNV-1" source="4wPJRuQXLRKCmAuNgEeh-0" target="TtT6zjxbn2nU0OrpLk1x-474" edge="1">
          <mxGeometry width="100" height="100" relative="1" as="geometry">
            <mxPoint x="1040.0000000000005" y="695" as="sourcePoint" />
            <mxPoint x="424" y="220" as="targetPoint" />
          </mxGeometry>
        </mxCell>
        <mxCell id="AqgVQKVdH_DSCZpF_KZi-141" value="Post_favorites&lt;br&gt;（投稿いいね）" style="shape=table;startSize=30;container=1;collapsible=1;childLayout=tableLayout;fixedRows=1;rowLines=0;fontStyle=1;align=center;resizeLast=1;html=1;strokeColor=#b85450;fontFamily=Helvetica;fontSize=12;fillColor=#f8cecc;labelBackgroundColor=none;" parent="WIyWlLk6GJQsqaUBKTNV-1" vertex="1">
          <mxGeometry x="300" y="-230" width="180" height="180" as="geometry" />
        </mxCell>
        <mxCell id="AqgVQKVdH_DSCZpF_KZi-142" value="" style="shape=tableRow;horizontal=0;startSize=0;swimlaneHead=0;swimlaneBody=0;fillColor=none;collapsible=0;dropTarget=0;points=[[0,0.5],[1,0.5]];portConstraint=eastwest;top=0;left=0;right=0;bottom=1;strokeColor=#788AA3;fontFamily=Helvetica;fontSize=12;fontColor=#46495D;html=1;labelBackgroundColor=none;" parent="AqgVQKVdH_DSCZpF_KZi-141" vertex="1">
          <mxGeometry y="30" width="180" height="30" as="geometry" />
        </mxCell>
        <mxCell id="AqgVQKVdH_DSCZpF_KZi-143" value="PK" style="shape=partialRectangle;connectable=0;fillColor=none;top=0;left=0;bottom=0;right=0;fontStyle=1;overflow=hidden;whiteSpace=wrap;html=1;strokeColor=#788AA3;fontFamily=Helvetica;fontSize=12;fontColor=#46495D;startSize=23;labelBackgroundColor=none;" parent="AqgVQKVdH_DSCZpF_KZi-142" vertex="1">
          <mxGeometry width="30" height="30" as="geometry">
            <mxRectangle width="30" height="30" as="alternateBounds" />
          </mxGeometry>
        </mxCell>
        <mxCell id="AqgVQKVdH_DSCZpF_KZi-144" value="post_favorite_id" style="shape=partialRectangle;connectable=0;fillColor=none;top=0;left=0;bottom=0;right=0;align=left;spacingLeft=6;fontStyle=5;overflow=hidden;whiteSpace=wrap;html=1;strokeColor=#788AA3;fontFamily=Helvetica;fontSize=12;fontColor=#46495D;startSize=23;labelBackgroundColor=none;" parent="AqgVQKVdH_DSCZpF_KZi-142" vertex="1">
          <mxGeometry x="30" width="150" height="30" as="geometry">
            <mxRectangle width="150" height="30" as="alternateBounds" />
          </mxGeometry>
        </mxCell>
        <mxCell id="AqgVQKVdH_DSCZpF_KZi-145" value="" style="shape=tableRow;horizontal=0;startSize=0;swimlaneHead=0;swimlaneBody=0;fillColor=none;collapsible=0;dropTarget=0;points=[[0,0.5],[1,0.5]];portConstraint=eastwest;top=0;left=0;right=0;bottom=0;strokeColor=#788AA3;fontFamily=Helvetica;fontSize=12;fontColor=#46495D;html=1;labelBackgroundColor=none;" parent="AqgVQKVdH_DSCZpF_KZi-141" vertex="1">
          <mxGeometry y="60" width="180" height="30" as="geometry" />
        </mxCell>
        <mxCell id="AqgVQKVdH_DSCZpF_KZi-146" value="&lt;b&gt;FK&lt;/b&gt;" style="shape=partialRectangle;connectable=0;fillColor=none;top=0;left=0;bottom=0;right=0;editable=1;overflow=hidden;whiteSpace=wrap;html=1;strokeColor=#788AA3;fontFamily=Helvetica;fontSize=12;fontColor=#46495D;startSize=23;labelBackgroundColor=none;" parent="AqgVQKVdH_DSCZpF_KZi-145" vertex="1">
          <mxGeometry width="30" height="30" as="geometry">
            <mxRectangle width="30" height="30" as="alternateBounds" />
          </mxGeometry>
        </mxCell>
        <mxCell id="AqgVQKVdH_DSCZpF_KZi-147" value="&lt;u&gt;&lt;b&gt;user_id&lt;/b&gt;&lt;/u&gt;" style="shape=partialRectangle;connectable=0;fillColor=none;top=0;left=0;bottom=0;right=0;align=left;spacingLeft=6;overflow=hidden;whiteSpace=wrap;html=1;strokeColor=#788AA3;fontFamily=Helvetica;fontSize=12;fontColor=#46495D;startSize=23;labelBackgroundColor=none;" parent="AqgVQKVdH_DSCZpF_KZi-145" vertex="1">
          <mxGeometry x="30" width="150" height="30" as="geometry">
            <mxRectangle width="150" height="30" as="alternateBounds" />
          </mxGeometry>
        </mxCell>
        <mxCell id="AqgVQKVdH_DSCZpF_KZi-148" value="" style="shape=tableRow;horizontal=0;startSize=0;swimlaneHead=0;swimlaneBody=0;fillColor=none;collapsible=0;dropTarget=0;points=[[0,0.5],[1,0.5]];portConstraint=eastwest;top=0;left=0;right=0;bottom=1;strokeColor=#788AA3;fontFamily=Helvetica;fontSize=12;fontColor=#46495D;html=1;labelBackgroundColor=none;" parent="AqgVQKVdH_DSCZpF_KZi-141" vertex="1">
          <mxGeometry y="90" width="180" height="30" as="geometry" />
        </mxCell>
        <mxCell id="AqgVQKVdH_DSCZpF_KZi-149" value="FK" style="shape=partialRectangle;connectable=0;fillColor=none;top=0;left=0;bottom=0;right=0;fontStyle=1;overflow=hidden;whiteSpace=wrap;html=1;strokeColor=#788AA3;fontFamily=Helvetica;fontSize=12;fontColor=#46495D;startSize=23;labelBackgroundColor=none;" parent="AqgVQKVdH_DSCZpF_KZi-148" vertex="1">
          <mxGeometry width="30" height="30" as="geometry">
            <mxRectangle width="30" height="30" as="alternateBounds" />
          </mxGeometry>
        </mxCell>
        <mxCell id="AqgVQKVdH_DSCZpF_KZi-150" value="post_id" style="shape=partialRectangle;connectable=0;fillColor=none;top=0;left=0;bottom=0;right=0;align=left;spacingLeft=6;fontStyle=5;overflow=hidden;whiteSpace=wrap;html=1;strokeColor=#788AA3;fontFamily=Helvetica;fontSize=12;fontColor=#46495D;startSize=23;labelBackgroundColor=none;" parent="AqgVQKVdH_DSCZpF_KZi-148" vertex="1">
          <mxGeometry x="30" width="150" height="30" as="geometry">
            <mxRectangle width="150" height="30" as="alternateBounds" />
          </mxGeometry>
        </mxCell>
        <mxCell id="AqgVQKVdH_DSCZpF_KZi-151" value="" style="shape=tableRow;horizontal=0;startSize=0;swimlaneHead=0;swimlaneBody=0;fillColor=none;collapsible=0;dropTarget=0;points=[[0,0.5],[1,0.5]];portConstraint=eastwest;top=0;left=0;right=0;bottom=0;strokeColor=#788AA3;fontFamily=Helvetica;fontSize=12;fontColor=#46495D;html=1;labelBackgroundColor=none;" parent="AqgVQKVdH_DSCZpF_KZi-141" vertex="1">
          <mxGeometry y="120" width="180" height="30" as="geometry" />
        </mxCell>
        <mxCell id="AqgVQKVdH_DSCZpF_KZi-152" value="" style="shape=partialRectangle;connectable=0;fillColor=none;top=0;left=0;bottom=0;right=0;editable=1;overflow=hidden;whiteSpace=wrap;html=1;strokeColor=#788AA3;fontFamily=Helvetica;fontSize=12;fontColor=#46495D;startSize=23;labelBackgroundColor=none;" parent="AqgVQKVdH_DSCZpF_KZi-151" vertex="1">
          <mxGeometry width="30" height="30" as="geometry">
            <mxRectangle width="30" height="30" as="alternateBounds" />
          </mxGeometry>
        </mxCell>
        <mxCell id="AqgVQKVdH_DSCZpF_KZi-153" value="created_at" style="shape=partialRectangle;connectable=0;fillColor=none;top=0;left=0;bottom=0;right=0;align=left;spacingLeft=6;overflow=hidden;whiteSpace=wrap;html=1;strokeColor=#788AA3;fontFamily=Helvetica;fontSize=12;fontColor=#46495D;startSize=23;labelBackgroundColor=none;" parent="AqgVQKVdH_DSCZpF_KZi-151" vertex="1">
          <mxGeometry x="30" width="150" height="30" as="geometry">
            <mxRectangle width="150" height="30" as="alternateBounds" />
          </mxGeometry>
        </mxCell>
        <mxCell id="AqgVQKVdH_DSCZpF_KZi-154" value="" style="shape=tableRow;horizontal=0;startSize=0;swimlaneHead=0;swimlaneBody=0;fillColor=none;collapsible=0;dropTarget=0;points=[[0,0.5],[1,0.5]];portConstraint=eastwest;top=0;left=0;right=0;bottom=0;strokeColor=#788AA3;fontFamily=Helvetica;fontSize=12;fontColor=#46495D;html=1;labelBackgroundColor=none;" parent="AqgVQKVdH_DSCZpF_KZi-141" vertex="1">
          <mxGeometry y="150" width="180" height="30" as="geometry" />
        </mxCell>
        <mxCell id="AqgVQKVdH_DSCZpF_KZi-155" value="" style="shape=partialRectangle;connectable=0;fillColor=none;top=0;left=0;bottom=0;right=0;editable=1;overflow=hidden;whiteSpace=wrap;html=1;strokeColor=#788AA3;fontFamily=Helvetica;fontSize=12;fontColor=#46495D;startSize=23;labelBackgroundColor=none;" parent="AqgVQKVdH_DSCZpF_KZi-154" vertex="1">
          <mxGeometry width="30" height="30" as="geometry">
            <mxRectangle width="30" height="30" as="alternateBounds" />
          </mxGeometry>
        </mxCell>
        <mxCell id="AqgVQKVdH_DSCZpF_KZi-156" value="updated_at" style="shape=partialRectangle;connectable=0;fillColor=none;top=0;left=0;bottom=0;right=0;align=left;spacingLeft=6;overflow=hidden;whiteSpace=wrap;html=1;strokeColor=#788AA3;fontFamily=Helvetica;fontSize=12;fontColor=#46495D;startSize=23;labelBackgroundColor=none;" parent="AqgVQKVdH_DSCZpF_KZi-154" vertex="1">
          <mxGeometry x="30" width="150" height="30" as="geometry">
            <mxRectangle width="150" height="30" as="alternateBounds" />
          </mxGeometry>
        </mxCell>
        <mxCell id="AqgVQKVdH_DSCZpF_KZi-161" value="Comments（コメント）" style="shape=table;startSize=30;container=1;collapsible=1;childLayout=tableLayout;fixedRows=1;rowLines=0;fontStyle=1;align=center;resizeLast=1;html=1;strokeColor=#b85450;fontFamily=Helvetica;fontSize=12;fillColor=#f8cecc;labelBackgroundColor=none;" parent="WIyWlLk6GJQsqaUBKTNV-1" vertex="1">
          <mxGeometry x="370" y="1060" width="180" height="210" as="geometry" />
        </mxCell>
        <mxCell id="AqgVQKVdH_DSCZpF_KZi-162" value="" style="shape=tableRow;horizontal=0;startSize=0;swimlaneHead=0;swimlaneBody=0;fillColor=none;collapsible=0;dropTarget=0;points=[[0,0.5],[1,0.5]];portConstraint=eastwest;top=0;left=0;right=0;bottom=1;strokeColor=#788AA3;fontFamily=Helvetica;fontSize=12;fontColor=#46495D;html=1;labelBackgroundColor=none;" parent="AqgVQKVdH_DSCZpF_KZi-161" vertex="1">
          <mxGeometry y="30" width="180" height="30" as="geometry" />
        </mxCell>
        <mxCell id="AqgVQKVdH_DSCZpF_KZi-163" value="PK" style="shape=partialRectangle;connectable=0;fillColor=none;top=0;left=0;bottom=0;right=0;fontStyle=1;overflow=hidden;whiteSpace=wrap;html=1;strokeColor=#788AA3;fontFamily=Helvetica;fontSize=12;fontColor=#46495D;startSize=23;labelBackgroundColor=none;" parent="AqgVQKVdH_DSCZpF_KZi-162" vertex="1">
          <mxGeometry width="30" height="30" as="geometry">
            <mxRectangle width="30" height="30" as="alternateBounds" />
          </mxGeometry>
        </mxCell>
        <mxCell id="AqgVQKVdH_DSCZpF_KZi-164" value="comment_id" style="shape=partialRectangle;connectable=0;fillColor=none;top=0;left=0;bottom=0;right=0;align=left;spacingLeft=6;fontStyle=5;overflow=hidden;whiteSpace=wrap;html=1;strokeColor=#788AA3;fontFamily=Helvetica;fontSize=12;fontColor=#46495D;startSize=23;labelBackgroundColor=none;" parent="AqgVQKVdH_DSCZpF_KZi-162" vertex="1">
          <mxGeometry x="30" width="150" height="30" as="geometry">
            <mxRectangle width="150" height="30" as="alternateBounds" />
          </mxGeometry>
        </mxCell>
        <mxCell id="AqgVQKVdH_DSCZpF_KZi-165" value="" style="shape=tableRow;horizontal=0;startSize=0;swimlaneHead=0;swimlaneBody=0;fillColor=none;collapsible=0;dropTarget=0;points=[[0,0.5],[1,0.5]];portConstraint=eastwest;top=0;left=0;right=0;bottom=0;strokeColor=#788AA3;fontFamily=Helvetica;fontSize=12;fontColor=#46495D;html=1;labelBackgroundColor=none;" parent="AqgVQKVdH_DSCZpF_KZi-161" vertex="1">
          <mxGeometry y="60" width="180" height="30" as="geometry" />
        </mxCell>
        <mxCell id="AqgVQKVdH_DSCZpF_KZi-166" value="&lt;b&gt;FK&lt;/b&gt;" style="shape=partialRectangle;connectable=0;fillColor=none;top=0;left=0;bottom=0;right=0;editable=1;overflow=hidden;whiteSpace=wrap;html=1;strokeColor=#788AA3;fontFamily=Helvetica;fontSize=12;fontColor=#46495D;startSize=23;labelBackgroundColor=none;" parent="AqgVQKVdH_DSCZpF_KZi-165" vertex="1">
          <mxGeometry width="30" height="30" as="geometry">
            <mxRectangle width="30" height="30" as="alternateBounds" />
          </mxGeometry>
        </mxCell>
        <mxCell id="AqgVQKVdH_DSCZpF_KZi-167" value="&lt;u&gt;&lt;b&gt;user_id&lt;/b&gt;&lt;/u&gt;" style="shape=partialRectangle;connectable=0;fillColor=none;top=0;left=0;bottom=0;right=0;align=left;spacingLeft=6;overflow=hidden;whiteSpace=wrap;html=1;strokeColor=#788AA3;fontFamily=Helvetica;fontSize=12;fontColor=#46495D;startSize=23;labelBackgroundColor=none;" parent="AqgVQKVdH_DSCZpF_KZi-165" vertex="1">
          <mxGeometry x="30" width="150" height="30" as="geometry">
            <mxRectangle width="150" height="30" as="alternateBounds" />
          </mxGeometry>
        </mxCell>
        <mxCell id="AqgVQKVdH_DSCZpF_KZi-168" value="" style="shape=tableRow;horizontal=0;startSize=0;swimlaneHead=0;swimlaneBody=0;fillColor=none;collapsible=0;dropTarget=0;points=[[0,0.5],[1,0.5]];portConstraint=eastwest;top=0;left=0;right=0;bottom=1;strokeColor=#788AA3;fontFamily=Helvetica;fontSize=12;fontColor=#46495D;html=1;labelBackgroundColor=none;" parent="AqgVQKVdH_DSCZpF_KZi-161" vertex="1">
          <mxGeometry y="90" width="180" height="30" as="geometry" />
        </mxCell>
        <mxCell id="AqgVQKVdH_DSCZpF_KZi-169" value="FK" style="shape=partialRectangle;connectable=0;fillColor=none;top=0;left=0;bottom=0;right=0;fontStyle=1;overflow=hidden;whiteSpace=wrap;html=1;strokeColor=#788AA3;fontFamily=Helvetica;fontSize=12;fontColor=#46495D;startSize=23;labelBackgroundColor=none;" parent="AqgVQKVdH_DSCZpF_KZi-168" vertex="1">
          <mxGeometry width="30" height="30" as="geometry">
            <mxRectangle width="30" height="30" as="alternateBounds" />
          </mxGeometry>
        </mxCell>
        <mxCell id="AqgVQKVdH_DSCZpF_KZi-170" value="post_id" style="shape=partialRectangle;connectable=0;fillColor=none;top=0;left=0;bottom=0;right=0;align=left;spacingLeft=6;fontStyle=5;overflow=hidden;whiteSpace=wrap;html=1;strokeColor=#788AA3;fontFamily=Helvetica;fontSize=12;fontColor=#46495D;startSize=23;labelBackgroundColor=none;" parent="AqgVQKVdH_DSCZpF_KZi-168" vertex="1">
          <mxGeometry x="30" width="150" height="30" as="geometry">
            <mxRectangle width="150" height="30" as="alternateBounds" />
          </mxGeometry>
        </mxCell>
        <mxCell id="AqgVQKVdH_DSCZpF_KZi-177" value="" style="shape=tableRow;horizontal=0;startSize=0;swimlaneHead=0;swimlaneBody=0;fillColor=none;collapsible=0;dropTarget=0;points=[[0,0.5],[1,0.5]];portConstraint=eastwest;top=0;left=0;right=0;bottom=0;strokeColor=#788AA3;fontFamily=Helvetica;fontSize=12;fontColor=#46495D;html=1;labelBackgroundColor=none;" parent="AqgVQKVdH_DSCZpF_KZi-161" vertex="1">
          <mxGeometry y="120" width="180" height="30" as="geometry" />
        </mxCell>
        <mxCell id="AqgVQKVdH_DSCZpF_KZi-178" value="" style="shape=partialRectangle;connectable=0;fillColor=none;top=0;left=0;bottom=0;right=0;editable=1;overflow=hidden;whiteSpace=wrap;html=1;strokeColor=#788AA3;fontFamily=Helvetica;fontSize=12;fontColor=#46495D;startSize=23;labelBackgroundColor=none;" parent="AqgVQKVdH_DSCZpF_KZi-177" vertex="1">
          <mxGeometry width="30" height="30" as="geometry">
            <mxRectangle width="30" height="30" as="alternateBounds" />
          </mxGeometry>
        </mxCell>
        <mxCell id="AqgVQKVdH_DSCZpF_KZi-179" value="comment" style="shape=partialRectangle;connectable=0;fillColor=none;top=0;left=0;bottom=0;right=0;align=left;spacingLeft=6;overflow=hidden;whiteSpace=wrap;html=1;strokeColor=#788AA3;fontFamily=Helvetica;fontSize=12;fontColor=#46495D;startSize=23;labelBackgroundColor=none;" parent="AqgVQKVdH_DSCZpF_KZi-177" vertex="1">
          <mxGeometry x="30" width="150" height="30" as="geometry">
            <mxRectangle width="150" height="30" as="alternateBounds" />
          </mxGeometry>
        </mxCell>
        <mxCell id="AqgVQKVdH_DSCZpF_KZi-171" value="" style="shape=tableRow;horizontal=0;startSize=0;swimlaneHead=0;swimlaneBody=0;fillColor=none;collapsible=0;dropTarget=0;points=[[0,0.5],[1,0.5]];portConstraint=eastwest;top=0;left=0;right=0;bottom=0;strokeColor=#788AA3;fontFamily=Helvetica;fontSize=12;fontColor=#46495D;html=1;labelBackgroundColor=none;" parent="AqgVQKVdH_DSCZpF_KZi-161" vertex="1">
          <mxGeometry y="150" width="180" height="30" as="geometry" />
        </mxCell>
        <mxCell id="AqgVQKVdH_DSCZpF_KZi-172" value="" style="shape=partialRectangle;connectable=0;fillColor=none;top=0;left=0;bottom=0;right=0;editable=1;overflow=hidden;whiteSpace=wrap;html=1;strokeColor=#788AA3;fontFamily=Helvetica;fontSize=12;fontColor=#46495D;startSize=23;labelBackgroundColor=none;" parent="AqgVQKVdH_DSCZpF_KZi-171" vertex="1">
          <mxGeometry width="30" height="30" as="geometry">
            <mxRectangle width="30" height="30" as="alternateBounds" />
          </mxGeometry>
        </mxCell>
        <mxCell id="AqgVQKVdH_DSCZpF_KZi-173" value="created_at" style="shape=partialRectangle;connectable=0;fillColor=none;top=0;left=0;bottom=0;right=0;align=left;spacingLeft=6;overflow=hidden;whiteSpace=wrap;html=1;strokeColor=#788AA3;fontFamily=Helvetica;fontSize=12;fontColor=#46495D;startSize=23;labelBackgroundColor=none;" parent="AqgVQKVdH_DSCZpF_KZi-171" vertex="1">
          <mxGeometry x="30" width="150" height="30" as="geometry">
            <mxRectangle width="150" height="30" as="alternateBounds" />
          </mxGeometry>
        </mxCell>
        <mxCell id="AqgVQKVdH_DSCZpF_KZi-174" value="" style="shape=tableRow;horizontal=0;startSize=0;swimlaneHead=0;swimlaneBody=0;fillColor=none;collapsible=0;dropTarget=0;points=[[0,0.5],[1,0.5]];portConstraint=eastwest;top=0;left=0;right=0;bottom=0;strokeColor=#788AA3;fontFamily=Helvetica;fontSize=12;fontColor=#46495D;html=1;labelBackgroundColor=none;" parent="AqgVQKVdH_DSCZpF_KZi-161" vertex="1">
          <mxGeometry y="180" width="180" height="30" as="geometry" />
        </mxCell>
        <mxCell id="AqgVQKVdH_DSCZpF_KZi-175" value="" style="shape=partialRectangle;connectable=0;fillColor=none;top=0;left=0;bottom=0;right=0;editable=1;overflow=hidden;whiteSpace=wrap;html=1;strokeColor=#788AA3;fontFamily=Helvetica;fontSize=12;fontColor=#46495D;startSize=23;labelBackgroundColor=none;" parent="AqgVQKVdH_DSCZpF_KZi-174" vertex="1">
          <mxGeometry width="30" height="30" as="geometry">
            <mxRectangle width="30" height="30" as="alternateBounds" />
          </mxGeometry>
        </mxCell>
        <mxCell id="AqgVQKVdH_DSCZpF_KZi-176" value="updated_at" style="shape=partialRectangle;connectable=0;fillColor=none;top=0;left=0;bottom=0;right=0;align=left;spacingLeft=6;overflow=hidden;whiteSpace=wrap;html=1;strokeColor=#788AA3;fontFamily=Helvetica;fontSize=12;fontColor=#46495D;startSize=23;labelBackgroundColor=none;" parent="AqgVQKVdH_DSCZpF_KZi-174" vertex="1">
          <mxGeometry x="30" width="150" height="30" as="geometry">
            <mxRectangle width="150" height="30" as="alternateBounds" />
          </mxGeometry>
        </mxCell>
        <mxCell id="AqgVQKVdH_DSCZpF_KZi-180" value="" style="edgeStyle=elbowEdgeStyle;fontSize=12;html=1;endArrow=ERzeroToMany;endFill=1;fontFamily=Helvetica;fontColor=default;startSize=8;rounded=1;entryX=1;entryY=0.5;entryDx=0;entryDy=0;startArrow=ERone;startFill=0;endSize=9;labelBackgroundColor=none;strokeColor=#788AA3;exitX=0;exitY=0.5;exitDx=0;exitDy=0;" parent="WIyWlLk6GJQsqaUBKTNV-1" target="AqgVQKVdH_DSCZpF_KZi-145" edge="1">
          <mxGeometry width="100" height="100" relative="1" as="geometry">
            <mxPoint x="1040.0000000000005" y="695" as="sourcePoint" />
            <mxPoint x="680" y="845" as="targetPoint" />
            <Array as="points">
              <mxPoint x="1000" y="580" />
            </Array>
          </mxGeometry>
        </mxCell>
        <mxCell id="AqgVQKVdH_DSCZpF_KZi-181" value="" style="edgeStyle=elbowEdgeStyle;fontSize=12;html=1;endArrow=ERzeroToMany;endFill=1;fontFamily=Helvetica;fontColor=default;startSize=8;rounded=1;startArrow=ERone;startFill=0;endSize=9;labelBackgroundColor=none;strokeColor=#788AA3;exitX=0;exitY=0.5;exitDx=0;exitDy=0;entryX=1;entryY=0.5;entryDx=0;entryDy=0;" parent="WIyWlLk6GJQsqaUBKTNV-1" source="TtT6zjxbn2nU0OrpLk1x-483" target="AqgVQKVdH_DSCZpF_KZi-168" edge="1">
          <mxGeometry width="100" height="100" relative="1" as="geometry">
            <mxPoint x="360" y="1080" as="sourcePoint" />
            <mxPoint x="700" y="1025" as="targetPoint" />
            <Array as="points">
              <mxPoint x="660" y="890" />
            </Array>
          </mxGeometry>
        </mxCell>
        <mxCell id="AqgVQKVdH_DSCZpF_KZi-182" value="Relationships" style="shape=table;startSize=30;container=1;collapsible=1;childLayout=tableLayout;fixedRows=1;rowLines=0;fontStyle=1;align=center;resizeLast=1;html=1;strokeColor=#006EAF;fontFamily=Helvetica;fontSize=12;fillColor=#1ba1e2;labelBackgroundColor=none;fontColor=#ffffff;" parent="WIyWlLk6GJQsqaUBKTNV-1" vertex="1">
          <mxGeometry x="1460" y="320" width="180" height="180.00000000000023" as="geometry" />
        </mxCell>
        <mxCell id="AqgVQKVdH_DSCZpF_KZi-183" value="" style="shape=tableRow;horizontal=0;startSize=0;swimlaneHead=0;swimlaneBody=0;fillColor=none;collapsible=0;dropTarget=0;points=[[0,0.5],[1,0.5]];portConstraint=eastwest;top=0;left=0;right=0;bottom=1;strokeColor=#788AA3;fontFamily=Helvetica;fontSize=12;fontColor=#46495D;html=1;labelBackgroundColor=none;" parent="AqgVQKVdH_DSCZpF_KZi-182" vertex="1">
          <mxGeometry y="30" width="180" height="30" as="geometry" />
        </mxCell>
        <mxCell id="AqgVQKVdH_DSCZpF_KZi-184" value="PK" style="shape=partialRectangle;connectable=0;fillColor=none;top=0;left=0;bottom=0;right=0;fontStyle=1;overflow=hidden;whiteSpace=wrap;html=1;strokeColor=#788AA3;fontFamily=Helvetica;fontSize=12;fontColor=#46495D;startSize=23;labelBackgroundColor=none;" parent="AqgVQKVdH_DSCZpF_KZi-183" vertex="1">
          <mxGeometry width="30" height="30" as="geometry">
            <mxRectangle width="30" height="30" as="alternateBounds" />
          </mxGeometry>
        </mxCell>
        <mxCell id="AqgVQKVdH_DSCZpF_KZi-185" value="relationship_id" style="shape=partialRectangle;connectable=0;fillColor=none;top=0;left=0;bottom=0;right=0;align=left;spacingLeft=6;fontStyle=5;overflow=hidden;whiteSpace=wrap;html=1;strokeColor=#788AA3;fontFamily=Helvetica;fontSize=12;fontColor=#46495D;startSize=23;labelBackgroundColor=none;" parent="AqgVQKVdH_DSCZpF_KZi-183" vertex="1">
          <mxGeometry x="30" width="150" height="30" as="geometry">
            <mxRectangle width="150" height="30" as="alternateBounds" />
          </mxGeometry>
        </mxCell>
        <mxCell id="AqgVQKVdH_DSCZpF_KZi-186" value="" style="shape=tableRow;horizontal=0;startSize=0;swimlaneHead=0;swimlaneBody=0;fillColor=none;collapsible=0;dropTarget=0;points=[[0,0.5],[1,0.5]];portConstraint=eastwest;top=0;left=0;right=0;bottom=0;strokeColor=#788AA3;fontFamily=Helvetica;fontSize=12;fontColor=#46495D;html=1;labelBackgroundColor=none;" parent="AqgVQKVdH_DSCZpF_KZi-182" vertex="1">
          <mxGeometry y="60" width="180" height="30" as="geometry" />
        </mxCell>
        <mxCell id="AqgVQKVdH_DSCZpF_KZi-187" value="&lt;b&gt;FK&lt;/b&gt;" style="shape=partialRectangle;connectable=0;fillColor=none;top=0;left=0;bottom=0;right=0;editable=1;overflow=hidden;whiteSpace=wrap;html=1;strokeColor=#788AA3;fontFamily=Helvetica;fontSize=12;fontColor=#46495D;startSize=23;labelBackgroundColor=none;" parent="AqgVQKVdH_DSCZpF_KZi-186" vertex="1">
          <mxGeometry width="30" height="30" as="geometry">
            <mxRectangle width="30" height="30" as="alternateBounds" />
          </mxGeometry>
        </mxCell>
        <mxCell id="AqgVQKVdH_DSCZpF_KZi-188" value="&lt;u&gt;&lt;b&gt;follower_id&lt;/b&gt;&lt;/u&gt;" style="shape=partialRectangle;connectable=0;fillColor=none;top=0;left=0;bottom=0;right=0;align=left;spacingLeft=6;overflow=hidden;whiteSpace=wrap;html=1;strokeColor=#788AA3;fontFamily=Helvetica;fontSize=12;fontColor=#46495D;startSize=23;labelBackgroundColor=none;" parent="AqgVQKVdH_DSCZpF_KZi-186" vertex="1">
          <mxGeometry x="30" width="150" height="30" as="geometry">
            <mxRectangle width="150" height="30" as="alternateBounds" />
          </mxGeometry>
        </mxCell>
        <mxCell id="AqgVQKVdH_DSCZpF_KZi-189" value="" style="shape=tableRow;horizontal=0;startSize=0;swimlaneHead=0;swimlaneBody=0;fillColor=none;collapsible=0;dropTarget=0;points=[[0,0.5],[1,0.5]];portConstraint=eastwest;top=0;left=0;right=0;bottom=1;strokeColor=#788AA3;fontFamily=Helvetica;fontSize=12;fontColor=#46495D;html=1;labelBackgroundColor=none;" parent="AqgVQKVdH_DSCZpF_KZi-182" vertex="1">
          <mxGeometry y="90" width="180" height="30" as="geometry" />
        </mxCell>
        <mxCell id="AqgVQKVdH_DSCZpF_KZi-190" value="FK" style="shape=partialRectangle;connectable=0;fillColor=none;top=0;left=0;bottom=0;right=0;fontStyle=1;overflow=hidden;whiteSpace=wrap;html=1;strokeColor=#788AA3;fontFamily=Helvetica;fontSize=12;fontColor=#46495D;startSize=23;labelBackgroundColor=none;" parent="AqgVQKVdH_DSCZpF_KZi-189" vertex="1">
          <mxGeometry width="30" height="30" as="geometry">
            <mxRectangle width="30" height="30" as="alternateBounds" />
          </mxGeometry>
        </mxCell>
        <mxCell id="AqgVQKVdH_DSCZpF_KZi-191" value="followed_id" style="shape=partialRectangle;connectable=0;fillColor=none;top=0;left=0;bottom=0;right=0;align=left;spacingLeft=6;fontStyle=5;overflow=hidden;whiteSpace=wrap;html=1;strokeColor=#788AA3;fontFamily=Helvetica;fontSize=12;fontColor=#46495D;startSize=23;labelBackgroundColor=none;" parent="AqgVQKVdH_DSCZpF_KZi-189" vertex="1">
          <mxGeometry x="30" width="150" height="30" as="geometry">
            <mxRectangle width="150" height="30" as="alternateBounds" />
          </mxGeometry>
        </mxCell>
        <mxCell id="AqgVQKVdH_DSCZpF_KZi-195" value="" style="shape=tableRow;horizontal=0;startSize=0;swimlaneHead=0;swimlaneBody=0;fillColor=none;collapsible=0;dropTarget=0;points=[[0,0.5],[1,0.5]];portConstraint=eastwest;top=0;left=0;right=0;bottom=0;strokeColor=#788AA3;fontFamily=Helvetica;fontSize=12;fontColor=#46495D;html=1;labelBackgroundColor=none;" parent="AqgVQKVdH_DSCZpF_KZi-182" vertex="1">
          <mxGeometry y="120" width="180" height="30" as="geometry" />
        </mxCell>
        <mxCell id="AqgVQKVdH_DSCZpF_KZi-196" value="" style="shape=partialRectangle;connectable=0;fillColor=none;top=0;left=0;bottom=0;right=0;editable=1;overflow=hidden;whiteSpace=wrap;html=1;strokeColor=#788AA3;fontFamily=Helvetica;fontSize=12;fontColor=#46495D;startSize=23;labelBackgroundColor=none;" parent="AqgVQKVdH_DSCZpF_KZi-195" vertex="1">
          <mxGeometry width="30" height="30" as="geometry">
            <mxRectangle width="30" height="30" as="alternateBounds" />
          </mxGeometry>
        </mxCell>
        <mxCell id="AqgVQKVdH_DSCZpF_KZi-197" value="created_at" style="shape=partialRectangle;connectable=0;fillColor=none;top=0;left=0;bottom=0;right=0;align=left;spacingLeft=6;overflow=hidden;whiteSpace=wrap;html=1;strokeColor=#788AA3;fontFamily=Helvetica;fontSize=12;fontColor=#46495D;startSize=23;labelBackgroundColor=none;" parent="AqgVQKVdH_DSCZpF_KZi-195" vertex="1">
          <mxGeometry x="30" width="150" height="30" as="geometry">
            <mxRectangle width="150" height="30" as="alternateBounds" />
          </mxGeometry>
        </mxCell>
        <mxCell id="AqgVQKVdH_DSCZpF_KZi-198" value="" style="shape=tableRow;horizontal=0;startSize=0;swimlaneHead=0;swimlaneBody=0;fillColor=none;collapsible=0;dropTarget=0;points=[[0,0.5],[1,0.5]];portConstraint=eastwest;top=0;left=0;right=0;bottom=0;strokeColor=#788AA3;fontFamily=Helvetica;fontSize=12;fontColor=#46495D;html=1;labelBackgroundColor=none;" parent="AqgVQKVdH_DSCZpF_KZi-182" vertex="1">
          <mxGeometry y="150" width="180" height="30" as="geometry" />
        </mxCell>
        <mxCell id="AqgVQKVdH_DSCZpF_KZi-199" value="" style="shape=partialRectangle;connectable=0;fillColor=none;top=0;left=0;bottom=0;right=0;editable=1;overflow=hidden;whiteSpace=wrap;html=1;strokeColor=#788AA3;fontFamily=Helvetica;fontSize=12;fontColor=#46495D;startSize=23;labelBackgroundColor=none;" parent="AqgVQKVdH_DSCZpF_KZi-198" vertex="1">
          <mxGeometry width="30" height="30" as="geometry">
            <mxRectangle width="30" height="30" as="alternateBounds" />
          </mxGeometry>
        </mxCell>
        <mxCell id="AqgVQKVdH_DSCZpF_KZi-200" value="updated_at" style="shape=partialRectangle;connectable=0;fillColor=none;top=0;left=0;bottom=0;right=0;align=left;spacingLeft=6;overflow=hidden;whiteSpace=wrap;html=1;strokeColor=#788AA3;fontFamily=Helvetica;fontSize=12;fontColor=#46495D;startSize=23;labelBackgroundColor=none;" parent="AqgVQKVdH_DSCZpF_KZi-198" vertex="1">
          <mxGeometry x="30" width="150" height="30" as="geometry">
            <mxRectangle width="150" height="30" as="alternateBounds" />
          </mxGeometry>
        </mxCell>
        <mxCell id="AqgVQKVdH_DSCZpF_KZi-288" value="" style="edgeStyle=elbowEdgeStyle;fontSize=12;html=1;endArrow=ERzeroToMany;endFill=1;fontFamily=Helvetica;fontColor=default;startSize=8;rounded=1;startArrow=ERone;startFill=0;endSize=9;labelBackgroundColor=none;strokeColor=#788AA3;entryX=0;entryY=0.5;entryDx=0;entryDy=0;exitX=1.002;exitY=0.097;exitDx=0;exitDy=0;exitPerimeter=0;" parent="WIyWlLk6GJQsqaUBKTNV-1" source="ygLPfD_EKUeMDjVUtWBq-25" target="AqgVQKVdH_DSCZpF_KZi-186" edge="1">
          <mxGeometry width="100" height="100" relative="1" as="geometry">
            <mxPoint x="1220.7200000000003" y="684.8900000000001" as="sourcePoint" />
            <mxPoint x="1470" y="560" as="targetPoint" />
            <Array as="points">
              <mxPoint x="1300" y="390" />
              <mxPoint x="1280" y="490" />
            </Array>
          </mxGeometry>
        </mxCell>
        <mxCell id="AqgVQKVdH_DSCZpF_KZi-326" value="Notifications（通知）" style="shape=table;startSize=30;container=1;collapsible=1;childLayout=tableLayout;fixedRows=1;rowLines=0;fontStyle=1;align=center;resizeLast=1;html=1;strokeColor=#432D57;fontFamily=Helvetica;fontSize=12;fillColor=#76608a;labelBackgroundColor=none;fontColor=#ffffff;" parent="WIyWlLk6GJQsqaUBKTNV-1" vertex="1">
          <mxGeometry x="1040" y="70" width="180" height="390.0000000000002" as="geometry" />
        </mxCell>
        <mxCell id="AqgVQKVdH_DSCZpF_KZi-327" value="" style="shape=tableRow;horizontal=0;startSize=0;swimlaneHead=0;swimlaneBody=0;fillColor=none;collapsible=0;dropTarget=0;points=[[0,0.5],[1,0.5]];portConstraint=eastwest;top=0;left=0;right=0;bottom=1;strokeColor=#788AA3;fontFamily=Helvetica;fontSize=12;fontColor=#46495D;html=1;labelBackgroundColor=none;" parent="AqgVQKVdH_DSCZpF_KZi-326" vertex="1">
          <mxGeometry y="30" width="180" height="30" as="geometry" />
        </mxCell>
        <mxCell id="AqgVQKVdH_DSCZpF_KZi-328" value="PK" style="shape=partialRectangle;connectable=0;fillColor=none;top=0;left=0;bottom=0;right=0;fontStyle=1;overflow=hidden;whiteSpace=wrap;html=1;strokeColor=#788AA3;fontFamily=Helvetica;fontSize=12;fontColor=#46495D;startSize=23;labelBackgroundColor=none;" parent="AqgVQKVdH_DSCZpF_KZi-327" vertex="1">
          <mxGeometry width="30" height="30" as="geometry">
            <mxRectangle width="30" height="30" as="alternateBounds" />
          </mxGeometry>
        </mxCell>
        <mxCell id="AqgVQKVdH_DSCZpF_KZi-329" value="notification_id" style="shape=partialRectangle;connectable=0;fillColor=none;top=0;left=0;bottom=0;right=0;align=left;spacingLeft=6;fontStyle=5;overflow=hidden;whiteSpace=wrap;html=1;strokeColor=#788AA3;fontFamily=Helvetica;fontSize=12;fontColor=#46495D;startSize=23;labelBackgroundColor=none;" parent="AqgVQKVdH_DSCZpF_KZi-327" vertex="1">
          <mxGeometry x="30" width="150" height="30" as="geometry">
            <mxRectangle width="150" height="30" as="alternateBounds" />
          </mxGeometry>
        </mxCell>
        <mxCell id="b9R3foTk5EEnjH_eZH6s-0" value="" style="shape=tableRow;horizontal=0;startSize=0;swimlaneHead=0;swimlaneBody=0;fillColor=none;collapsible=0;dropTarget=0;points=[[0,0.5],[1,0.5]];portConstraint=eastwest;top=0;left=0;right=0;bottom=0;strokeColor=#788AA3;fontFamily=Helvetica;fontSize=12;fontColor=#46495D;html=1;labelBackgroundColor=none;" parent="AqgVQKVdH_DSCZpF_KZi-326" vertex="1">
          <mxGeometry y="60" width="180" height="30" as="geometry" />
        </mxCell>
        <mxCell id="b9R3foTk5EEnjH_eZH6s-1" value="&lt;b&gt;FK&lt;/b&gt;" style="shape=partialRectangle;connectable=0;fillColor=none;top=0;left=0;bottom=0;right=0;editable=1;overflow=hidden;whiteSpace=wrap;html=1;strokeColor=#788AA3;fontFamily=Helvetica;fontSize=12;fontColor=#46495D;startSize=23;labelBackgroundColor=none;" parent="b9R3foTk5EEnjH_eZH6s-0" vertex="1">
          <mxGeometry width="30" height="30" as="geometry">
            <mxRectangle width="30" height="30" as="alternateBounds" />
          </mxGeometry>
        </mxCell>
        <mxCell id="b9R3foTk5EEnjH_eZH6s-2" value="&lt;u&gt;&lt;b&gt;visitor_id&lt;/b&gt;&lt;/u&gt;" style="shape=partialRectangle;connectable=0;fillColor=none;top=0;left=0;bottom=0;right=0;align=left;spacingLeft=6;overflow=hidden;whiteSpace=wrap;html=1;strokeColor=#788AA3;fontFamily=Helvetica;fontSize=12;fontColor=#46495D;startSize=23;labelBackgroundColor=none;" parent="b9R3foTk5EEnjH_eZH6s-0" vertex="1">
          <mxGeometry x="30" width="150" height="30" as="geometry">
            <mxRectangle width="150" height="30" as="alternateBounds" />
          </mxGeometry>
        </mxCell>
        <mxCell id="AqgVQKVdH_DSCZpF_KZi-330" value="" style="shape=tableRow;horizontal=0;startSize=0;swimlaneHead=0;swimlaneBody=0;fillColor=none;collapsible=0;dropTarget=0;points=[[0,0.5],[1,0.5]];portConstraint=eastwest;top=0;left=0;right=0;bottom=0;strokeColor=#788AA3;fontFamily=Helvetica;fontSize=12;fontColor=#46495D;html=1;labelBackgroundColor=none;" parent="AqgVQKVdH_DSCZpF_KZi-326" vertex="1">
          <mxGeometry y="90" width="180" height="30" as="geometry" />
        </mxCell>
        <mxCell id="AqgVQKVdH_DSCZpF_KZi-331" value="&lt;b&gt;FK&lt;/b&gt;" style="shape=partialRectangle;connectable=0;fillColor=none;top=0;left=0;bottom=0;right=0;editable=1;overflow=hidden;whiteSpace=wrap;html=1;strokeColor=#788AA3;fontFamily=Helvetica;fontSize=12;fontColor=#46495D;startSize=23;labelBackgroundColor=none;" parent="AqgVQKVdH_DSCZpF_KZi-330" vertex="1">
          <mxGeometry width="30" height="30" as="geometry">
            <mxRectangle width="30" height="30" as="alternateBounds" />
          </mxGeometry>
        </mxCell>
        <mxCell id="AqgVQKVdH_DSCZpF_KZi-332" value="&lt;u&gt;&lt;b&gt;visited_id&lt;/b&gt;&lt;/u&gt;" style="shape=partialRectangle;connectable=0;fillColor=none;top=0;left=0;bottom=0;right=0;align=left;spacingLeft=6;overflow=hidden;whiteSpace=wrap;html=1;strokeColor=#788AA3;fontFamily=Helvetica;fontSize=12;fontColor=#46495D;startSize=23;labelBackgroundColor=none;" parent="AqgVQKVdH_DSCZpF_KZi-330" vertex="1">
          <mxGeometry x="30" width="150" height="30" as="geometry">
            <mxRectangle width="150" height="30" as="alternateBounds" />
          </mxGeometry>
        </mxCell>
        <mxCell id="ygLPfD_EKUeMDjVUtWBq-0" value="" style="shape=tableRow;horizontal=0;startSize=0;swimlaneHead=0;swimlaneBody=0;fillColor=none;collapsible=0;dropTarget=0;points=[[0,0.5],[1,0.5]];portConstraint=eastwest;top=0;left=0;right=0;bottom=0;strokeColor=#788AA3;fontFamily=Helvetica;fontSize=12;fontColor=#46495D;html=1;labelBackgroundColor=none;" parent="AqgVQKVdH_DSCZpF_KZi-326" vertex="1">
          <mxGeometry y="120" width="180" height="30" as="geometry" />
        </mxCell>
        <mxCell id="ygLPfD_EKUeMDjVUtWBq-1" value="&lt;b&gt;FK&lt;/b&gt;" style="shape=partialRectangle;connectable=0;fillColor=none;top=0;left=0;bottom=0;right=0;editable=1;overflow=hidden;whiteSpace=wrap;html=1;strokeColor=#788AA3;fontFamily=Helvetica;fontSize=12;fontColor=#46495D;startSize=23;labelBackgroundColor=none;" parent="ygLPfD_EKUeMDjVUtWBq-0" vertex="1">
          <mxGeometry width="30" height="30" as="geometry">
            <mxRectangle width="30" height="30" as="alternateBounds" />
          </mxGeometry>
        </mxCell>
        <mxCell id="ygLPfD_EKUeMDjVUtWBq-2" value="&lt;u&gt;&lt;b&gt;post_id&lt;/b&gt;&lt;/u&gt;" style="shape=partialRectangle;connectable=0;fillColor=none;top=0;left=0;bottom=0;right=0;align=left;spacingLeft=6;overflow=hidden;whiteSpace=wrap;html=1;strokeColor=#788AA3;fontFamily=Helvetica;fontSize=12;fontColor=#46495D;startSize=23;labelBackgroundColor=none;" parent="ygLPfD_EKUeMDjVUtWBq-0" vertex="1">
          <mxGeometry x="30" width="150" height="30" as="geometry">
            <mxRectangle width="150" height="30" as="alternateBounds" />
          </mxGeometry>
        </mxCell>
        <mxCell id="AqgVQKVdH_DSCZpF_KZi-354" value="" style="shape=tableRow;horizontal=0;startSize=0;swimlaneHead=0;swimlaneBody=0;fillColor=none;collapsible=0;dropTarget=0;points=[[0,0.5],[1,0.5]];portConstraint=eastwest;top=0;left=0;right=0;bottom=0;strokeColor=#788AA3;fontFamily=Helvetica;fontSize=12;fontColor=#46495D;html=1;labelBackgroundColor=none;" parent="AqgVQKVdH_DSCZpF_KZi-326" vertex="1">
          <mxGeometry y="150" width="180" height="30" as="geometry" />
        </mxCell>
        <mxCell id="AqgVQKVdH_DSCZpF_KZi-355" value="&lt;b&gt;FK&lt;/b&gt;" style="shape=partialRectangle;connectable=0;fillColor=none;top=0;left=0;bottom=0;right=0;editable=1;overflow=hidden;whiteSpace=wrap;html=1;strokeColor=#788AA3;fontFamily=Helvetica;fontSize=12;fontColor=#46495D;startSize=23;labelBackgroundColor=none;" parent="AqgVQKVdH_DSCZpF_KZi-354" vertex="1">
          <mxGeometry width="30" height="30" as="geometry">
            <mxRectangle width="30" height="30" as="alternateBounds" />
          </mxGeometry>
        </mxCell>
        <mxCell id="AqgVQKVdH_DSCZpF_KZi-356" value="&lt;u&gt;&lt;b&gt;comment_id&lt;/b&gt;&lt;/u&gt;" style="shape=partialRectangle;connectable=0;fillColor=none;top=0;left=0;bottom=0;right=0;align=left;spacingLeft=6;overflow=hidden;whiteSpace=wrap;html=1;strokeColor=#788AA3;fontFamily=Helvetica;fontSize=12;fontColor=#46495D;startSize=23;labelBackgroundColor=none;" parent="AqgVQKVdH_DSCZpF_KZi-354" vertex="1">
          <mxGeometry x="30" width="150" height="30" as="geometry">
            <mxRectangle width="150" height="30" as="alternateBounds" />
          </mxGeometry>
        </mxCell>
        <mxCell id="AqgVQKVdH_DSCZpF_KZi-357" value="" style="shape=tableRow;horizontal=0;startSize=0;swimlaneHead=0;swimlaneBody=0;fillColor=none;collapsible=0;dropTarget=0;points=[[0,0.5],[1,0.5]];portConstraint=eastwest;top=0;left=0;right=0;bottom=0;strokeColor=#788AA3;fontFamily=Helvetica;fontSize=12;fontColor=#46495D;html=1;labelBackgroundColor=none;" parent="AqgVQKVdH_DSCZpF_KZi-326" vertex="1">
          <mxGeometry y="180" width="180" height="30" as="geometry" />
        </mxCell>
        <mxCell id="AqgVQKVdH_DSCZpF_KZi-358" value="&lt;b&gt;FK&lt;/b&gt;" style="shape=partialRectangle;connectable=0;fillColor=none;top=0;left=0;bottom=0;right=0;editable=1;overflow=hidden;whiteSpace=wrap;html=1;strokeColor=#788AA3;fontFamily=Helvetica;fontSize=12;fontColor=#46495D;startSize=23;labelBackgroundColor=none;" parent="AqgVQKVdH_DSCZpF_KZi-357" vertex="1">
          <mxGeometry width="30" height="30" as="geometry">
            <mxRectangle width="30" height="30" as="alternateBounds" />
          </mxGeometry>
        </mxCell>
        <mxCell id="AqgVQKVdH_DSCZpF_KZi-359" value="&lt;u&gt;&lt;b&gt;post_favorite_id&lt;/b&gt;&lt;/u&gt;" style="shape=partialRectangle;connectable=0;fillColor=none;top=0;left=0;bottom=0;right=0;align=left;spacingLeft=6;overflow=hidden;whiteSpace=wrap;html=1;strokeColor=#788AA3;fontFamily=Helvetica;fontSize=12;fontColor=#46495D;startSize=23;labelBackgroundColor=none;" parent="AqgVQKVdH_DSCZpF_KZi-357" vertex="1">
          <mxGeometry x="30" width="150" height="30" as="geometry">
            <mxRectangle width="150" height="30" as="alternateBounds" />
          </mxGeometry>
        </mxCell>
        <mxCell id="nsjEO3wTD0hUkXk-Kdim-20" value="" style="shape=tableRow;horizontal=0;startSize=0;swimlaneHead=0;swimlaneBody=0;fillColor=none;collapsible=0;dropTarget=0;points=[[0,0.5],[1,0.5]];portConstraint=eastwest;top=0;left=0;right=0;bottom=0;strokeColor=#788AA3;fontFamily=Helvetica;fontSize=12;fontColor=#46495D;html=1;labelBackgroundColor=none;" parent="AqgVQKVdH_DSCZpF_KZi-326" vertex="1">
          <mxGeometry y="210" width="180" height="30" as="geometry" />
        </mxCell>
        <mxCell id="nsjEO3wTD0hUkXk-Kdim-21" value="&lt;b&gt;FK&lt;/b&gt;" style="shape=partialRectangle;connectable=0;fillColor=none;top=0;left=0;bottom=0;right=0;editable=1;overflow=hidden;whiteSpace=wrap;html=1;strokeColor=#788AA3;fontFamily=Helvetica;fontSize=12;fontColor=#46495D;startSize=23;labelBackgroundColor=none;" parent="nsjEO3wTD0hUkXk-Kdim-20" vertex="1">
          <mxGeometry width="30" height="30" as="geometry">
            <mxRectangle width="30" height="30" as="alternateBounds" />
          </mxGeometry>
        </mxCell>
        <mxCell id="nsjEO3wTD0hUkXk-Kdim-22" value="&lt;u&gt;&lt;b&gt;comment_favorite_id&lt;/b&gt;&lt;/u&gt;" style="shape=partialRectangle;connectable=0;fillColor=none;top=0;left=0;bottom=0;right=0;align=left;spacingLeft=6;overflow=hidden;whiteSpace=wrap;html=1;strokeColor=#788AA3;fontFamily=Helvetica;fontSize=12;fontColor=#46495D;startSize=23;labelBackgroundColor=none;" parent="nsjEO3wTD0hUkXk-Kdim-20" vertex="1">
          <mxGeometry x="30" width="150" height="30" as="geometry">
            <mxRectangle width="150" height="30" as="alternateBounds" />
          </mxGeometry>
        </mxCell>
        <mxCell id="AqgVQKVdH_DSCZpF_KZi-333" value="" style="shape=tableRow;horizontal=0;startSize=0;swimlaneHead=0;swimlaneBody=0;fillColor=none;collapsible=0;dropTarget=0;points=[[0,0.5],[1,0.5]];portConstraint=eastwest;top=0;left=0;right=0;bottom=1;strokeColor=#788AA3;fontFamily=Helvetica;fontSize=12;fontColor=#46495D;html=1;labelBackgroundColor=none;" parent="AqgVQKVdH_DSCZpF_KZi-326" vertex="1">
          <mxGeometry y="240" width="180" height="30" as="geometry" />
        </mxCell>
        <mxCell id="AqgVQKVdH_DSCZpF_KZi-334" value="FK" style="shape=partialRectangle;connectable=0;fillColor=none;top=0;left=0;bottom=0;right=0;fontStyle=1;overflow=hidden;whiteSpace=wrap;html=1;strokeColor=#788AA3;fontFamily=Helvetica;fontSize=12;fontColor=#46495D;startSize=23;labelBackgroundColor=none;" parent="AqgVQKVdH_DSCZpF_KZi-333" vertex="1">
          <mxGeometry width="30" height="30" as="geometry">
            <mxRectangle width="30" height="30" as="alternateBounds" />
          </mxGeometry>
        </mxCell>
        <mxCell id="AqgVQKVdH_DSCZpF_KZi-335" value="relationship_id" style="shape=partialRectangle;connectable=0;fillColor=none;top=0;left=0;bottom=0;right=0;align=left;spacingLeft=6;fontStyle=5;overflow=hidden;whiteSpace=wrap;html=1;strokeColor=#788AA3;fontFamily=Helvetica;fontSize=12;fontColor=#46495D;startSize=23;labelBackgroundColor=none;" parent="AqgVQKVdH_DSCZpF_KZi-333" vertex="1">
          <mxGeometry x="30" width="150" height="30" as="geometry">
            <mxRectangle width="150" height="30" as="alternateBounds" />
          </mxGeometry>
        </mxCell>
        <mxCell id="AqgVQKVdH_DSCZpF_KZi-336" value="" style="shape=tableRow;horizontal=0;startSize=0;swimlaneHead=0;swimlaneBody=0;fillColor=none;collapsible=0;dropTarget=0;points=[[0,0.5],[1,0.5]];portConstraint=eastwest;top=0;left=0;right=0;bottom=0;strokeColor=#788AA3;fontFamily=Helvetica;fontSize=12;fontColor=#46495D;html=1;labelBackgroundColor=none;" parent="AqgVQKVdH_DSCZpF_KZi-326" vertex="1">
          <mxGeometry y="270" width="180" height="30" as="geometry" />
        </mxCell>
        <mxCell id="AqgVQKVdH_DSCZpF_KZi-337" value="" style="shape=partialRectangle;connectable=0;fillColor=none;top=0;left=0;bottom=0;right=0;editable=1;overflow=hidden;whiteSpace=wrap;html=1;strokeColor=#788AA3;fontFamily=Helvetica;fontSize=12;fontColor=#46495D;startSize=23;labelBackgroundColor=none;" parent="AqgVQKVdH_DSCZpF_KZi-336" vertex="1">
          <mxGeometry width="30" height="30" as="geometry">
            <mxRectangle width="30" height="30" as="alternateBounds" />
          </mxGeometry>
        </mxCell>
        <mxCell id="AqgVQKVdH_DSCZpF_KZi-338" value="acrtion" style="shape=partialRectangle;connectable=0;fillColor=none;top=0;left=0;bottom=0;right=0;align=left;spacingLeft=6;overflow=hidden;whiteSpace=wrap;html=1;strokeColor=#788AA3;fontFamily=Helvetica;fontSize=12;fontColor=#46495D;startSize=23;labelBackgroundColor=none;" parent="AqgVQKVdH_DSCZpF_KZi-336" vertex="1">
          <mxGeometry x="30" width="150" height="30" as="geometry">
            <mxRectangle width="150" height="30" as="alternateBounds" />
          </mxGeometry>
        </mxCell>
        <mxCell id="AqgVQKVdH_DSCZpF_KZi-346" value="" style="shape=tableRow;horizontal=0;startSize=0;swimlaneHead=0;swimlaneBody=0;fillColor=none;collapsible=0;dropTarget=0;points=[[0,0.5],[1,0.5]];portConstraint=eastwest;top=0;left=0;right=0;bottom=0;strokeColor=#788AA3;fontFamily=Helvetica;fontSize=12;fontColor=#46495D;html=1;labelBackgroundColor=none;" parent="AqgVQKVdH_DSCZpF_KZi-326" vertex="1">
          <mxGeometry y="300" width="180" height="30" as="geometry" />
        </mxCell>
        <mxCell id="AqgVQKVdH_DSCZpF_KZi-347" value="" style="shape=partialRectangle;connectable=0;fillColor=none;top=0;left=0;bottom=0;right=0;editable=1;overflow=hidden;whiteSpace=wrap;html=1;strokeColor=#788AA3;fontFamily=Helvetica;fontSize=12;fontColor=#46495D;startSize=23;labelBackgroundColor=none;" parent="AqgVQKVdH_DSCZpF_KZi-346" vertex="1">
          <mxGeometry width="30" height="30" as="geometry">
            <mxRectangle width="30" height="30" as="alternateBounds" />
          </mxGeometry>
        </mxCell>
        <mxCell id="AqgVQKVdH_DSCZpF_KZi-348" value="is_read" style="shape=partialRectangle;connectable=0;fillColor=none;top=0;left=0;bottom=0;right=0;align=left;spacingLeft=6;overflow=hidden;whiteSpace=wrap;html=1;strokeColor=#788AA3;fontFamily=Helvetica;fontSize=12;fontColor=#46495D;startSize=23;labelBackgroundColor=none;" parent="AqgVQKVdH_DSCZpF_KZi-346" vertex="1">
          <mxGeometry x="30" width="150" height="30" as="geometry">
            <mxRectangle width="150" height="30" as="alternateBounds" />
          </mxGeometry>
        </mxCell>
        <mxCell id="AqgVQKVdH_DSCZpF_KZi-343" value="" style="shape=tableRow;horizontal=0;startSize=0;swimlaneHead=0;swimlaneBody=0;fillColor=none;collapsible=0;dropTarget=0;points=[[0,0.5],[1,0.5]];portConstraint=eastwest;top=0;left=0;right=0;bottom=0;strokeColor=#788AA3;fontFamily=Helvetica;fontSize=12;fontColor=#46495D;html=1;labelBackgroundColor=none;" parent="AqgVQKVdH_DSCZpF_KZi-326" vertex="1">
          <mxGeometry y="330" width="180" height="30" as="geometry" />
        </mxCell>
        <mxCell id="AqgVQKVdH_DSCZpF_KZi-344" value="" style="shape=partialRectangle;connectable=0;fillColor=none;top=0;left=0;bottom=0;right=0;editable=1;overflow=hidden;whiteSpace=wrap;html=1;strokeColor=#788AA3;fontFamily=Helvetica;fontSize=12;fontColor=#46495D;startSize=23;labelBackgroundColor=none;" parent="AqgVQKVdH_DSCZpF_KZi-343" vertex="1">
          <mxGeometry width="30" height="30" as="geometry">
            <mxRectangle width="30" height="30" as="alternateBounds" />
          </mxGeometry>
        </mxCell>
        <mxCell id="AqgVQKVdH_DSCZpF_KZi-345" value="created_at" style="shape=partialRectangle;connectable=0;fillColor=none;top=0;left=0;bottom=0;right=0;align=left;spacingLeft=6;overflow=hidden;whiteSpace=wrap;html=1;strokeColor=#788AA3;fontFamily=Helvetica;fontSize=12;fontColor=#46495D;startSize=23;labelBackgroundColor=none;" parent="AqgVQKVdH_DSCZpF_KZi-343" vertex="1">
          <mxGeometry x="30" width="150" height="30" as="geometry">
            <mxRectangle width="150" height="30" as="alternateBounds" />
          </mxGeometry>
        </mxCell>
        <mxCell id="AqgVQKVdH_DSCZpF_KZi-339" value="" style="shape=tableRow;horizontal=0;startSize=0;swimlaneHead=0;swimlaneBody=0;fillColor=none;collapsible=0;dropTarget=0;points=[[0,0.5],[1,0.5]];portConstraint=eastwest;top=0;left=0;right=0;bottom=0;strokeColor=#788AA3;fontFamily=Helvetica;fontSize=12;fontColor=#46495D;html=1;labelBackgroundColor=none;" parent="AqgVQKVdH_DSCZpF_KZi-326" vertex="1">
          <mxGeometry y="360" width="180" height="30" as="geometry" />
        </mxCell>
        <mxCell id="AqgVQKVdH_DSCZpF_KZi-340" value="" style="shape=partialRectangle;connectable=0;fillColor=none;top=0;left=0;bottom=0;right=0;editable=1;overflow=hidden;whiteSpace=wrap;html=1;strokeColor=#788AA3;fontFamily=Helvetica;fontSize=12;fontColor=#46495D;startSize=23;labelBackgroundColor=none;" parent="AqgVQKVdH_DSCZpF_KZi-339" vertex="1">
          <mxGeometry width="30" height="30" as="geometry">
            <mxRectangle width="30" height="30" as="alternateBounds" />
          </mxGeometry>
        </mxCell>
        <mxCell id="AqgVQKVdH_DSCZpF_KZi-341" value="updated_at" style="shape=partialRectangle;connectable=0;fillColor=none;top=0;left=0;bottom=0;right=0;align=left;spacingLeft=6;overflow=hidden;whiteSpace=wrap;html=1;strokeColor=#788AA3;fontFamily=Helvetica;fontSize=12;fontColor=#46495D;startSize=23;labelBackgroundColor=none;" parent="AqgVQKVdH_DSCZpF_KZi-339" vertex="1">
          <mxGeometry x="30" width="150" height="30" as="geometry">
            <mxRectangle width="150" height="30" as="alternateBounds" />
          </mxGeometry>
        </mxCell>
        <mxCell id="amjBT3HOfIgmp5ZAhak1-3" value="&lt;font color=&quot;#000000&quot;&gt;Tags&lt;/font&gt;" style="shape=table;startSize=30;container=1;collapsible=1;childLayout=tableLayout;fixedRows=1;rowLines=0;fontStyle=1;align=center;resizeLast=1;html=1;strokeColor=#b85450;fontFamily=Helvetica;fontSize=12;fillColor=#f8cecc;labelBackgroundColor=none;" parent="WIyWlLk6GJQsqaUBKTNV-1" vertex="1">
          <mxGeometry x="-96" y="620" width="180" height="180" as="geometry" />
        </mxCell>
        <mxCell id="amjBT3HOfIgmp5ZAhak1-4" value="" style="shape=tableRow;horizontal=0;startSize=0;swimlaneHead=0;swimlaneBody=0;fillColor=none;collapsible=0;dropTarget=0;points=[[0,0.5],[1,0.5]];portConstraint=eastwest;top=0;left=0;right=0;bottom=1;strokeColor=#788AA3;fontFamily=Helvetica;fontSize=12;fontColor=#46495D;html=1;labelBackgroundColor=none;" parent="amjBT3HOfIgmp5ZAhak1-3" vertex="1">
          <mxGeometry y="30" width="180" height="30" as="geometry" />
        </mxCell>
        <mxCell id="amjBT3HOfIgmp5ZAhak1-5" value="PK" style="shape=partialRectangle;connectable=0;fillColor=none;top=0;left=0;bottom=0;right=0;fontStyle=1;overflow=hidden;whiteSpace=wrap;html=1;strokeColor=#788AA3;fontFamily=Helvetica;fontSize=12;fontColor=#46495D;startSize=23;labelBackgroundColor=none;" parent="amjBT3HOfIgmp5ZAhak1-4" vertex="1">
          <mxGeometry width="30" height="30" as="geometry">
            <mxRectangle width="30" height="30" as="alternateBounds" />
          </mxGeometry>
        </mxCell>
        <mxCell id="amjBT3HOfIgmp5ZAhak1-6" value="tag_id" style="shape=partialRectangle;connectable=0;fillColor=none;top=0;left=0;bottom=0;right=0;align=left;spacingLeft=6;fontStyle=5;overflow=hidden;whiteSpace=wrap;html=1;strokeColor=#788AA3;fontFamily=Helvetica;fontSize=12;fontColor=#46495D;startSize=23;labelBackgroundColor=none;" parent="amjBT3HOfIgmp5ZAhak1-4" vertex="1">
          <mxGeometry x="30" width="150" height="30" as="geometry">
            <mxRectangle width="150" height="30" as="alternateBounds" />
          </mxGeometry>
        </mxCell>
        <mxCell id="amjBT3HOfIgmp5ZAhak1-10" value="" style="shape=tableRow;horizontal=0;startSize=0;swimlaneHead=0;swimlaneBody=0;fillColor=none;collapsible=0;dropTarget=0;points=[[0,0.5],[1,0.5]];portConstraint=eastwest;top=0;left=0;right=0;bottom=0;strokeColor=#788AA3;fontFamily=Helvetica;fontSize=12;fontColor=#46495D;html=1;labelBackgroundColor=none;" parent="amjBT3HOfIgmp5ZAhak1-3" vertex="1">
          <mxGeometry y="60" width="180" height="30" as="geometry" />
        </mxCell>
        <mxCell id="amjBT3HOfIgmp5ZAhak1-11" value="" style="shape=partialRectangle;connectable=0;fillColor=none;top=0;left=0;bottom=0;right=0;editable=1;overflow=hidden;whiteSpace=wrap;html=1;strokeColor=#788AA3;fontFamily=Helvetica;fontSize=12;fontColor=#46495D;startSize=23;labelBackgroundColor=none;" parent="amjBT3HOfIgmp5ZAhak1-10" vertex="1">
          <mxGeometry width="30" height="30" as="geometry">
            <mxRectangle width="30" height="30" as="alternateBounds" />
          </mxGeometry>
        </mxCell>
        <mxCell id="amjBT3HOfIgmp5ZAhak1-12" value="name" style="shape=partialRectangle;connectable=0;fillColor=none;top=0;left=0;bottom=0;right=0;align=left;spacingLeft=6;overflow=hidden;whiteSpace=wrap;html=1;strokeColor=#788AA3;fontFamily=Helvetica;fontSize=12;fontColor=#46495D;startSize=23;labelBackgroundColor=none;" parent="amjBT3HOfIgmp5ZAhak1-10" vertex="1">
          <mxGeometry x="30" width="150" height="30" as="geometry">
            <mxRectangle width="150" height="30" as="alternateBounds" />
          </mxGeometry>
        </mxCell>
        <mxCell id="GH-rgcXHdw-grydiUsWg-27" value="" style="shape=tableRow;horizontal=0;startSize=0;swimlaneHead=0;swimlaneBody=0;fillColor=none;collapsible=0;dropTarget=0;points=[[0,0.5],[1,0.5]];portConstraint=eastwest;top=0;left=0;right=0;bottom=0;strokeColor=#788AA3;fontFamily=Helvetica;fontSize=12;fontColor=#46495D;html=1;labelBackgroundColor=none;" vertex="1" parent="amjBT3HOfIgmp5ZAhak1-3">
          <mxGeometry y="90" width="180" height="30" as="geometry" />
        </mxCell>
        <mxCell id="GH-rgcXHdw-grydiUsWg-28" value="" style="shape=partialRectangle;connectable=0;fillColor=none;top=0;left=0;bottom=0;right=0;editable=1;overflow=hidden;whiteSpace=wrap;html=1;strokeColor=#788AA3;fontFamily=Helvetica;fontSize=12;fontColor=#46495D;startSize=23;labelBackgroundColor=none;" vertex="1" parent="GH-rgcXHdw-grydiUsWg-27">
          <mxGeometry width="30" height="30" as="geometry">
            <mxRectangle width="30" height="30" as="alternateBounds" />
          </mxGeometry>
        </mxCell>
        <mxCell id="GH-rgcXHdw-grydiUsWg-29" value="taggings_count" style="shape=partialRectangle;connectable=0;fillColor=none;top=0;left=0;bottom=0;right=0;align=left;spacingLeft=6;overflow=hidden;whiteSpace=wrap;html=1;strokeColor=#788AA3;fontFamily=Helvetica;fontSize=12;fontColor=#46495D;startSize=23;labelBackgroundColor=none;" vertex="1" parent="GH-rgcXHdw-grydiUsWg-27">
          <mxGeometry x="30" width="150" height="30" as="geometry">
            <mxRectangle width="150" height="30" as="alternateBounds" />
          </mxGeometry>
        </mxCell>
        <mxCell id="amjBT3HOfIgmp5ZAhak1-16" value="" style="shape=tableRow;horizontal=0;startSize=0;swimlaneHead=0;swimlaneBody=0;fillColor=none;collapsible=0;dropTarget=0;points=[[0,0.5],[1,0.5]];portConstraint=eastwest;top=0;left=0;right=0;bottom=0;strokeColor=#788AA3;fontFamily=Helvetica;fontSize=12;fontColor=#46495D;html=1;labelBackgroundColor=none;" parent="amjBT3HOfIgmp5ZAhak1-3" vertex="1">
          <mxGeometry y="120" width="180" height="30" as="geometry" />
        </mxCell>
        <mxCell id="amjBT3HOfIgmp5ZAhak1-17" value="" style="shape=partialRectangle;connectable=0;fillColor=none;top=0;left=0;bottom=0;right=0;editable=1;overflow=hidden;whiteSpace=wrap;html=1;strokeColor=#788AA3;fontFamily=Helvetica;fontSize=12;fontColor=#46495D;startSize=23;labelBackgroundColor=none;" parent="amjBT3HOfIgmp5ZAhak1-16" vertex="1">
          <mxGeometry width="30" height="30" as="geometry">
            <mxRectangle width="30" height="30" as="alternateBounds" />
          </mxGeometry>
        </mxCell>
        <mxCell id="amjBT3HOfIgmp5ZAhak1-18" value="created_at" style="shape=partialRectangle;connectable=0;fillColor=none;top=0;left=0;bottom=0;right=0;align=left;spacingLeft=6;overflow=hidden;whiteSpace=wrap;html=1;strokeColor=#788AA3;fontFamily=Helvetica;fontSize=12;fontColor=#46495D;startSize=23;labelBackgroundColor=none;" parent="amjBT3HOfIgmp5ZAhak1-16" vertex="1">
          <mxGeometry x="30" width="150" height="30" as="geometry">
            <mxRectangle width="150" height="30" as="alternateBounds" />
          </mxGeometry>
        </mxCell>
        <mxCell id="amjBT3HOfIgmp5ZAhak1-19" value="" style="shape=tableRow;horizontal=0;startSize=0;swimlaneHead=0;swimlaneBody=0;fillColor=none;collapsible=0;dropTarget=0;points=[[0,0.5],[1,0.5]];portConstraint=eastwest;top=0;left=0;right=0;bottom=0;strokeColor=#788AA3;fontFamily=Helvetica;fontSize=12;fontColor=#46495D;html=1;labelBackgroundColor=none;" parent="amjBT3HOfIgmp5ZAhak1-3" vertex="1">
          <mxGeometry y="150" width="180" height="30" as="geometry" />
        </mxCell>
        <mxCell id="amjBT3HOfIgmp5ZAhak1-20" value="" style="shape=partialRectangle;connectable=0;fillColor=none;top=0;left=0;bottom=0;right=0;editable=1;overflow=hidden;whiteSpace=wrap;html=1;strokeColor=#788AA3;fontFamily=Helvetica;fontSize=12;fontColor=#46495D;startSize=23;labelBackgroundColor=none;" parent="amjBT3HOfIgmp5ZAhak1-19" vertex="1">
          <mxGeometry width="30" height="30" as="geometry">
            <mxRectangle width="30" height="30" as="alternateBounds" />
          </mxGeometry>
        </mxCell>
        <mxCell id="amjBT3HOfIgmp5ZAhak1-21" value="updated_at" style="shape=partialRectangle;connectable=0;fillColor=none;top=0;left=0;bottom=0;right=0;align=left;spacingLeft=6;overflow=hidden;whiteSpace=wrap;html=1;strokeColor=#788AA3;fontFamily=Helvetica;fontSize=12;fontColor=#46495D;startSize=23;labelBackgroundColor=none;" parent="amjBT3HOfIgmp5ZAhak1-19" vertex="1">
          <mxGeometry x="30" width="150" height="30" as="geometry">
            <mxRectangle width="150" height="30" as="alternateBounds" />
          </mxGeometry>
        </mxCell>
        <mxCell id="amjBT3HOfIgmp5ZAhak1-54" value="Taggings" style="shape=table;startSize=30;container=1;collapsible=1;childLayout=tableLayout;fixedRows=1;rowLines=0;fontStyle=1;align=center;resizeLast=1;html=1;strokeColor=#b85450;fontFamily=Helvetica;fontSize=12;fillColor=#f8cecc;labelBackgroundColor=none;" parent="WIyWlLk6GJQsqaUBKTNV-1" vertex="1">
          <mxGeometry x="194" y="620" width="180" height="300" as="geometry" />
        </mxCell>
        <mxCell id="amjBT3HOfIgmp5ZAhak1-55" value="" style="shape=tableRow;horizontal=0;startSize=0;swimlaneHead=0;swimlaneBody=0;fillColor=none;collapsible=0;dropTarget=0;points=[[0,0.5],[1,0.5]];portConstraint=eastwest;top=0;left=0;right=0;bottom=1;strokeColor=#788AA3;fontFamily=Helvetica;fontSize=12;fontColor=#46495D;html=1;labelBackgroundColor=none;" parent="amjBT3HOfIgmp5ZAhak1-54" vertex="1">
          <mxGeometry y="30" width="180" height="30" as="geometry" />
        </mxCell>
        <mxCell id="amjBT3HOfIgmp5ZAhak1-56" value="PK" style="shape=partialRectangle;connectable=0;fillColor=none;top=0;left=0;bottom=0;right=0;fontStyle=1;overflow=hidden;whiteSpace=wrap;html=1;strokeColor=#788AA3;fontFamily=Helvetica;fontSize=12;fontColor=#46495D;startSize=23;labelBackgroundColor=none;" parent="amjBT3HOfIgmp5ZAhak1-55" vertex="1">
          <mxGeometry width="25.999999999999545" height="30" as="geometry">
            <mxRectangle width="25.999999999999545" height="30" as="alternateBounds" />
          </mxGeometry>
        </mxCell>
        <mxCell id="amjBT3HOfIgmp5ZAhak1-57" value="post_tag_id" style="shape=partialRectangle;connectable=0;fillColor=none;top=0;left=0;bottom=0;right=0;align=left;spacingLeft=6;fontStyle=5;overflow=hidden;whiteSpace=wrap;html=1;strokeColor=#788AA3;fontFamily=Helvetica;fontSize=12;fontColor=#46495D;startSize=23;labelBackgroundColor=none;" parent="amjBT3HOfIgmp5ZAhak1-55" vertex="1">
          <mxGeometry x="25.999999999999545" width="154.00000000000045" height="30" as="geometry">
            <mxRectangle width="154.00000000000045" height="30" as="alternateBounds" />
          </mxGeometry>
        </mxCell>
        <mxCell id="amjBT3HOfIgmp5ZAhak1-61" value="" style="shape=tableRow;horizontal=0;startSize=0;swimlaneHead=0;swimlaneBody=0;fillColor=none;collapsible=0;dropTarget=0;points=[[0,0.5],[1,0.5]];portConstraint=eastwest;top=0;left=0;right=0;bottom=1;strokeColor=#788AA3;fontFamily=Helvetica;fontSize=12;fontColor=#46495D;html=1;labelBackgroundColor=none;" parent="amjBT3HOfIgmp5ZAhak1-54" vertex="1">
          <mxGeometry y="60" width="180" height="30" as="geometry" />
        </mxCell>
        <mxCell id="amjBT3HOfIgmp5ZAhak1-62" value="FK" style="shape=partialRectangle;connectable=0;fillColor=none;top=0;left=0;bottom=0;right=0;fontStyle=1;overflow=hidden;whiteSpace=wrap;html=1;strokeColor=#788AA3;fontFamily=Helvetica;fontSize=12;fontColor=#46495D;startSize=23;labelBackgroundColor=none;" parent="amjBT3HOfIgmp5ZAhak1-61" vertex="1">
          <mxGeometry width="25.999999999999545" height="30" as="geometry">
            <mxRectangle width="25.999999999999545" height="30" as="alternateBounds" />
          </mxGeometry>
        </mxCell>
        <mxCell id="amjBT3HOfIgmp5ZAhak1-63" value="tag_id" style="shape=partialRectangle;connectable=0;fillColor=none;top=0;left=0;bottom=0;right=0;align=left;spacingLeft=6;fontStyle=5;overflow=hidden;whiteSpace=wrap;html=1;strokeColor=#788AA3;fontFamily=Helvetica;fontSize=12;fontColor=#46495D;startSize=23;labelBackgroundColor=none;" parent="amjBT3HOfIgmp5ZAhak1-61" vertex="1">
          <mxGeometry x="25.999999999999545" width="154.00000000000045" height="30" as="geometry">
            <mxRectangle width="154.00000000000045" height="30" as="alternateBounds" />
          </mxGeometry>
        </mxCell>
        <mxCell id="amjBT3HOfIgmp5ZAhak1-67" value="" style="shape=tableRow;horizontal=0;startSize=0;swimlaneHead=0;swimlaneBody=0;fillColor=none;collapsible=0;dropTarget=0;points=[[0,0.5],[1,0.5]];portConstraint=eastwest;top=0;left=0;right=0;bottom=0;strokeColor=#788AA3;fontFamily=Helvetica;fontSize=12;fontColor=#46495D;html=1;labelBackgroundColor=none;" parent="amjBT3HOfIgmp5ZAhak1-54" vertex="1">
          <mxGeometry y="90" width="180" height="30" as="geometry" />
        </mxCell>
        <mxCell id="amjBT3HOfIgmp5ZAhak1-68" value="" style="shape=partialRectangle;connectable=0;fillColor=none;top=0;left=0;bottom=0;right=0;editable=1;overflow=hidden;whiteSpace=wrap;html=1;strokeColor=#788AA3;fontFamily=Helvetica;fontSize=12;fontColor=#46495D;startSize=23;labelBackgroundColor=none;" parent="amjBT3HOfIgmp5ZAhak1-67" vertex="1">
          <mxGeometry width="25.999999999999545" height="30" as="geometry">
            <mxRectangle width="25.999999999999545" height="30" as="alternateBounds" />
          </mxGeometry>
        </mxCell>
        <mxCell id="amjBT3HOfIgmp5ZAhak1-69" value="taggable_type" style="shape=partialRectangle;connectable=0;fillColor=none;top=0;left=0;bottom=0;right=0;align=left;spacingLeft=6;overflow=hidden;whiteSpace=wrap;html=1;strokeColor=#788AA3;fontFamily=Helvetica;fontSize=12;fontColor=#46495D;startSize=23;labelBackgroundColor=none;" parent="amjBT3HOfIgmp5ZAhak1-67" vertex="1">
          <mxGeometry x="25.999999999999545" width="154.00000000000045" height="30" as="geometry">
            <mxRectangle width="154.00000000000045" height="30" as="alternateBounds" />
          </mxGeometry>
        </mxCell>
        <mxCell id="GH-rgcXHdw-grydiUsWg-122" value="" style="shape=tableRow;horizontal=0;startSize=0;swimlaneHead=0;swimlaneBody=0;fillColor=none;collapsible=0;dropTarget=0;points=[[0,0.5],[1,0.5]];portConstraint=eastwest;top=0;left=0;right=0;bottom=0;strokeColor=#788AA3;fontFamily=Helvetica;fontSize=12;fontColor=#46495D;html=1;labelBackgroundColor=none;" vertex="1" parent="amjBT3HOfIgmp5ZAhak1-54">
          <mxGeometry y="120" width="180" height="30" as="geometry" />
        </mxCell>
        <mxCell id="GH-rgcXHdw-grydiUsWg-123" value="" style="shape=partialRectangle;connectable=0;fillColor=none;top=0;left=0;bottom=0;right=0;editable=1;overflow=hidden;whiteSpace=wrap;html=1;strokeColor=#788AA3;fontFamily=Helvetica;fontSize=12;fontColor=#46495D;startSize=23;labelBackgroundColor=none;" vertex="1" parent="GH-rgcXHdw-grydiUsWg-122">
          <mxGeometry width="25.999999999999545" height="30" as="geometry">
            <mxRectangle width="25.999999999999545" height="30" as="alternateBounds" />
          </mxGeometry>
        </mxCell>
        <mxCell id="GH-rgcXHdw-grydiUsWg-124" value="taggable_id" style="shape=partialRectangle;connectable=0;fillColor=none;top=0;left=0;bottom=0;right=0;align=left;spacingLeft=6;overflow=hidden;whiteSpace=wrap;html=1;strokeColor=#788AA3;fontFamily=Helvetica;fontSize=12;fontColor=#46495D;startSize=23;labelBackgroundColor=none;" vertex="1" parent="GH-rgcXHdw-grydiUsWg-122">
          <mxGeometry x="25.999999999999545" width="154.00000000000045" height="30" as="geometry">
            <mxRectangle width="154.00000000000045" height="30" as="alternateBounds" />
          </mxGeometry>
        </mxCell>
        <mxCell id="GH-rgcXHdw-grydiUsWg-119" value="" style="shape=tableRow;horizontal=0;startSize=0;swimlaneHead=0;swimlaneBody=0;fillColor=none;collapsible=0;dropTarget=0;points=[[0,0.5],[1,0.5]];portConstraint=eastwest;top=0;left=0;right=0;bottom=0;strokeColor=#788AA3;fontFamily=Helvetica;fontSize=12;fontColor=#46495D;html=1;labelBackgroundColor=none;" vertex="1" parent="amjBT3HOfIgmp5ZAhak1-54">
          <mxGeometry y="150" width="180" height="30" as="geometry" />
        </mxCell>
        <mxCell id="GH-rgcXHdw-grydiUsWg-120" value="" style="shape=partialRectangle;connectable=0;fillColor=none;top=0;left=0;bottom=0;right=0;editable=1;overflow=hidden;whiteSpace=wrap;html=1;strokeColor=#788AA3;fontFamily=Helvetica;fontSize=12;fontColor=#46495D;startSize=23;labelBackgroundColor=none;" vertex="1" parent="GH-rgcXHdw-grydiUsWg-119">
          <mxGeometry width="25.999999999999545" height="30" as="geometry">
            <mxRectangle width="25.999999999999545" height="30" as="alternateBounds" />
          </mxGeometry>
        </mxCell>
        <mxCell id="GH-rgcXHdw-grydiUsWg-121" value="tagger_type" style="shape=partialRectangle;connectable=0;fillColor=none;top=0;left=0;bottom=0;right=0;align=left;spacingLeft=6;overflow=hidden;whiteSpace=wrap;html=1;strokeColor=#788AA3;fontFamily=Helvetica;fontSize=12;fontColor=#46495D;startSize=23;labelBackgroundColor=none;" vertex="1" parent="GH-rgcXHdw-grydiUsWg-119">
          <mxGeometry x="25.999999999999545" width="154.00000000000045" height="30" as="geometry">
            <mxRectangle width="154.00000000000045" height="30" as="alternateBounds" />
          </mxGeometry>
        </mxCell>
        <mxCell id="GH-rgcXHdw-grydiUsWg-116" value="" style="shape=tableRow;horizontal=0;startSize=0;swimlaneHead=0;swimlaneBody=0;fillColor=none;collapsible=0;dropTarget=0;points=[[0,0.5],[1,0.5]];portConstraint=eastwest;top=0;left=0;right=0;bottom=0;strokeColor=#788AA3;fontFamily=Helvetica;fontSize=12;fontColor=#46495D;html=1;labelBackgroundColor=none;" vertex="1" parent="amjBT3HOfIgmp5ZAhak1-54">
          <mxGeometry y="180" width="180" height="30" as="geometry" />
        </mxCell>
        <mxCell id="GH-rgcXHdw-grydiUsWg-117" value="" style="shape=partialRectangle;connectable=0;fillColor=none;top=0;left=0;bottom=0;right=0;editable=1;overflow=hidden;whiteSpace=wrap;html=1;strokeColor=#788AA3;fontFamily=Helvetica;fontSize=12;fontColor=#46495D;startSize=23;labelBackgroundColor=none;" vertex="1" parent="GH-rgcXHdw-grydiUsWg-116">
          <mxGeometry width="25.999999999999545" height="30" as="geometry">
            <mxRectangle width="25.999999999999545" height="30" as="alternateBounds" />
          </mxGeometry>
        </mxCell>
        <mxCell id="GH-rgcXHdw-grydiUsWg-118" value="tagger_id" style="shape=partialRectangle;connectable=0;fillColor=none;top=0;left=0;bottom=0;right=0;align=left;spacingLeft=6;overflow=hidden;whiteSpace=wrap;html=1;strokeColor=#788AA3;fontFamily=Helvetica;fontSize=12;fontColor=#46495D;startSize=23;labelBackgroundColor=none;" vertex="1" parent="GH-rgcXHdw-grydiUsWg-116">
          <mxGeometry x="25.999999999999545" width="154.00000000000045" height="30" as="geometry">
            <mxRectangle width="154.00000000000045" height="30" as="alternateBounds" />
          </mxGeometry>
        </mxCell>
        <mxCell id="GH-rgcXHdw-grydiUsWg-125" value="" style="shape=tableRow;horizontal=0;startSize=0;swimlaneHead=0;swimlaneBody=0;fillColor=none;collapsible=0;dropTarget=0;points=[[0,0.5],[1,0.5]];portConstraint=eastwest;top=0;left=0;right=0;bottom=0;strokeColor=#788AA3;fontFamily=Helvetica;fontSize=12;fontColor=#46495D;html=1;labelBackgroundColor=none;" vertex="1" parent="amjBT3HOfIgmp5ZAhak1-54">
          <mxGeometry y="210" width="180" height="30" as="geometry" />
        </mxCell>
        <mxCell id="GH-rgcXHdw-grydiUsWg-126" value="" style="shape=partialRectangle;connectable=0;fillColor=none;top=0;left=0;bottom=0;right=0;editable=1;overflow=hidden;whiteSpace=wrap;html=1;strokeColor=#788AA3;fontFamily=Helvetica;fontSize=12;fontColor=#46495D;startSize=23;labelBackgroundColor=none;" vertex="1" parent="GH-rgcXHdw-grydiUsWg-125">
          <mxGeometry width="25.999999999999545" height="30" as="geometry">
            <mxRectangle width="25.999999999999545" height="30" as="alternateBounds" />
          </mxGeometry>
        </mxCell>
        <mxCell id="GH-rgcXHdw-grydiUsWg-127" value="context" style="shape=partialRectangle;connectable=0;fillColor=none;top=0;left=0;bottom=0;right=0;align=left;spacingLeft=6;overflow=hidden;whiteSpace=wrap;html=1;strokeColor=#788AA3;fontFamily=Helvetica;fontSize=12;fontColor=#46495D;startSize=23;labelBackgroundColor=none;" vertex="1" parent="GH-rgcXHdw-grydiUsWg-125">
          <mxGeometry x="25.999999999999545" width="154.00000000000045" height="30" as="geometry">
            <mxRectangle width="154.00000000000045" height="30" as="alternateBounds" />
          </mxGeometry>
        </mxCell>
        <mxCell id="GH-rgcXHdw-grydiUsWg-113" value="" style="shape=tableRow;horizontal=0;startSize=0;swimlaneHead=0;swimlaneBody=0;fillColor=none;collapsible=0;dropTarget=0;points=[[0,0.5],[1,0.5]];portConstraint=eastwest;top=0;left=0;right=0;bottom=0;strokeColor=#788AA3;fontFamily=Helvetica;fontSize=12;fontColor=#46495D;html=1;labelBackgroundColor=none;" vertex="1" parent="amjBT3HOfIgmp5ZAhak1-54">
          <mxGeometry y="240" width="180" height="30" as="geometry" />
        </mxCell>
        <mxCell id="GH-rgcXHdw-grydiUsWg-114" value="" style="shape=partialRectangle;connectable=0;fillColor=none;top=0;left=0;bottom=0;right=0;editable=1;overflow=hidden;whiteSpace=wrap;html=1;strokeColor=#788AA3;fontFamily=Helvetica;fontSize=12;fontColor=#46495D;startSize=23;labelBackgroundColor=none;" vertex="1" parent="GH-rgcXHdw-grydiUsWg-113">
          <mxGeometry width="25.999999999999545" height="30" as="geometry">
            <mxRectangle width="25.999999999999545" height="30" as="alternateBounds" />
          </mxGeometry>
        </mxCell>
        <mxCell id="GH-rgcXHdw-grydiUsWg-115" value="tenant" style="shape=partialRectangle;connectable=0;fillColor=none;top=0;left=0;bottom=0;right=0;align=left;spacingLeft=6;overflow=hidden;whiteSpace=wrap;html=1;strokeColor=#788AA3;fontFamily=Helvetica;fontSize=12;fontColor=#46495D;startSize=23;labelBackgroundColor=none;" vertex="1" parent="GH-rgcXHdw-grydiUsWg-113">
          <mxGeometry x="25.999999999999545" width="154.00000000000045" height="30" as="geometry">
            <mxRectangle width="154.00000000000045" height="30" as="alternateBounds" />
          </mxGeometry>
        </mxCell>
        <mxCell id="amjBT3HOfIgmp5ZAhak1-70" value="" style="shape=tableRow;horizontal=0;startSize=0;swimlaneHead=0;swimlaneBody=0;fillColor=none;collapsible=0;dropTarget=0;points=[[0,0.5],[1,0.5]];portConstraint=eastwest;top=0;left=0;right=0;bottom=0;strokeColor=#788AA3;fontFamily=Helvetica;fontSize=12;fontColor=#46495D;html=1;labelBackgroundColor=none;" parent="amjBT3HOfIgmp5ZAhak1-54" vertex="1">
          <mxGeometry y="270" width="180" height="30" as="geometry" />
        </mxCell>
        <mxCell id="amjBT3HOfIgmp5ZAhak1-71" value="" style="shape=partialRectangle;connectable=0;fillColor=none;top=0;left=0;bottom=0;right=0;editable=1;overflow=hidden;whiteSpace=wrap;html=1;strokeColor=#788AA3;fontFamily=Helvetica;fontSize=12;fontColor=#46495D;startSize=23;labelBackgroundColor=none;" parent="amjBT3HOfIgmp5ZAhak1-70" vertex="1">
          <mxGeometry width="25.999999999999545" height="30" as="geometry">
            <mxRectangle width="25.999999999999545" height="30" as="alternateBounds" />
          </mxGeometry>
        </mxCell>
        <mxCell id="amjBT3HOfIgmp5ZAhak1-72" value="created_at" style="shape=partialRectangle;connectable=0;fillColor=none;top=0;left=0;bottom=0;right=0;align=left;spacingLeft=6;overflow=hidden;whiteSpace=wrap;html=1;strokeColor=#788AA3;fontFamily=Helvetica;fontSize=12;fontColor=#46495D;startSize=23;labelBackgroundColor=none;" parent="amjBT3HOfIgmp5ZAhak1-70" vertex="1">
          <mxGeometry x="25.999999999999545" width="154.00000000000045" height="30" as="geometry">
            <mxRectangle width="154.00000000000045" height="30" as="alternateBounds" />
          </mxGeometry>
        </mxCell>
        <mxCell id="amjBT3HOfIgmp5ZAhak1-75" value="" style="edgeStyle=elbowEdgeStyle;fontSize=12;html=1;endArrow=ERzeroToMany;endFill=1;fontFamily=Helvetica;fontColor=default;startSize=8;entryX=1;entryY=0.5;entryDx=0;entryDy=0;rounded=1;startArrow=ERone;startFill=0;endSize=9;labelBackgroundColor=none;strokeColor=#788AA3;exitX=-0.003;exitY=0.686;exitDx=0;exitDy=0;exitPerimeter=0;" parent="WIyWlLk6GJQsqaUBKTNV-1" source="TtT6zjxbn2nU0OrpLk1x-474" target="GH-rgcXHdw-grydiUsWg-119" edge="1">
          <mxGeometry width="100" height="100" relative="1" as="geometry">
            <mxPoint x="710" y="860" as="sourcePoint" />
            <mxPoint x="374.00000000000045" y="695" as="targetPoint" />
          </mxGeometry>
        </mxCell>
        <mxCell id="amjBT3HOfIgmp5ZAhak1-76" value="" style="edgeStyle=elbowEdgeStyle;fontSize=12;html=1;endArrow=ERzeroToMany;endFill=1;fontFamily=Helvetica;fontColor=default;startSize=8;entryX=0;entryY=0.5;entryDx=0;entryDy=0;rounded=1;startArrow=ERone;startFill=0;endSize=9;labelBackgroundColor=none;strokeColor=#788AA3;exitX=1;exitY=0.5;exitDx=0;exitDy=0;" parent="WIyWlLk6GJQsqaUBKTNV-1" source="amjBT3HOfIgmp5ZAhak1-4" target="amjBT3HOfIgmp5ZAhak1-61" edge="1">
          <mxGeometry width="100" height="100" relative="1" as="geometry">
            <mxPoint x="144" y="800" as="sourcePoint" />
            <mxPoint x="54" y="830" as="targetPoint" />
          </mxGeometry>
        </mxCell>
        <mxCell id="amjBT3HOfIgmp5ZAhak1-81" value="" style="edgeStyle=elbowEdgeStyle;fontSize=12;html=1;endArrow=ERzeroToMany;endFill=1;fontFamily=Helvetica;fontColor=default;startSize=8;rounded=1;startArrow=ERone;startFill=0;endSize=9;labelBackgroundColor=none;strokeColor=#788AA3;entryX=1;entryY=0.5;entryDx=0;entryDy=0;exitX=0;exitY=0.5;exitDx=0;exitDy=0;" parent="WIyWlLk6GJQsqaUBKTNV-1" source="TtT6zjxbn2nU0OrpLk1x-129" target="AqgVQKVdH_DSCZpF_KZi-165" edge="1">
          <mxGeometry width="100" height="100" relative="1" as="geometry">
            <mxPoint x="1040.0000000000005" y="695" as="sourcePoint" />
            <mxPoint x="880" y="1180" as="targetPoint" />
            <Array as="points">
              <mxPoint x="1010" y="920" />
            </Array>
          </mxGeometry>
        </mxCell>
        <mxCell id="amjBT3HOfIgmp5ZAhak1-82" value="" style="edgeStyle=elbowEdgeStyle;fontSize=12;html=1;endArrow=ERzeroToMany;endFill=1;fontFamily=Helvetica;fontColor=default;startSize=8;rounded=1;startArrow=ERone;startFill=0;endSize=9;labelBackgroundColor=none;strokeColor=#788AA3;" parent="WIyWlLk6GJQsqaUBKTNV-1" edge="1" target="AqgVQKVdH_DSCZpF_KZi-148">
          <mxGeometry width="100" height="100" relative="1" as="geometry">
            <mxPoint x="710" y="650" as="sourcePoint" />
            <mxPoint x="520" y="435" as="targetPoint" />
            <Array as="points">
              <mxPoint x="600" y="560" />
            </Array>
          </mxGeometry>
        </mxCell>
        <mxCell id="amjBT3HOfIgmp5ZAhak1-84" value="" style="edgeStyle=elbowEdgeStyle;fontSize=12;html=1;endArrow=ERzeroToMany;endFill=1;fontFamily=Helvetica;fontColor=default;startSize=8;rounded=1;startArrow=ERone;startFill=0;endSize=9;labelBackgroundColor=none;strokeColor=#788AA3;entryX=1;entryY=0.5;entryDx=0;entryDy=0;exitX=0;exitY=0.5;exitDx=0;exitDy=0;" parent="WIyWlLk6GJQsqaUBKTNV-1" source="AqgVQKVdH_DSCZpF_KZi-183" target="AqgVQKVdH_DSCZpF_KZi-333" edge="1">
          <mxGeometry width="100" height="100" relative="1" as="geometry">
            <mxPoint x="1270" y="350" as="sourcePoint" />
            <mxPoint x="1524" y="120" as="targetPoint" />
            <Array as="points">
              <mxPoint x="1330" y="320" />
            </Array>
          </mxGeometry>
        </mxCell>
        <mxCell id="amjBT3HOfIgmp5ZAhak1-85" value="" style="edgeStyle=elbowEdgeStyle;fontSize=12;html=1;endArrow=ERzeroToMany;endFill=1;fontFamily=Helvetica;fontColor=default;startSize=8;rounded=1;entryX=0;entryY=0.5;entryDx=0;entryDy=0;startArrow=ERone;startFill=0;endSize=9;labelBackgroundColor=none;strokeColor=#788AA3;exitX=1;exitY=0.5;exitDx=0;exitDy=0;" parent="WIyWlLk6GJQsqaUBKTNV-1" source="AqgVQKVdH_DSCZpF_KZi-142" target="AqgVQKVdH_DSCZpF_KZi-357" edge="1">
          <mxGeometry width="100" height="100" relative="1" as="geometry">
            <mxPoint x="990" y="470" as="sourcePoint" />
            <mxPoint x="470" y="180" as="targetPoint" />
            <Array as="points">
              <mxPoint x="680" y="5" />
            </Array>
          </mxGeometry>
        </mxCell>
        <mxCell id="amjBT3HOfIgmp5ZAhak1-86" value="" style="edgeStyle=elbowEdgeStyle;fontSize=12;html=1;endArrow=ERzeroToMany;endFill=1;fontFamily=Helvetica;fontColor=default;startSize=8;rounded=1;startArrow=ERone;startFill=0;endSize=9;labelBackgroundColor=none;strokeColor=#788AA3;exitX=1;exitY=0.5;exitDx=0;exitDy=0;entryX=1;entryY=0.5;entryDx=0;entryDy=0;" parent="WIyWlLk6GJQsqaUBKTNV-1" source="TtT6zjxbn2nU0OrpLk1x-123" target="AqgVQKVdH_DSCZpF_KZi-330" edge="1">
          <mxGeometry width="100" height="100" relative="1" as="geometry">
            <mxPoint x="413.5" y="200" as="sourcePoint" />
            <mxPoint x="934" y="60" as="targetPoint" />
            <Array as="points">
              <mxPoint x="1270" y="410" />
            </Array>
          </mxGeometry>
        </mxCell>
        <mxCell id="amjBT3HOfIgmp5ZAhak1-87" value="" style="edgeStyle=elbowEdgeStyle;fontSize=12;html=1;endArrow=ERzeroToMany;endFill=1;fontFamily=Helvetica;fontColor=default;startSize=8;rounded=1;startArrow=ERone;startFill=0;endSize=9;labelBackgroundColor=none;strokeColor=#788AA3;entryX=0;entryY=0.5;entryDx=0;entryDy=0;exitX=0.5;exitY=0;exitDx=0;exitDy=0;" parent="WIyWlLk6GJQsqaUBKTNV-1" source="TtT6zjxbn2nU0OrpLk1x-473" target="ygLPfD_EKUeMDjVUtWBq-0" edge="1">
          <mxGeometry width="100" height="100" relative="1" as="geometry">
            <mxPoint x="810" y="600" as="sourcePoint" />
            <mxPoint x="690" y="140" as="targetPoint" />
            <Array as="points">
              <mxPoint x="800" y="410" />
            </Array>
          </mxGeometry>
        </mxCell>
        <mxCell id="amjBT3HOfIgmp5ZAhak1-88" value="" style="edgeStyle=elbowEdgeStyle;fontSize=12;html=1;endArrow=ERzeroToMany;endFill=1;fontFamily=Helvetica;fontColor=default;startSize=8;rounded=1;startArrow=ERone;startFill=0;endSize=9;labelBackgroundColor=none;strokeColor=#788AA3;entryX=0;entryY=0.5;entryDx=0;entryDy=0;exitX=1;exitY=0.5;exitDx=0;exitDy=0;" parent="WIyWlLk6GJQsqaUBKTNV-1" source="AqgVQKVdH_DSCZpF_KZi-162" target="AqgVQKVdH_DSCZpF_KZi-354" edge="1">
          <mxGeometry width="100" height="100" relative="1" as="geometry">
            <mxPoint x="860" y="695" as="sourcePoint" />
            <mxPoint x="1100" y="240" as="targetPoint" />
            <Array as="points">
              <mxPoint x="980" y="590" />
            </Array>
          </mxGeometry>
        </mxCell>
        <mxCell id="amjBT3HOfIgmp5ZAhak1-89" value="Reports（通報）" style="shape=table;startSize=30;container=1;collapsible=1;childLayout=tableLayout;fixedRows=1;rowLines=0;fontStyle=1;align=center;resizeLast=1;html=1;strokeColor=#432D57;fontFamily=Helvetica;fontSize=12;fillColor=#1A1A1A;labelBackgroundColor=none;fontColor=#ffffff;" parent="WIyWlLk6GJQsqaUBKTNV-1" vertex="1">
          <mxGeometry x="1370" y="710" width="180" height="270.0000000000002" as="geometry" />
        </mxCell>
        <mxCell id="amjBT3HOfIgmp5ZAhak1-90" value="" style="shape=tableRow;horizontal=0;startSize=0;swimlaneHead=0;swimlaneBody=0;fillColor=none;collapsible=0;dropTarget=0;points=[[0,0.5],[1,0.5]];portConstraint=eastwest;top=0;left=0;right=0;bottom=1;strokeColor=#788AA3;fontFamily=Helvetica;fontSize=12;fontColor=#46495D;html=1;labelBackgroundColor=none;" parent="amjBT3HOfIgmp5ZAhak1-89" vertex="1">
          <mxGeometry y="30" width="180" height="30" as="geometry" />
        </mxCell>
        <mxCell id="amjBT3HOfIgmp5ZAhak1-91" value="PK" style="shape=partialRectangle;connectable=0;fillColor=none;top=0;left=0;bottom=0;right=0;fontStyle=1;overflow=hidden;whiteSpace=wrap;html=1;strokeColor=#788AA3;fontFamily=Helvetica;fontSize=12;fontColor=#46495D;startSize=23;labelBackgroundColor=none;" parent="amjBT3HOfIgmp5ZAhak1-90" vertex="1">
          <mxGeometry width="30" height="30" as="geometry">
            <mxRectangle width="30" height="30" as="alternateBounds" />
          </mxGeometry>
        </mxCell>
        <mxCell id="amjBT3HOfIgmp5ZAhak1-92" value="report_id" style="shape=partialRectangle;connectable=0;fillColor=none;top=0;left=0;bottom=0;right=0;align=left;spacingLeft=6;fontStyle=5;overflow=hidden;whiteSpace=wrap;html=1;strokeColor=#788AA3;fontFamily=Helvetica;fontSize=12;fontColor=#46495D;startSize=23;labelBackgroundColor=none;" parent="amjBT3HOfIgmp5ZAhak1-90" vertex="1">
          <mxGeometry x="30" width="150" height="30" as="geometry">
            <mxRectangle width="150" height="30" as="alternateBounds" />
          </mxGeometry>
        </mxCell>
        <mxCell id="amjBT3HOfIgmp5ZAhak1-93" value="" style="shape=tableRow;horizontal=0;startSize=0;swimlaneHead=0;swimlaneBody=0;fillColor=none;collapsible=0;dropTarget=0;points=[[0,0.5],[1,0.5]];portConstraint=eastwest;top=0;left=0;right=0;bottom=0;strokeColor=#788AA3;fontFamily=Helvetica;fontSize=12;fontColor=#46495D;html=1;labelBackgroundColor=none;" parent="amjBT3HOfIgmp5ZAhak1-89" vertex="1">
          <mxGeometry y="60" width="180" height="30" as="geometry" />
        </mxCell>
        <mxCell id="amjBT3HOfIgmp5ZAhak1-94" value="&lt;b&gt;FK&lt;/b&gt;" style="shape=partialRectangle;connectable=0;fillColor=none;top=0;left=0;bottom=0;right=0;editable=1;overflow=hidden;whiteSpace=wrap;html=1;strokeColor=#788AA3;fontFamily=Helvetica;fontSize=12;fontColor=#46495D;startSize=23;labelBackgroundColor=none;" parent="amjBT3HOfIgmp5ZAhak1-93" vertex="1">
          <mxGeometry width="30" height="30" as="geometry">
            <mxRectangle width="30" height="30" as="alternateBounds" />
          </mxGeometry>
        </mxCell>
        <mxCell id="amjBT3HOfIgmp5ZAhak1-95" value="&lt;u&gt;&lt;b&gt;reporter_id&lt;/b&gt;&lt;/u&gt;" style="shape=partialRectangle;connectable=0;fillColor=none;top=0;left=0;bottom=0;right=0;align=left;spacingLeft=6;overflow=hidden;whiteSpace=wrap;html=1;strokeColor=#788AA3;fontFamily=Helvetica;fontSize=12;fontColor=#46495D;startSize=23;labelBackgroundColor=none;" parent="amjBT3HOfIgmp5ZAhak1-93" vertex="1">
          <mxGeometry x="30" width="150" height="30" as="geometry">
            <mxRectangle width="150" height="30" as="alternateBounds" />
          </mxGeometry>
        </mxCell>
        <mxCell id="amjBT3HOfIgmp5ZAhak1-96" value="" style="shape=tableRow;horizontal=0;startSize=0;swimlaneHead=0;swimlaneBody=0;fillColor=none;collapsible=0;dropTarget=0;points=[[0,0.5],[1,0.5]];portConstraint=eastwest;top=0;left=0;right=0;bottom=0;strokeColor=#788AA3;fontFamily=Helvetica;fontSize=12;fontColor=#46495D;html=1;labelBackgroundColor=none;" parent="amjBT3HOfIgmp5ZAhak1-89" vertex="1">
          <mxGeometry y="90" width="180" height="30" as="geometry" />
        </mxCell>
        <mxCell id="amjBT3HOfIgmp5ZAhak1-97" value="&lt;b&gt;FK&lt;/b&gt;" style="shape=partialRectangle;connectable=0;fillColor=none;top=0;left=0;bottom=0;right=0;editable=1;overflow=hidden;whiteSpace=wrap;html=1;strokeColor=#788AA3;fontFamily=Helvetica;fontSize=12;fontColor=#46495D;startSize=23;labelBackgroundColor=none;" parent="amjBT3HOfIgmp5ZAhak1-96" vertex="1">
          <mxGeometry width="30" height="30" as="geometry">
            <mxRectangle width="30" height="30" as="alternateBounds" />
          </mxGeometry>
        </mxCell>
        <mxCell id="amjBT3HOfIgmp5ZAhak1-98" value="&lt;u&gt;&lt;b&gt;reported_id&lt;/b&gt;&lt;/u&gt;" style="shape=partialRectangle;connectable=0;fillColor=none;top=0;left=0;bottom=0;right=0;align=left;spacingLeft=6;overflow=hidden;whiteSpace=wrap;html=1;strokeColor=#788AA3;fontFamily=Helvetica;fontSize=12;fontColor=#46495D;startSize=23;labelBackgroundColor=none;" parent="amjBT3HOfIgmp5ZAhak1-96" vertex="1">
          <mxGeometry x="30" width="150" height="30" as="geometry">
            <mxRectangle width="150" height="30" as="alternateBounds" />
          </mxGeometry>
        </mxCell>
        <mxCell id="amjBT3HOfIgmp5ZAhak1-105" value="" style="shape=tableRow;horizontal=0;startSize=0;swimlaneHead=0;swimlaneBody=0;fillColor=none;collapsible=0;dropTarget=0;points=[[0,0.5],[1,0.5]];portConstraint=eastwest;top=0;left=0;right=0;bottom=1;strokeColor=#788AA3;fontFamily=Helvetica;fontSize=12;fontColor=#46495D;html=1;labelBackgroundColor=none;" parent="amjBT3HOfIgmp5ZAhak1-89" vertex="1">
          <mxGeometry y="120" width="180" height="30" as="geometry" />
        </mxCell>
        <mxCell id="amjBT3HOfIgmp5ZAhak1-106" value="FK" style="shape=partialRectangle;connectable=0;fillColor=none;top=0;left=0;bottom=0;right=0;fontStyle=1;overflow=hidden;whiteSpace=wrap;html=1;strokeColor=#788AA3;fontFamily=Helvetica;fontSize=12;fontColor=#46495D;startSize=23;labelBackgroundColor=none;" parent="amjBT3HOfIgmp5ZAhak1-105" vertex="1">
          <mxGeometry width="30" height="30" as="geometry">
            <mxRectangle width="30" height="30" as="alternateBounds" />
          </mxGeometry>
        </mxCell>
        <mxCell id="amjBT3HOfIgmp5ZAhak1-107" value="content_id" style="shape=partialRectangle;connectable=0;fillColor=none;top=0;left=0;bottom=0;right=0;align=left;spacingLeft=6;fontStyle=5;overflow=hidden;whiteSpace=wrap;html=1;strokeColor=#788AA3;fontFamily=Helvetica;fontSize=12;fontColor=#46495D;startSize=23;labelBackgroundColor=none;" parent="amjBT3HOfIgmp5ZAhak1-105" vertex="1">
          <mxGeometry x="30" width="150" height="30" as="geometry">
            <mxRectangle width="150" height="30" as="alternateBounds" />
          </mxGeometry>
        </mxCell>
        <mxCell id="amjBT3HOfIgmp5ZAhak1-108" value="" style="shape=tableRow;horizontal=0;startSize=0;swimlaneHead=0;swimlaneBody=0;fillColor=none;collapsible=0;dropTarget=0;points=[[0,0.5],[1,0.5]];portConstraint=eastwest;top=0;left=0;right=0;bottom=0;strokeColor=#788AA3;fontFamily=Helvetica;fontSize=12;fontColor=#46495D;html=1;labelBackgroundColor=none;" parent="amjBT3HOfIgmp5ZAhak1-89" vertex="1">
          <mxGeometry y="150" width="180" height="30" as="geometry" />
        </mxCell>
        <mxCell id="amjBT3HOfIgmp5ZAhak1-109" value="" style="shape=partialRectangle;connectable=0;fillColor=none;top=0;left=0;bottom=0;right=0;editable=1;overflow=hidden;whiteSpace=wrap;html=1;strokeColor=#788AA3;fontFamily=Helvetica;fontSize=12;fontColor=#46495D;startSize=23;labelBackgroundColor=none;" parent="amjBT3HOfIgmp5ZAhak1-108" vertex="1">
          <mxGeometry width="30" height="30" as="geometry">
            <mxRectangle width="30" height="30" as="alternateBounds" />
          </mxGeometry>
        </mxCell>
        <mxCell id="amjBT3HOfIgmp5ZAhak1-110" value="content_type" style="shape=partialRectangle;connectable=0;fillColor=none;top=0;left=0;bottom=0;right=0;align=left;spacingLeft=6;overflow=hidden;whiteSpace=wrap;html=1;strokeColor=#788AA3;fontFamily=Helvetica;fontSize=12;fontColor=#46495D;startSize=23;labelBackgroundColor=none;" parent="amjBT3HOfIgmp5ZAhak1-108" vertex="1">
          <mxGeometry x="30" width="150" height="30" as="geometry">
            <mxRectangle width="150" height="30" as="alternateBounds" />
          </mxGeometry>
        </mxCell>
        <mxCell id="amjBT3HOfIgmp5ZAhak1-111" value="" style="shape=tableRow;horizontal=0;startSize=0;swimlaneHead=0;swimlaneBody=0;fillColor=none;collapsible=0;dropTarget=0;points=[[0,0.5],[1,0.5]];portConstraint=eastwest;top=0;left=0;right=0;bottom=0;strokeColor=#788AA3;fontFamily=Helvetica;fontSize=12;fontColor=#46495D;html=1;labelBackgroundColor=none;" parent="amjBT3HOfIgmp5ZAhak1-89" vertex="1">
          <mxGeometry y="180" width="180" height="30" as="geometry" />
        </mxCell>
        <mxCell id="amjBT3HOfIgmp5ZAhak1-112" value="" style="shape=partialRectangle;connectable=0;fillColor=none;top=0;left=0;bottom=0;right=0;editable=1;overflow=hidden;whiteSpace=wrap;html=1;strokeColor=#788AA3;fontFamily=Helvetica;fontSize=12;fontColor=#46495D;startSize=23;labelBackgroundColor=none;" parent="amjBT3HOfIgmp5ZAhak1-111" vertex="1">
          <mxGeometry width="30" height="30" as="geometry">
            <mxRectangle width="30" height="30" as="alternateBounds" />
          </mxGeometry>
        </mxCell>
        <mxCell id="amjBT3HOfIgmp5ZAhak1-113" value="reason" style="shape=partialRectangle;connectable=0;fillColor=none;top=0;left=0;bottom=0;right=0;align=left;spacingLeft=6;overflow=hidden;whiteSpace=wrap;html=1;strokeColor=#788AA3;fontFamily=Helvetica;fontSize=12;fontColor=#46495D;startSize=23;labelBackgroundColor=none;" parent="amjBT3HOfIgmp5ZAhak1-111" vertex="1">
          <mxGeometry x="30" width="150" height="30" as="geometry">
            <mxRectangle width="150" height="30" as="alternateBounds" />
          </mxGeometry>
        </mxCell>
        <mxCell id="amjBT3HOfIgmp5ZAhak1-114" value="" style="shape=tableRow;horizontal=0;startSize=0;swimlaneHead=0;swimlaneBody=0;fillColor=none;collapsible=0;dropTarget=0;points=[[0,0.5],[1,0.5]];portConstraint=eastwest;top=0;left=0;right=0;bottom=0;strokeColor=#788AA3;fontFamily=Helvetica;fontSize=12;fontColor=#46495D;html=1;labelBackgroundColor=none;" parent="amjBT3HOfIgmp5ZAhak1-89" vertex="1">
          <mxGeometry y="210" width="180" height="30" as="geometry" />
        </mxCell>
        <mxCell id="amjBT3HOfIgmp5ZAhak1-115" value="" style="shape=partialRectangle;connectable=0;fillColor=none;top=0;left=0;bottom=0;right=0;editable=1;overflow=hidden;whiteSpace=wrap;html=1;strokeColor=#788AA3;fontFamily=Helvetica;fontSize=12;fontColor=#46495D;startSize=23;labelBackgroundColor=none;" parent="amjBT3HOfIgmp5ZAhak1-114" vertex="1">
          <mxGeometry width="30" height="30" as="geometry">
            <mxRectangle width="30" height="30" as="alternateBounds" />
          </mxGeometry>
        </mxCell>
        <mxCell id="amjBT3HOfIgmp5ZAhak1-116" value="created_at" style="shape=partialRectangle;connectable=0;fillColor=none;top=0;left=0;bottom=0;right=0;align=left;spacingLeft=6;overflow=hidden;whiteSpace=wrap;html=1;strokeColor=#788AA3;fontFamily=Helvetica;fontSize=12;fontColor=#46495D;startSize=23;labelBackgroundColor=none;" parent="amjBT3HOfIgmp5ZAhak1-114" vertex="1">
          <mxGeometry x="30" width="150" height="30" as="geometry">
            <mxRectangle width="150" height="30" as="alternateBounds" />
          </mxGeometry>
        </mxCell>
        <mxCell id="amjBT3HOfIgmp5ZAhak1-117" value="" style="shape=tableRow;horizontal=0;startSize=0;swimlaneHead=0;swimlaneBody=0;fillColor=none;collapsible=0;dropTarget=0;points=[[0,0.5],[1,0.5]];portConstraint=eastwest;top=0;left=0;right=0;bottom=0;strokeColor=#788AA3;fontFamily=Helvetica;fontSize=12;fontColor=#46495D;html=1;labelBackgroundColor=none;" parent="amjBT3HOfIgmp5ZAhak1-89" vertex="1">
          <mxGeometry y="240" width="180" height="30" as="geometry" />
        </mxCell>
        <mxCell id="amjBT3HOfIgmp5ZAhak1-118" value="" style="shape=partialRectangle;connectable=0;fillColor=none;top=0;left=0;bottom=0;right=0;editable=1;overflow=hidden;whiteSpace=wrap;html=1;strokeColor=#788AA3;fontFamily=Helvetica;fontSize=12;fontColor=#46495D;startSize=23;labelBackgroundColor=none;" parent="amjBT3HOfIgmp5ZAhak1-117" vertex="1">
          <mxGeometry width="30" height="30" as="geometry">
            <mxRectangle width="30" height="30" as="alternateBounds" />
          </mxGeometry>
        </mxCell>
        <mxCell id="amjBT3HOfIgmp5ZAhak1-119" value="updated_at" style="shape=partialRectangle;connectable=0;fillColor=none;top=0;left=0;bottom=0;right=0;align=left;spacingLeft=6;overflow=hidden;whiteSpace=wrap;html=1;strokeColor=#788AA3;fontFamily=Helvetica;fontSize=12;fontColor=#46495D;startSize=23;labelBackgroundColor=none;" parent="amjBT3HOfIgmp5ZAhak1-117" vertex="1">
          <mxGeometry x="30" width="150" height="30" as="geometry">
            <mxRectangle width="150" height="30" as="alternateBounds" />
          </mxGeometry>
        </mxCell>
        <mxCell id="amjBT3HOfIgmp5ZAhak1-120" value="" style="edgeStyle=elbowEdgeStyle;fontSize=12;html=1;endArrow=ERzeroToMany;endFill=1;fontFamily=Helvetica;fontColor=default;startSize=8;rounded=1;startArrow=ERone;startFill=0;endSize=9;labelBackgroundColor=none;strokeColor=#788AA3;entryX=0;entryY=0.5;entryDx=0;entryDy=0;" parent="WIyWlLk6GJQsqaUBKTNV-1" source="4wPJRuQXLRKCmAuNgEeh-0" target="amjBT3HOfIgmp5ZAhak1-93" edge="1">
          <mxGeometry width="100" height="100" relative="1" as="geometry">
            <mxPoint x="1220.0000000000005" y="695" as="sourcePoint" />
            <mxPoint x="1474" y="620" as="targetPoint" />
            <Array as="points">
              <mxPoint x="1310" y="760" />
            </Array>
          </mxGeometry>
        </mxCell>
        <mxCell id="amjBT3HOfIgmp5ZAhak1-121" value="" style="edgeStyle=elbowEdgeStyle;fontSize=12;html=1;endArrow=ERzeroToMany;endFill=1;fontFamily=Helvetica;fontColor=default;startSize=8;rounded=1;startArrow=ERone;startFill=0;endSize=9;labelBackgroundColor=none;strokeColor=#788AA3;exitX=0;exitY=0.5;exitDx=0;exitDy=0;" parent="WIyWlLk6GJQsqaUBKTNV-1" source="amjBT3HOfIgmp5ZAhak1-96" target="TtT6zjxbn2nU0OrpLk1x-129" edge="1">
          <mxGeometry width="100" height="100" relative="1" as="geometry">
            <mxPoint x="1654" y="840" as="sourcePoint" />
            <mxPoint x="1220.0000000000005" y="695" as="targetPoint" />
            <Array as="points">
              <mxPoint x="1280" y="790" />
            </Array>
          </mxGeometry>
        </mxCell>
        <mxCell id="amjBT3HOfIgmp5ZAhak1-122" value="" style="edgeStyle=elbowEdgeStyle;fontSize=12;html=1;endArrow=ERzeroToMany;endFill=1;fontFamily=Helvetica;fontColor=default;startSize=8;rounded=1;startArrow=ERone;startFill=0;endSize=9;labelBackgroundColor=none;strokeColor=#788AA3;entryX=0;entryY=0.5;entryDx=0;entryDy=0;exitX=1;exitY=0.667;exitDx=0;exitDy=0;exitPerimeter=0;" parent="WIyWlLk6GJQsqaUBKTNV-1" target="AqgVQKVdH_DSCZpF_KZi-189" edge="1">
          <mxGeometry width="100" height="100" relative="1" as="geometry">
            <mxPoint x="1220.0000000000005" y="700.01" as="sourcePoint" />
            <mxPoint x="1430" y="295" as="targetPoint" />
            <Array as="points">
              <mxPoint x="1330" y="510" />
            </Array>
          </mxGeometry>
        </mxCell>
        <mxCell id="-8WY9Poa_YswlSu09_65-6" value="" style="edgeStyle=elbowEdgeStyle;fontSize=12;html=1;endArrow=ERzeroToMany;endFill=1;fontFamily=Helvetica;fontColor=default;startSize=8;rounded=1;startArrow=ERone;startFill=0;endSize=9;labelBackgroundColor=none;strokeColor=#788AA3;exitX=0;exitY=0.5;exitDx=0;exitDy=0;" parent="WIyWlLk6GJQsqaUBKTNV-1" source="AqgVQKVdH_DSCZpF_KZi-162" target="nsjEO3wTD0hUkXk-Kdim-10" edge="1">
          <mxGeometry width="100" height="100" relative="1" as="geometry">
            <mxPoint x="360" y="940" as="sourcePoint" />
            <mxPoint x="490" y="1070" as="targetPoint" />
            <Array as="points">
              <mxPoint x="340" y="1110" />
            </Array>
          </mxGeometry>
        </mxCell>
        <mxCell id="nsjEO3wTD0hUkXk-Kdim-0" value="Comment_favorites&lt;br&gt;（コメントいいね）" style="shape=table;startSize=30;container=1;collapsible=1;childLayout=tableLayout;fixedRows=1;rowLines=0;fontStyle=1;align=center;resizeLast=1;html=1;strokeColor=#b85450;fontFamily=Helvetica;fontSize=12;fillColor=#f8cecc;labelBackgroundColor=none;" parent="WIyWlLk6GJQsqaUBKTNV-1" vertex="1">
          <mxGeometry x="620" y="1260" width="180" height="180" as="geometry">
            <mxRectangle x="260" y="1210" width="150" height="40" as="alternateBounds" />
          </mxGeometry>
        </mxCell>
        <mxCell id="nsjEO3wTD0hUkXk-Kdim-1" value="" style="shape=tableRow;horizontal=0;startSize=0;swimlaneHead=0;swimlaneBody=0;fillColor=none;collapsible=0;dropTarget=0;points=[[0,0.5],[1,0.5]];portConstraint=eastwest;top=0;left=0;right=0;bottom=1;strokeColor=#788AA3;fontFamily=Helvetica;fontSize=12;fontColor=#46495D;html=1;labelBackgroundColor=none;" parent="nsjEO3wTD0hUkXk-Kdim-0" vertex="1">
          <mxGeometry y="30" width="180" height="30" as="geometry" />
        </mxCell>
        <mxCell id="nsjEO3wTD0hUkXk-Kdim-2" value="PK" style="shape=partialRectangle;connectable=0;fillColor=none;top=0;left=0;bottom=0;right=0;fontStyle=1;overflow=hidden;whiteSpace=wrap;html=1;strokeColor=#788AA3;fontFamily=Helvetica;fontSize=12;fontColor=#46495D;startSize=23;labelBackgroundColor=none;" parent="nsjEO3wTD0hUkXk-Kdim-1" vertex="1">
          <mxGeometry width="30" height="30" as="geometry">
            <mxRectangle width="30" height="30" as="alternateBounds" />
          </mxGeometry>
        </mxCell>
        <mxCell id="nsjEO3wTD0hUkXk-Kdim-3" value="comment_favorite_id" style="shape=partialRectangle;connectable=0;fillColor=none;top=0;left=0;bottom=0;right=0;align=left;spacingLeft=6;fontStyle=5;overflow=hidden;whiteSpace=wrap;html=1;strokeColor=#788AA3;fontFamily=Helvetica;fontSize=12;fontColor=#46495D;startSize=23;labelBackgroundColor=none;" parent="nsjEO3wTD0hUkXk-Kdim-1" vertex="1">
          <mxGeometry x="30" width="150" height="30" as="geometry">
            <mxRectangle width="150" height="30" as="alternateBounds" />
          </mxGeometry>
        </mxCell>
        <mxCell id="nsjEO3wTD0hUkXk-Kdim-4" value="" style="shape=tableRow;horizontal=0;startSize=0;swimlaneHead=0;swimlaneBody=0;fillColor=none;collapsible=0;dropTarget=0;points=[[0,0.5],[1,0.5]];portConstraint=eastwest;top=0;left=0;right=0;bottom=0;strokeColor=#788AA3;fontFamily=Helvetica;fontSize=12;fontColor=#46495D;html=1;labelBackgroundColor=none;" parent="nsjEO3wTD0hUkXk-Kdim-0" vertex="1">
          <mxGeometry y="60" width="180" height="30" as="geometry" />
        </mxCell>
        <mxCell id="nsjEO3wTD0hUkXk-Kdim-5" value="&lt;b&gt;FK&lt;/b&gt;" style="shape=partialRectangle;connectable=0;fillColor=none;top=0;left=0;bottom=0;right=0;editable=1;overflow=hidden;whiteSpace=wrap;html=1;strokeColor=#788AA3;fontFamily=Helvetica;fontSize=12;fontColor=#46495D;startSize=23;labelBackgroundColor=none;" parent="nsjEO3wTD0hUkXk-Kdim-4" vertex="1">
          <mxGeometry width="30" height="30" as="geometry">
            <mxRectangle width="30" height="30" as="alternateBounds" />
          </mxGeometry>
        </mxCell>
        <mxCell id="nsjEO3wTD0hUkXk-Kdim-6" value="&lt;u&gt;&lt;b&gt;user_id&lt;/b&gt;&lt;/u&gt;" style="shape=partialRectangle;connectable=0;fillColor=none;top=0;left=0;bottom=0;right=0;align=left;spacingLeft=6;overflow=hidden;whiteSpace=wrap;html=1;strokeColor=#788AA3;fontFamily=Helvetica;fontSize=12;fontColor=#46495D;startSize=23;labelBackgroundColor=none;" parent="nsjEO3wTD0hUkXk-Kdim-4" vertex="1">
          <mxGeometry x="30" width="150" height="30" as="geometry">
            <mxRectangle width="150" height="30" as="alternateBounds" />
          </mxGeometry>
        </mxCell>
        <mxCell id="nsjEO3wTD0hUkXk-Kdim-10" value="" style="shape=tableRow;horizontal=0;startSize=0;swimlaneHead=0;swimlaneBody=0;fillColor=none;collapsible=0;dropTarget=0;points=[[0,0.5],[1,0.5]];portConstraint=eastwest;top=0;left=0;right=0;bottom=1;strokeColor=#788AA3;fontFamily=Helvetica;fontSize=12;fontColor=#46495D;html=1;labelBackgroundColor=none;" parent="nsjEO3wTD0hUkXk-Kdim-0" vertex="1">
          <mxGeometry y="90" width="180" height="30" as="geometry" />
        </mxCell>
        <mxCell id="nsjEO3wTD0hUkXk-Kdim-11" value="FK" style="shape=partialRectangle;connectable=0;fillColor=none;top=0;left=0;bottom=0;right=0;fontStyle=1;overflow=hidden;whiteSpace=wrap;html=1;strokeColor=#788AA3;fontFamily=Helvetica;fontSize=12;fontColor=#46495D;startSize=23;labelBackgroundColor=none;" parent="nsjEO3wTD0hUkXk-Kdim-10" vertex="1">
          <mxGeometry width="30" height="30" as="geometry">
            <mxRectangle width="30" height="30" as="alternateBounds" />
          </mxGeometry>
        </mxCell>
        <mxCell id="nsjEO3wTD0hUkXk-Kdim-12" value="comment_id" style="shape=partialRectangle;connectable=0;fillColor=none;top=0;left=0;bottom=0;right=0;align=left;spacingLeft=6;fontStyle=5;overflow=hidden;whiteSpace=wrap;html=1;strokeColor=#788AA3;fontFamily=Helvetica;fontSize=12;fontColor=#46495D;startSize=23;labelBackgroundColor=none;" parent="nsjEO3wTD0hUkXk-Kdim-10" vertex="1">
          <mxGeometry x="30" width="150" height="30" as="geometry">
            <mxRectangle width="150" height="30" as="alternateBounds" />
          </mxGeometry>
        </mxCell>
        <mxCell id="nsjEO3wTD0hUkXk-Kdim-13" value="" style="shape=tableRow;horizontal=0;startSize=0;swimlaneHead=0;swimlaneBody=0;fillColor=none;collapsible=0;dropTarget=0;points=[[0,0.5],[1,0.5]];portConstraint=eastwest;top=0;left=0;right=0;bottom=0;strokeColor=#788AA3;fontFamily=Helvetica;fontSize=12;fontColor=#46495D;html=1;labelBackgroundColor=none;" parent="nsjEO3wTD0hUkXk-Kdim-0" vertex="1">
          <mxGeometry y="120" width="180" height="30" as="geometry" />
        </mxCell>
        <mxCell id="nsjEO3wTD0hUkXk-Kdim-14" value="" style="shape=partialRectangle;connectable=0;fillColor=none;top=0;left=0;bottom=0;right=0;editable=1;overflow=hidden;whiteSpace=wrap;html=1;strokeColor=#788AA3;fontFamily=Helvetica;fontSize=12;fontColor=#46495D;startSize=23;labelBackgroundColor=none;" parent="nsjEO3wTD0hUkXk-Kdim-13" vertex="1">
          <mxGeometry width="30" height="30" as="geometry">
            <mxRectangle width="30" height="30" as="alternateBounds" />
          </mxGeometry>
        </mxCell>
        <mxCell id="nsjEO3wTD0hUkXk-Kdim-15" value="created_at" style="shape=partialRectangle;connectable=0;fillColor=none;top=0;left=0;bottom=0;right=0;align=left;spacingLeft=6;overflow=hidden;whiteSpace=wrap;html=1;strokeColor=#788AA3;fontFamily=Helvetica;fontSize=12;fontColor=#46495D;startSize=23;labelBackgroundColor=none;" parent="nsjEO3wTD0hUkXk-Kdim-13" vertex="1">
          <mxGeometry x="30" width="150" height="30" as="geometry">
            <mxRectangle width="150" height="30" as="alternateBounds" />
          </mxGeometry>
        </mxCell>
        <mxCell id="nsjEO3wTD0hUkXk-Kdim-16" value="" style="shape=tableRow;horizontal=0;startSize=0;swimlaneHead=0;swimlaneBody=0;fillColor=none;collapsible=0;dropTarget=0;points=[[0,0.5],[1,0.5]];portConstraint=eastwest;top=0;left=0;right=0;bottom=0;strokeColor=#788AA3;fontFamily=Helvetica;fontSize=12;fontColor=#46495D;html=1;labelBackgroundColor=none;" parent="nsjEO3wTD0hUkXk-Kdim-0" vertex="1">
          <mxGeometry y="150" width="180" height="30" as="geometry" />
        </mxCell>
        <mxCell id="nsjEO3wTD0hUkXk-Kdim-17" value="" style="shape=partialRectangle;connectable=0;fillColor=none;top=0;left=0;bottom=0;right=0;editable=1;overflow=hidden;whiteSpace=wrap;html=1;strokeColor=#788AA3;fontFamily=Helvetica;fontSize=12;fontColor=#46495D;startSize=23;labelBackgroundColor=none;" parent="nsjEO3wTD0hUkXk-Kdim-16" vertex="1">
          <mxGeometry width="30" height="30" as="geometry">
            <mxRectangle width="30" height="30" as="alternateBounds" />
          </mxGeometry>
        </mxCell>
        <mxCell id="nsjEO3wTD0hUkXk-Kdim-18" value="updated_at" style="shape=partialRectangle;connectable=0;fillColor=none;top=0;left=0;bottom=0;right=0;align=left;spacingLeft=6;overflow=hidden;whiteSpace=wrap;html=1;strokeColor=#788AA3;fontFamily=Helvetica;fontSize=12;fontColor=#46495D;startSize=23;labelBackgroundColor=none;" parent="nsjEO3wTD0hUkXk-Kdim-16" vertex="1">
          <mxGeometry x="30" width="150" height="30" as="geometry">
            <mxRectangle width="150" height="30" as="alternateBounds" />
          </mxGeometry>
        </mxCell>
        <mxCell id="nsjEO3wTD0hUkXk-Kdim-19" value="" style="edgeStyle=elbowEdgeStyle;fontSize=12;html=1;endArrow=ERzeroToMany;endFill=1;fontFamily=Helvetica;fontColor=default;startSize=8;rounded=1;startArrow=ERone;startFill=0;endSize=9;labelBackgroundColor=none;strokeColor=#788AA3;exitX=0;exitY=0.5;exitDx=0;exitDy=0;entryX=1;entryY=0.5;entryDx=0;entryDy=0;" parent="WIyWlLk6GJQsqaUBKTNV-1" source="TtT6zjxbn2nU0OrpLk1x-132" target="nsjEO3wTD0hUkXk-Kdim-4" edge="1">
          <mxGeometry width="100" height="100" relative="1" as="geometry">
            <mxPoint x="1310" y="1030" as="sourcePoint" />
            <mxPoint x="1540" y="1280" as="targetPoint" />
            <Array as="points">
              <mxPoint x="910" y="980" />
              <mxPoint x="1020" y="990" />
              <mxPoint x="1220" y="1105" />
            </Array>
          </mxGeometry>
        </mxCell>
        <mxCell id="nsjEO3wTD0hUkXk-Kdim-23" value="" style="edgeStyle=elbowEdgeStyle;fontSize=12;html=1;endArrow=ERzeroToMany;endFill=1;fontFamily=Helvetica;fontColor=default;startSize=8;rounded=1;entryX=0;entryY=0.5;entryDx=0;entryDy=0;startArrow=ERone;startFill=0;endSize=9;labelBackgroundColor=none;strokeColor=#788AA3;" parent="WIyWlLk6GJQsqaUBKTNV-1" source="nsjEO3wTD0hUkXk-Kdim-10" target="nsjEO3wTD0hUkXk-Kdim-20" edge="1">
          <mxGeometry width="100" height="100" relative="1" as="geometry">
            <mxPoint x="530" y="385" as="sourcePoint" />
            <mxPoint x="1050" y="245" as="targetPoint" />
            <Array as="points">
              <mxPoint x="940" y="760" />
            </Array>
          </mxGeometry>
        </mxCell>
        <mxCell id="GH-rgcXHdw-grydiUsWg-129" value="gem: acts-as-taggable-on" style="text;strokeColor=none;align=center;fillColor=none;html=1;verticalAlign=middle;whiteSpace=wrap;rounded=0;" vertex="1" parent="WIyWlLk6GJQsqaUBKTNV-1">
          <mxGeometry x="74" y="570" width="180" height="30" as="geometry" />
        </mxCell>
        <mxCell id="GH-rgcXHdw-grydiUsWg-130" value="&lt;font color=&quot;#000000&quot;&gt;Impressions&lt;br&gt;（gem: impressionist）&lt;/font&gt;" style="shape=table;startSize=25;container=1;collapsible=1;childLayout=tableLayout;fixedRows=1;rowLines=0;fontStyle=1;align=center;resizeLast=1;html=1;fontFamily=Helvetica;fontSize=12;fillColor=#f8cecc;labelBackgroundColor=none;strokeColor=#b85450;" vertex="1" parent="WIyWlLk6GJQsqaUBKTNV-1">
          <mxGeometry x="260" y="25" width="180" height="480" as="geometry" />
        </mxCell>
        <mxCell id="GH-rgcXHdw-grydiUsWg-131" value="" style="shape=tableRow;horizontal=0;startSize=0;swimlaneHead=0;swimlaneBody=0;fillColor=none;collapsible=0;dropTarget=0;points=[[0,0.5],[1,0.5]];portConstraint=eastwest;top=0;left=0;right=0;bottom=1;strokeColor=#788AA3;fontFamily=Helvetica;fontSize=12;fontColor=#46495D;html=1;labelBackgroundColor=none;" vertex="1" parent="GH-rgcXHdw-grydiUsWg-130">
          <mxGeometry y="25" width="180" height="30" as="geometry" />
        </mxCell>
        <mxCell id="GH-rgcXHdw-grydiUsWg-132" value="PK" style="shape=partialRectangle;connectable=0;fillColor=none;top=0;left=0;bottom=0;right=0;fontStyle=1;overflow=hidden;whiteSpace=wrap;html=1;strokeColor=#788AA3;fontFamily=Helvetica;fontSize=12;fontColor=#46495D;startSize=23;labelBackgroundColor=none;" vertex="1" parent="GH-rgcXHdw-grydiUsWg-131">
          <mxGeometry width="30" height="30" as="geometry">
            <mxRectangle width="30" height="30" as="alternateBounds" />
          </mxGeometry>
        </mxCell>
        <mxCell id="GH-rgcXHdw-grydiUsWg-133" value="impressions_id" style="shape=partialRectangle;connectable=0;fillColor=none;top=0;left=0;bottom=0;right=0;align=left;spacingLeft=6;fontStyle=5;overflow=hidden;whiteSpace=wrap;html=1;strokeColor=#788AA3;fontFamily=Helvetica;fontSize=12;fontColor=#46495D;startSize=23;labelBackgroundColor=none;" vertex="1" parent="GH-rgcXHdw-grydiUsWg-131">
          <mxGeometry x="30" width="150" height="30" as="geometry">
            <mxRectangle width="150" height="30" as="alternateBounds" />
          </mxGeometry>
        </mxCell>
        <mxCell id="GH-rgcXHdw-grydiUsWg-134" value="" style="shape=tableRow;horizontal=0;startSize=0;swimlaneHead=0;swimlaneBody=0;fillColor=none;collapsible=0;dropTarget=0;points=[[0,0.5],[1,0.5]];portConstraint=eastwest;top=0;left=0;right=0;bottom=0;strokeColor=#788AA3;fontFamily=Helvetica;fontSize=12;fontColor=#46495D;html=1;labelBackgroundColor=none;" vertex="1" parent="GH-rgcXHdw-grydiUsWg-130">
          <mxGeometry y="55" width="180" height="30" as="geometry" />
        </mxCell>
        <mxCell id="GH-rgcXHdw-grydiUsWg-135" value="" style="shape=partialRectangle;connectable=0;fillColor=none;top=0;left=0;bottom=0;right=0;editable=1;overflow=hidden;whiteSpace=wrap;html=1;strokeColor=#788AA3;fontFamily=Helvetica;fontSize=12;fontColor=#46495D;startSize=23;labelBackgroundColor=none;" vertex="1" parent="GH-rgcXHdw-grydiUsWg-134">
          <mxGeometry width="30" height="30" as="geometry">
            <mxRectangle width="30" height="30" as="alternateBounds" />
          </mxGeometry>
        </mxCell>
        <mxCell id="GH-rgcXHdw-grydiUsWg-136" value="impressionable_type" style="shape=partialRectangle;connectable=0;fillColor=none;top=0;left=0;bottom=0;right=0;align=left;spacingLeft=6;overflow=hidden;whiteSpace=wrap;html=1;strokeColor=#788AA3;fontFamily=Helvetica;fontSize=12;fontColor=#46495D;startSize=23;labelBackgroundColor=none;" vertex="1" parent="GH-rgcXHdw-grydiUsWg-134">
          <mxGeometry x="30" width="150" height="30" as="geometry">
            <mxRectangle width="150" height="30" as="alternateBounds" />
          </mxGeometry>
        </mxCell>
        <mxCell id="GH-rgcXHdw-grydiUsWg-137" value="" style="shape=tableRow;horizontal=0;startSize=0;swimlaneHead=0;swimlaneBody=0;fillColor=none;collapsible=0;dropTarget=0;points=[[0,0.5],[1,0.5]];portConstraint=eastwest;top=0;left=0;right=0;bottom=0;strokeColor=#788AA3;fontFamily=Helvetica;fontSize=12;fontColor=#46495D;html=1;labelBackgroundColor=none;" vertex="1" parent="GH-rgcXHdw-grydiUsWg-130">
          <mxGeometry y="85" width="180" height="30" as="geometry" />
        </mxCell>
        <mxCell id="GH-rgcXHdw-grydiUsWg-138" value="" style="shape=partialRectangle;connectable=0;fillColor=none;top=0;left=0;bottom=0;right=0;editable=1;overflow=hidden;whiteSpace=wrap;html=1;strokeColor=#788AA3;fontFamily=Helvetica;fontSize=12;fontColor=#46495D;startSize=23;labelBackgroundColor=none;" vertex="1" parent="GH-rgcXHdw-grydiUsWg-137">
          <mxGeometry width="30" height="30" as="geometry">
            <mxRectangle width="30" height="30" as="alternateBounds" />
          </mxGeometry>
        </mxCell>
        <mxCell id="GH-rgcXHdw-grydiUsWg-139" value="impressionable_id" style="shape=partialRectangle;connectable=0;fillColor=none;top=0;left=0;bottom=0;right=0;align=left;spacingLeft=6;overflow=hidden;whiteSpace=wrap;html=1;strokeColor=#788AA3;fontFamily=Helvetica;fontSize=12;fontColor=#46495D;startSize=23;labelBackgroundColor=none;" vertex="1" parent="GH-rgcXHdw-grydiUsWg-137">
          <mxGeometry x="30" width="150" height="30" as="geometry">
            <mxRectangle width="150" height="30" as="alternateBounds" />
          </mxGeometry>
        </mxCell>
        <mxCell id="GH-rgcXHdw-grydiUsWg-140" value="" style="shape=tableRow;horizontal=0;startSize=0;swimlaneHead=0;swimlaneBody=0;fillColor=none;collapsible=0;dropTarget=0;points=[[0,0.5],[1,0.5]];portConstraint=eastwest;top=0;left=0;right=0;bottom=0;strokeColor=#788AA3;fontFamily=Helvetica;fontSize=12;fontColor=#46495D;html=1;labelBackgroundColor=none;" vertex="1" parent="GH-rgcXHdw-grydiUsWg-130">
          <mxGeometry y="115" width="180" height="30" as="geometry" />
        </mxCell>
        <mxCell id="GH-rgcXHdw-grydiUsWg-141" value="" style="shape=partialRectangle;connectable=0;fillColor=none;top=0;left=0;bottom=0;right=0;editable=1;overflow=hidden;whiteSpace=wrap;html=1;strokeColor=#788AA3;fontFamily=Helvetica;fontSize=12;fontColor=#46495D;startSize=23;labelBackgroundColor=none;" vertex="1" parent="GH-rgcXHdw-grydiUsWg-140">
          <mxGeometry width="30" height="30" as="geometry">
            <mxRectangle width="30" height="30" as="alternateBounds" />
          </mxGeometry>
        </mxCell>
        <mxCell id="GH-rgcXHdw-grydiUsWg-142" value="user_id" style="shape=partialRectangle;connectable=0;fillColor=none;top=0;left=0;bottom=0;right=0;align=left;spacingLeft=6;overflow=hidden;whiteSpace=wrap;html=1;strokeColor=#788AA3;fontFamily=Helvetica;fontSize=12;fontColor=#46495D;startSize=23;labelBackgroundColor=none;" vertex="1" parent="GH-rgcXHdw-grydiUsWg-140">
          <mxGeometry x="30" width="150" height="30" as="geometry">
            <mxRectangle width="150" height="30" as="alternateBounds" />
          </mxGeometry>
        </mxCell>
        <mxCell id="GH-rgcXHdw-grydiUsWg-143" value="" style="shape=tableRow;horizontal=0;startSize=0;swimlaneHead=0;swimlaneBody=0;fillColor=none;collapsible=0;dropTarget=0;points=[[0,0.5],[1,0.5]];portConstraint=eastwest;top=0;left=0;right=0;bottom=0;strokeColor=#788AA3;fontFamily=Helvetica;fontSize=12;fontColor=#46495D;html=1;labelBackgroundColor=none;" vertex="1" parent="GH-rgcXHdw-grydiUsWg-130">
          <mxGeometry y="145" width="180" height="30" as="geometry" />
        </mxCell>
        <mxCell id="GH-rgcXHdw-grydiUsWg-144" value="" style="shape=partialRectangle;connectable=0;fillColor=none;top=0;left=0;bottom=0;right=0;editable=1;overflow=hidden;whiteSpace=wrap;html=1;strokeColor=#788AA3;fontFamily=Helvetica;fontSize=12;fontColor=#46495D;startSize=23;labelBackgroundColor=none;" vertex="1" parent="GH-rgcXHdw-grydiUsWg-143">
          <mxGeometry width="30" height="30" as="geometry">
            <mxRectangle width="30" height="30" as="alternateBounds" />
          </mxGeometry>
        </mxCell>
        <mxCell id="GH-rgcXHdw-grydiUsWg-145" value="controller_name" style="shape=partialRectangle;connectable=0;fillColor=none;top=0;left=0;bottom=0;right=0;align=left;spacingLeft=6;overflow=hidden;whiteSpace=wrap;html=1;strokeColor=#788AA3;fontFamily=Helvetica;fontSize=12;fontColor=#46495D;startSize=23;labelBackgroundColor=none;" vertex="1" parent="GH-rgcXHdw-grydiUsWg-143">
          <mxGeometry x="30" width="150" height="30" as="geometry">
            <mxRectangle width="150" height="30" as="alternateBounds" />
          </mxGeometry>
        </mxCell>
        <mxCell id="GH-rgcXHdw-grydiUsWg-146" value="" style="shape=tableRow;horizontal=0;startSize=0;swimlaneHead=0;swimlaneBody=0;fillColor=none;collapsible=0;dropTarget=0;points=[[0,0.5],[1,0.5]];portConstraint=eastwest;top=0;left=0;right=0;bottom=0;strokeColor=#788AA3;fontFamily=Helvetica;fontSize=12;fontColor=#46495D;html=1;labelBackgroundColor=none;" vertex="1" parent="GH-rgcXHdw-grydiUsWg-130">
          <mxGeometry y="175" width="180" height="30" as="geometry" />
        </mxCell>
        <mxCell id="GH-rgcXHdw-grydiUsWg-147" value="" style="shape=partialRectangle;connectable=0;fillColor=none;top=0;left=0;bottom=0;right=0;editable=1;overflow=hidden;whiteSpace=wrap;html=1;strokeColor=#788AA3;fontFamily=Helvetica;fontSize=12;fontColor=#46495D;startSize=23;labelBackgroundColor=none;" vertex="1" parent="GH-rgcXHdw-grydiUsWg-146">
          <mxGeometry width="30" height="30" as="geometry">
            <mxRectangle width="30" height="30" as="alternateBounds" />
          </mxGeometry>
        </mxCell>
        <mxCell id="GH-rgcXHdw-grydiUsWg-148" value="action_name" style="shape=partialRectangle;connectable=0;fillColor=none;top=0;left=0;bottom=0;right=0;align=left;spacingLeft=6;overflow=hidden;whiteSpace=wrap;html=1;strokeColor=#788AA3;fontFamily=Helvetica;fontSize=12;fontColor=#46495D;startSize=23;labelBackgroundColor=none;" vertex="1" parent="GH-rgcXHdw-grydiUsWg-146">
          <mxGeometry x="30" width="150" height="30" as="geometry">
            <mxRectangle width="150" height="30" as="alternateBounds" />
          </mxGeometry>
        </mxCell>
        <mxCell id="GH-rgcXHdw-grydiUsWg-149" value="" style="shape=tableRow;horizontal=0;startSize=0;swimlaneHead=0;swimlaneBody=0;fillColor=none;collapsible=0;dropTarget=0;points=[[0,0.5],[1,0.5]];portConstraint=eastwest;top=0;left=0;right=0;bottom=0;strokeColor=#788AA3;fontFamily=Helvetica;fontSize=12;fontColor=#46495D;html=1;labelBackgroundColor=none;" vertex="1" parent="GH-rgcXHdw-grydiUsWg-130">
          <mxGeometry y="205" width="180" height="30" as="geometry" />
        </mxCell>
        <mxCell id="GH-rgcXHdw-grydiUsWg-150" value="" style="shape=partialRectangle;connectable=0;fillColor=none;top=0;left=0;bottom=0;right=0;editable=1;overflow=hidden;whiteSpace=wrap;html=1;strokeColor=#788AA3;fontFamily=Helvetica;fontSize=12;fontColor=#46495D;startSize=23;labelBackgroundColor=none;" vertex="1" parent="GH-rgcXHdw-grydiUsWg-149">
          <mxGeometry width="30" height="30" as="geometry">
            <mxRectangle width="30" height="30" as="alternateBounds" />
          </mxGeometry>
        </mxCell>
        <mxCell id="GH-rgcXHdw-grydiUsWg-151" value="view_name" style="shape=partialRectangle;connectable=0;fillColor=none;top=0;left=0;bottom=0;right=0;align=left;spacingLeft=6;overflow=hidden;whiteSpace=wrap;html=1;strokeColor=#788AA3;fontFamily=Helvetica;fontSize=12;fontColor=#46495D;startSize=23;labelBackgroundColor=none;" vertex="1" parent="GH-rgcXHdw-grydiUsWg-149">
          <mxGeometry x="30" width="150" height="30" as="geometry">
            <mxRectangle width="150" height="30" as="alternateBounds" />
          </mxGeometry>
        </mxCell>
        <mxCell id="GH-rgcXHdw-grydiUsWg-152" value="" style="shape=tableRow;horizontal=0;startSize=0;swimlaneHead=0;swimlaneBody=0;fillColor=none;collapsible=0;dropTarget=0;points=[[0,0.5],[1,0.5]];portConstraint=eastwest;top=0;left=0;right=0;bottom=0;strokeColor=#788AA3;fontFamily=Helvetica;fontSize=12;fontColor=#46495D;html=1;labelBackgroundColor=none;" vertex="1" parent="GH-rgcXHdw-grydiUsWg-130">
          <mxGeometry y="235" width="180" height="30" as="geometry" />
        </mxCell>
        <mxCell id="GH-rgcXHdw-grydiUsWg-153" value="" style="shape=partialRectangle;connectable=0;fillColor=none;top=0;left=0;bottom=0;right=0;editable=1;overflow=hidden;whiteSpace=wrap;html=1;strokeColor=#788AA3;fontFamily=Helvetica;fontSize=12;fontColor=#46495D;startSize=23;labelBackgroundColor=none;" vertex="1" parent="GH-rgcXHdw-grydiUsWg-152">
          <mxGeometry width="30" height="30" as="geometry">
            <mxRectangle width="30" height="30" as="alternateBounds" />
          </mxGeometry>
        </mxCell>
        <mxCell id="GH-rgcXHdw-grydiUsWg-154" value="request_hash" style="shape=partialRectangle;connectable=0;fillColor=none;top=0;left=0;bottom=0;right=0;align=left;spacingLeft=6;overflow=hidden;whiteSpace=wrap;html=1;strokeColor=#788AA3;fontFamily=Helvetica;fontSize=12;fontColor=#46495D;startSize=23;labelBackgroundColor=none;" vertex="1" parent="GH-rgcXHdw-grydiUsWg-152">
          <mxGeometry x="30" width="150" height="30" as="geometry">
            <mxRectangle width="150" height="30" as="alternateBounds" />
          </mxGeometry>
        </mxCell>
        <mxCell id="GH-rgcXHdw-grydiUsWg-167" value="" style="shape=tableRow;horizontal=0;startSize=0;swimlaneHead=0;swimlaneBody=0;fillColor=none;collapsible=0;dropTarget=0;points=[[0,0.5],[1,0.5]];portConstraint=eastwest;top=0;left=0;right=0;bottom=0;strokeColor=#788AA3;fontFamily=Helvetica;fontSize=12;fontColor=#46495D;html=1;labelBackgroundColor=none;" vertex="1" parent="GH-rgcXHdw-grydiUsWg-130">
          <mxGeometry y="265" width="180" height="30" as="geometry" />
        </mxCell>
        <mxCell id="GH-rgcXHdw-grydiUsWg-168" value="" style="shape=partialRectangle;connectable=0;fillColor=none;top=0;left=0;bottom=0;right=0;editable=1;overflow=hidden;whiteSpace=wrap;html=1;strokeColor=#788AA3;fontFamily=Helvetica;fontSize=12;fontColor=#46495D;startSize=23;labelBackgroundColor=none;" vertex="1" parent="GH-rgcXHdw-grydiUsWg-167">
          <mxGeometry width="30" height="30" as="geometry">
            <mxRectangle width="30" height="30" as="alternateBounds" />
          </mxGeometry>
        </mxCell>
        <mxCell id="GH-rgcXHdw-grydiUsWg-169" value="ip_address" style="shape=partialRectangle;connectable=0;fillColor=none;top=0;left=0;bottom=0;right=0;align=left;spacingLeft=6;overflow=hidden;whiteSpace=wrap;html=1;strokeColor=#788AA3;fontFamily=Helvetica;fontSize=12;fontColor=#46495D;startSize=23;labelBackgroundColor=none;" vertex="1" parent="GH-rgcXHdw-grydiUsWg-167">
          <mxGeometry x="30" width="150" height="30" as="geometry">
            <mxRectangle width="150" height="30" as="alternateBounds" />
          </mxGeometry>
        </mxCell>
        <mxCell id="GH-rgcXHdw-grydiUsWg-164" value="" style="shape=tableRow;horizontal=0;startSize=0;swimlaneHead=0;swimlaneBody=0;fillColor=none;collapsible=0;dropTarget=0;points=[[0,0.5],[1,0.5]];portConstraint=eastwest;top=0;left=0;right=0;bottom=0;strokeColor=#788AA3;fontFamily=Helvetica;fontSize=12;fontColor=#46495D;html=1;labelBackgroundColor=none;" vertex="1" parent="GH-rgcXHdw-grydiUsWg-130">
          <mxGeometry y="295" width="180" height="30" as="geometry" />
        </mxCell>
        <mxCell id="GH-rgcXHdw-grydiUsWg-165" value="" style="shape=partialRectangle;connectable=0;fillColor=none;top=0;left=0;bottom=0;right=0;editable=1;overflow=hidden;whiteSpace=wrap;html=1;strokeColor=#788AA3;fontFamily=Helvetica;fontSize=12;fontColor=#46495D;startSize=23;labelBackgroundColor=none;" vertex="1" parent="GH-rgcXHdw-grydiUsWg-164">
          <mxGeometry width="30" height="30" as="geometry">
            <mxRectangle width="30" height="30" as="alternateBounds" />
          </mxGeometry>
        </mxCell>
        <mxCell id="GH-rgcXHdw-grydiUsWg-166" value="session_hash" style="shape=partialRectangle;connectable=0;fillColor=none;top=0;left=0;bottom=0;right=0;align=left;spacingLeft=6;overflow=hidden;whiteSpace=wrap;html=1;strokeColor=#788AA3;fontFamily=Helvetica;fontSize=12;fontColor=#46495D;startSize=23;labelBackgroundColor=none;" vertex="1" parent="GH-rgcXHdw-grydiUsWg-164">
          <mxGeometry x="30" width="150" height="30" as="geometry">
            <mxRectangle width="150" height="30" as="alternateBounds" />
          </mxGeometry>
        </mxCell>
        <mxCell id="GH-rgcXHdw-grydiUsWg-161" value="" style="shape=tableRow;horizontal=0;startSize=0;swimlaneHead=0;swimlaneBody=0;fillColor=none;collapsible=0;dropTarget=0;points=[[0,0.5],[1,0.5]];portConstraint=eastwest;top=0;left=0;right=0;bottom=0;strokeColor=#788AA3;fontFamily=Helvetica;fontSize=12;fontColor=#46495D;html=1;labelBackgroundColor=none;" vertex="1" parent="GH-rgcXHdw-grydiUsWg-130">
          <mxGeometry y="325" width="180" height="30" as="geometry" />
        </mxCell>
        <mxCell id="GH-rgcXHdw-grydiUsWg-162" value="" style="shape=partialRectangle;connectable=0;fillColor=none;top=0;left=0;bottom=0;right=0;editable=1;overflow=hidden;whiteSpace=wrap;html=1;strokeColor=#788AA3;fontFamily=Helvetica;fontSize=12;fontColor=#46495D;startSize=23;labelBackgroundColor=none;" vertex="1" parent="GH-rgcXHdw-grydiUsWg-161">
          <mxGeometry width="30" height="30" as="geometry">
            <mxRectangle width="30" height="30" as="alternateBounds" />
          </mxGeometry>
        </mxCell>
        <mxCell id="GH-rgcXHdw-grydiUsWg-163" value="message" style="shape=partialRectangle;connectable=0;fillColor=none;top=0;left=0;bottom=0;right=0;align=left;spacingLeft=6;overflow=hidden;whiteSpace=wrap;html=1;strokeColor=#788AA3;fontFamily=Helvetica;fontSize=12;fontColor=#46495D;startSize=23;labelBackgroundColor=none;" vertex="1" parent="GH-rgcXHdw-grydiUsWg-161">
          <mxGeometry x="30" width="150" height="30" as="geometry">
            <mxRectangle width="150" height="30" as="alternateBounds" />
          </mxGeometry>
        </mxCell>
        <mxCell id="GH-rgcXHdw-grydiUsWg-173" value="" style="shape=tableRow;horizontal=0;startSize=0;swimlaneHead=0;swimlaneBody=0;fillColor=none;collapsible=0;dropTarget=0;points=[[0,0.5],[1,0.5]];portConstraint=eastwest;top=0;left=0;right=0;bottom=0;strokeColor=#788AA3;fontFamily=Helvetica;fontSize=12;fontColor=#46495D;html=1;labelBackgroundColor=none;" vertex="1" parent="GH-rgcXHdw-grydiUsWg-130">
          <mxGeometry y="355" width="180" height="30" as="geometry" />
        </mxCell>
        <mxCell id="GH-rgcXHdw-grydiUsWg-174" value="" style="shape=partialRectangle;connectable=0;fillColor=none;top=0;left=0;bottom=0;right=0;editable=1;overflow=hidden;whiteSpace=wrap;html=1;strokeColor=#788AA3;fontFamily=Helvetica;fontSize=12;fontColor=#46495D;startSize=23;labelBackgroundColor=none;" vertex="1" parent="GH-rgcXHdw-grydiUsWg-173">
          <mxGeometry width="30" height="30" as="geometry">
            <mxRectangle width="30" height="30" as="alternateBounds" />
          </mxGeometry>
        </mxCell>
        <mxCell id="GH-rgcXHdw-grydiUsWg-175" value="referrer" style="shape=partialRectangle;connectable=0;fillColor=none;top=0;left=0;bottom=0;right=0;align=left;spacingLeft=6;overflow=hidden;whiteSpace=wrap;html=1;strokeColor=#788AA3;fontFamily=Helvetica;fontSize=12;fontColor=#46495D;startSize=23;labelBackgroundColor=none;" vertex="1" parent="GH-rgcXHdw-grydiUsWg-173">
          <mxGeometry x="30" width="150" height="30" as="geometry">
            <mxRectangle width="150" height="30" as="alternateBounds" />
          </mxGeometry>
        </mxCell>
        <mxCell id="GH-rgcXHdw-grydiUsWg-170" value="" style="shape=tableRow;horizontal=0;startSize=0;swimlaneHead=0;swimlaneBody=0;fillColor=none;collapsible=0;dropTarget=0;points=[[0,0.5],[1,0.5]];portConstraint=eastwest;top=0;left=0;right=0;bottom=0;strokeColor=#788AA3;fontFamily=Helvetica;fontSize=12;fontColor=#46495D;html=1;labelBackgroundColor=none;" vertex="1" parent="GH-rgcXHdw-grydiUsWg-130">
          <mxGeometry y="385" width="180" height="30" as="geometry" />
        </mxCell>
        <mxCell id="GH-rgcXHdw-grydiUsWg-171" value="" style="shape=partialRectangle;connectable=0;fillColor=none;top=0;left=0;bottom=0;right=0;editable=1;overflow=hidden;whiteSpace=wrap;html=1;strokeColor=#788AA3;fontFamily=Helvetica;fontSize=12;fontColor=#46495D;startSize=23;labelBackgroundColor=none;" vertex="1" parent="GH-rgcXHdw-grydiUsWg-170">
          <mxGeometry width="30" height="30" as="geometry">
            <mxRectangle width="30" height="30" as="alternateBounds" />
          </mxGeometry>
        </mxCell>
        <mxCell id="GH-rgcXHdw-grydiUsWg-172" value="params" style="shape=partialRectangle;connectable=0;fillColor=none;top=0;left=0;bottom=0;right=0;align=left;spacingLeft=6;overflow=hidden;whiteSpace=wrap;html=1;strokeColor=#788AA3;fontFamily=Helvetica;fontSize=12;fontColor=#46495D;startSize=23;labelBackgroundColor=none;" vertex="1" parent="GH-rgcXHdw-grydiUsWg-170">
          <mxGeometry x="30" width="150" height="30" as="geometry">
            <mxRectangle width="150" height="30" as="alternateBounds" />
          </mxGeometry>
        </mxCell>
        <mxCell id="GH-rgcXHdw-grydiUsWg-155" value="" style="shape=tableRow;horizontal=0;startSize=0;swimlaneHead=0;swimlaneBody=0;fillColor=none;collapsible=0;dropTarget=0;points=[[0,0.5],[1,0.5]];portConstraint=eastwest;top=0;left=0;right=0;bottom=0;strokeColor=#788AA3;fontFamily=Helvetica;fontSize=12;fontColor=#46495D;html=1;labelBackgroundColor=none;" vertex="1" parent="GH-rgcXHdw-grydiUsWg-130">
          <mxGeometry y="415" width="180" height="30" as="geometry" />
        </mxCell>
        <mxCell id="GH-rgcXHdw-grydiUsWg-156" value="" style="shape=partialRectangle;connectable=0;fillColor=none;top=0;left=0;bottom=0;right=0;editable=1;overflow=hidden;whiteSpace=wrap;html=1;strokeColor=#788AA3;fontFamily=Helvetica;fontSize=12;fontColor=#46495D;startSize=23;labelBackgroundColor=none;" vertex="1" parent="GH-rgcXHdw-grydiUsWg-155">
          <mxGeometry width="30" height="30" as="geometry">
            <mxRectangle width="30" height="30" as="alternateBounds" />
          </mxGeometry>
        </mxCell>
        <mxCell id="GH-rgcXHdw-grydiUsWg-157" value="created_at" style="shape=partialRectangle;connectable=0;fillColor=none;top=0;left=0;bottom=0;right=0;align=left;spacingLeft=6;overflow=hidden;whiteSpace=wrap;html=1;strokeColor=#788AA3;fontFamily=Helvetica;fontSize=12;fontColor=#46495D;startSize=23;labelBackgroundColor=none;" vertex="1" parent="GH-rgcXHdw-grydiUsWg-155">
          <mxGeometry x="30" width="150" height="30" as="geometry">
            <mxRectangle width="150" height="30" as="alternateBounds" />
          </mxGeometry>
        </mxCell>
        <mxCell id="GH-rgcXHdw-grydiUsWg-158" value="" style="shape=tableRow;horizontal=0;startSize=0;swimlaneHead=0;swimlaneBody=0;fillColor=none;collapsible=0;dropTarget=0;points=[[0,0.5],[1,0.5]];portConstraint=eastwest;top=0;left=0;right=0;bottom=0;strokeColor=#788AA3;fontFamily=Helvetica;fontSize=12;fontColor=#46495D;html=1;labelBackgroundColor=none;" vertex="1" parent="GH-rgcXHdw-grydiUsWg-130">
          <mxGeometry y="445" width="180" height="30" as="geometry" />
        </mxCell>
        <mxCell id="GH-rgcXHdw-grydiUsWg-159" value="" style="shape=partialRectangle;connectable=0;fillColor=none;top=0;left=0;bottom=0;right=0;editable=1;overflow=hidden;whiteSpace=wrap;html=1;strokeColor=#788AA3;fontFamily=Helvetica;fontSize=12;fontColor=#46495D;startSize=23;labelBackgroundColor=none;" vertex="1" parent="GH-rgcXHdw-grydiUsWg-158">
          <mxGeometry width="30" height="30" as="geometry">
            <mxRectangle width="30" height="30" as="alternateBounds" />
          </mxGeometry>
        </mxCell>
        <mxCell id="GH-rgcXHdw-grydiUsWg-160" value="updated_at" style="shape=partialRectangle;connectable=0;fillColor=none;top=0;left=0;bottom=0;right=0;align=left;spacingLeft=6;overflow=hidden;whiteSpace=wrap;html=1;strokeColor=#788AA3;fontFamily=Helvetica;fontSize=12;fontColor=#46495D;startSize=23;labelBackgroundColor=none;" vertex="1" parent="GH-rgcXHdw-grydiUsWg-158">
          <mxGeometry x="30" width="150" height="30" as="geometry">
            <mxRectangle width="150" height="30" as="alternateBounds" />
          </mxGeometry>
        </mxCell>
        <mxCell id="GH-rgcXHdw-grydiUsWg-180" value="" style="edgeStyle=elbowEdgeStyle;fontSize=12;html=1;endArrow=ERzeroToMany;endFill=1;fontFamily=Helvetica;fontColor=default;startSize=8;entryX=1;entryY=0.5;entryDx=0;entryDy=0;rounded=1;startArrow=ERone;startFill=0;endSize=9;labelBackgroundColor=none;strokeColor=#788AA3;exitX=-0.002;exitY=0.134;exitDx=0;exitDy=0;exitPerimeter=0;" edge="1" parent="WIyWlLk6GJQsqaUBKTNV-1" source="TtT6zjxbn2nU0OrpLk1x-474" target="GH-rgcXHdw-grydiUsWg-149">
          <mxGeometry width="100" height="100" relative="1" as="geometry">
            <mxPoint x="720" y="685" as="sourcePoint" />
            <mxPoint x="384.00000000000045" y="705" as="targetPoint" />
          </mxGeometry>
        </mxCell>
        <mxCell id="GH-rgcXHdw-grydiUsWg-181" value="&lt;font color=&quot;#000000&quot;&gt;Searches（検索）&lt;/font&gt;" style="shape=table;startSize=30;container=1;collapsible=1;childLayout=tableLayout;fixedRows=1;rowLines=0;fontStyle=1;align=center;resizeLast=1;html=1;strokeColor=#82b366;fontFamily=Helvetica;fontSize=12;fillColor=#d5e8d4;labelBackgroundColor=none;" vertex="1" parent="WIyWlLk6GJQsqaUBKTNV-1">
          <mxGeometry x="1460" y="150" width="180" height="120" as="geometry">
            <mxRectangle x="50" y="90" width="80" height="30" as="alternateBounds" />
          </mxGeometry>
        </mxCell>
        <mxCell id="GH-rgcXHdw-grydiUsWg-182" value="" style="shape=tableRow;horizontal=0;startSize=0;swimlaneHead=0;swimlaneBody=0;fillColor=none;collapsible=0;dropTarget=0;points=[[0,0.5],[1,0.5]];portConstraint=eastwest;top=0;left=0;right=0;bottom=1;strokeColor=#788AA3;fontFamily=Helvetica;fontSize=12;fontColor=#46495D;html=1;labelBackgroundColor=none;" vertex="1" parent="GH-rgcXHdw-grydiUsWg-181">
          <mxGeometry y="30" width="180" height="30" as="geometry" />
        </mxCell>
        <mxCell id="GH-rgcXHdw-grydiUsWg-183" value="PK" style="shape=partialRectangle;connectable=0;fillColor=none;top=0;left=0;bottom=0;right=0;fontStyle=1;overflow=hidden;whiteSpace=wrap;html=1;strokeColor=#788AA3;fontFamily=Helvetica;fontSize=12;fontColor=#46495D;startSize=23;labelBackgroundColor=none;" vertex="1" parent="GH-rgcXHdw-grydiUsWg-182">
          <mxGeometry width="30" height="30" as="geometry">
            <mxRectangle width="30" height="30" as="alternateBounds" />
          </mxGeometry>
        </mxCell>
        <mxCell id="GH-rgcXHdw-grydiUsWg-184" value="admin_id" style="shape=partialRectangle;connectable=0;fillColor=none;top=0;left=0;bottom=0;right=0;align=left;spacingLeft=6;fontStyle=5;overflow=hidden;whiteSpace=wrap;html=1;strokeColor=#788AA3;fontFamily=Helvetica;fontSize=12;fontColor=#46495D;startSize=23;labelBackgroundColor=none;" vertex="1" parent="GH-rgcXHdw-grydiUsWg-182">
          <mxGeometry x="30" width="150" height="30" as="geometry">
            <mxRectangle width="150" height="30" as="alternateBounds" />
          </mxGeometry>
        </mxCell>
        <mxCell id="GH-rgcXHdw-grydiUsWg-191" value="" style="shape=tableRow;horizontal=0;startSize=0;swimlaneHead=0;swimlaneBody=0;fillColor=none;collapsible=0;dropTarget=0;points=[[0,0.5],[1,0.5]];portConstraint=eastwest;top=0;left=0;right=0;bottom=0;strokeColor=#788AA3;fontFamily=Helvetica;fontSize=12;fontColor=#46495D;html=1;labelBackgroundColor=none;" vertex="1" parent="GH-rgcXHdw-grydiUsWg-181">
          <mxGeometry y="60" width="180" height="30" as="geometry" />
        </mxCell>
        <mxCell id="GH-rgcXHdw-grydiUsWg-192" value="" style="shape=partialRectangle;connectable=0;fillColor=none;top=0;left=0;bottom=0;right=0;editable=1;overflow=hidden;whiteSpace=wrap;html=1;strokeColor=#788AA3;fontFamily=Helvetica;fontSize=12;fontColor=#46495D;startSize=23;labelBackgroundColor=none;" vertex="1" parent="GH-rgcXHdw-grydiUsWg-191">
          <mxGeometry width="30" height="30" as="geometry">
            <mxRectangle width="30" height="30" as="alternateBounds" />
          </mxGeometry>
        </mxCell>
        <mxCell id="GH-rgcXHdw-grydiUsWg-193" value="created_at" style="shape=partialRectangle;connectable=0;fillColor=none;top=0;left=0;bottom=0;right=0;align=left;spacingLeft=6;overflow=hidden;whiteSpace=wrap;html=1;strokeColor=#788AA3;fontFamily=Helvetica;fontSize=12;fontColor=#46495D;startSize=23;labelBackgroundColor=none;" vertex="1" parent="GH-rgcXHdw-grydiUsWg-191">
          <mxGeometry x="30" width="150" height="30" as="geometry">
            <mxRectangle width="150" height="30" as="alternateBounds" />
          </mxGeometry>
        </mxCell>
        <mxCell id="GH-rgcXHdw-grydiUsWg-194" value="" style="shape=tableRow;horizontal=0;startSize=0;swimlaneHead=0;swimlaneBody=0;fillColor=none;collapsible=0;dropTarget=0;points=[[0,0.5],[1,0.5]];portConstraint=eastwest;top=0;left=0;right=0;bottom=0;strokeColor=#788AA3;fontFamily=Helvetica;fontSize=12;fontColor=#46495D;html=1;labelBackgroundColor=none;" vertex="1" parent="GH-rgcXHdw-grydiUsWg-181">
          <mxGeometry y="90" width="180" height="30" as="geometry" />
        </mxCell>
        <mxCell id="GH-rgcXHdw-grydiUsWg-195" value="" style="shape=partialRectangle;connectable=0;fillColor=none;top=0;left=0;bottom=0;right=0;editable=1;overflow=hidden;whiteSpace=wrap;html=1;strokeColor=#788AA3;fontFamily=Helvetica;fontSize=12;fontColor=#46495D;startSize=23;labelBackgroundColor=none;" vertex="1" parent="GH-rgcXHdw-grydiUsWg-194">
          <mxGeometry width="30" height="30" as="geometry">
            <mxRectangle width="30" height="30" as="alternateBounds" />
          </mxGeometry>
        </mxCell>
        <mxCell id="GH-rgcXHdw-grydiUsWg-196" value="updated_at" style="shape=partialRectangle;connectable=0;fillColor=none;top=0;left=0;bottom=0;right=0;align=left;spacingLeft=6;overflow=hidden;whiteSpace=wrap;html=1;strokeColor=#788AA3;fontFamily=Helvetica;fontSize=12;fontColor=#46495D;startSize=23;labelBackgroundColor=none;" vertex="1" parent="GH-rgcXHdw-grydiUsWg-194">
          <mxGeometry x="30" width="150" height="30" as="geometry">
            <mxRectangle width="150" height="30" as="alternateBounds" />
          </mxGeometry>
        </mxCell>
      </root>
    </mxGraphModel>
  </diagram>
</mxfile>
